<ttFont>
    <TTGlyph name=".notdef" xMin="80" yMin="0" xMax="556" yMax="660">
      <contour>
        <pt x="496" y="95" on="1"/>
        <pt x="496" y="565" on="1"/>
        <pt x="348" y="330" on="1"/>
      </contour>
      <contour>
        <pt x="464" y="50" on="1"/>
        <pt x="318" y="282" on="1"/>
        <pt x="172" y="50" on="1"/>
      </contour>
      <contour>
        <pt x="140" y="95" on="1"/>
        <pt x="288" y="330" on="1"/>
        <pt x="140" y="565" on="1"/>
      </contour>
      <contour>
        <pt x="172" y="610" on="1"/>
        <pt x="318" y="378" on="1"/>
        <pt x="464" y="610" on="1"/>
      </contour>
      <contour>
        <pt x="556" y="0" on="1"/>
        <pt x="80" y="0" on="1"/>
        <pt x="80" y="660" on="1"/>
        <pt x="556" y="660" on="1"/>
      </contour>
    </TTGlyph>
    <TTGlyph name="A" xMin="5" yMin="0" xMax="669" yMax="655">
      <contour>
        <pt x="385" y="259" on="1"/>
        <pt x="305" y="482" on="1"/>
        <pt x="222" y="259" on="1"/>
      </contour>
      <contour>
        <pt x="669" y="49" on="1"/>
        <pt x="669" y="0" on="1"/>
        <pt x="375" y="0" on="1"/>
        <pt x="375" y="49" on="1"/>
        <pt x="457" y="59" on="1"/>
        <pt x="405" y="204" on="1"/>
        <pt x="202" y="204" on="1"/>
        <pt x="149" y="62" on="1"/>
        <pt x="230" y="50" on="1"/>
        <pt x="230" y="0" on="1"/>
        <pt x="5" y="0" on="1"/>
        <pt x="5" y="50" on="1"/>
        <pt x="94" y="63" on="1"/>
        <pt x="316" y="655" on="1"/>
        <pt x="376" y="655" on="1"/>
        <pt x="603" y="57" on="1"/>
      </contour>
    </TTGlyph>
    <TTGlyph name="AE" xMin="10" yMin="0" xMax="888" yMax="655">
      <contour>
        <pt x="268" y="293" on="1"/>
        <pt x="430" y="293" on="1"/>
        <pt x="430" y="590" on="1"/>
        <pt x="420" y="590" on="1"/>
      </contour>
      <contour>
        <pt x="888" y="174" on="1"/>
        <pt x="881" y="0" on="1"/>
        <pt x="347" y="0" on="1"/>
        <pt x="347" y="50" on="1"/>
        <pt x="428" y="59" on="1"/>
        <pt x="429" y="101" on="0"/>
        <pt x="430" y="190" on="0"/>
        <pt x="430" y="238" on="1"/>
        <pt x="240" y="238" on="1"/>
        <pt x="151" y="62" on="1"/>
        <pt x="235" y="50" on="1"/>
        <pt x="235" y="0" on="1"/>
        <pt x="10" y="0" on="1"/>
        <pt x="10" y="50" on="1"/>
        <pt x="83" y="61" on="1"/>
        <pt x="357" y="596" on="1"/>
        <pt x="267" y="605" on="1"/>
        <pt x="267" y="655" on="1"/>
        <pt x="861" y="655" on="1"/>
        <pt x="868" y="481" on="1"/>
        <pt x="793" y="481" on="1"/>
        <pt x="772" y="600" on="1"/>
        <pt x="578" y="600" on="1"/>
        <pt x="576" y="543" on="0"/>
        <pt x="576" y="427" on="0"/>
        <pt x="576" y="367" on="1"/>
        <pt x="704" y="367" on="1"/>
        <pt x="717" y="456" on="1"/>
        <pt x="771" y="456" on="1"/>
        <pt x="771" y="224" on="1"/>
        <pt x="717" y="224" on="1"/>
        <pt x="705" y="312" on="1"/>
        <pt x="576" y="312" on="1"/>
        <pt x="576" y="244" on="0"/>
        <pt x="576" y="117" on="0"/>
        <pt x="578" y="54" on="1"/>
        <pt x="792" y="54" on="1"/>
        <pt x="813" y="174" on="1"/>
      </contour>
    </TTGlyph>
    <TTGlyph name="Aacute" xMin="5" yMin="0" xMax="669" yMax="878">
      <component glyphName="A" x="0" y="0" flags="0x204"/>
      <component glyphName="acutecmb.cap" x="356" y="0" flags="0x4"/>
    </TTGlyph>
    <TTGlyph name="Abreve" xMin="5" yMin="0" xMax="669" yMax="863">
      <component glyphName="A" x="0" y="0" flags="0x204"/>
      <component glyphName="brevecmb.cap" x="344" y="-9" flags="0x4"/>
    </TTGlyph>
    <TTGlyph name="Acircumflex" xMin="5" yMin="0" xMax="669" yMax="848">
      <component glyphName="A" x="0" y="0" flags="0x204"/>
      <component glyphName="circumflexcmb.cap" x="344" y="-19" flags="0x4"/>
    </TTGlyph>
    <TTGlyph name="Adieresis" xMin="5" yMin="0" xMax="669" yMax="848">
      <component glyphName="A" x="0" y="0" flags="0x204"/>
      <component glyphName="dieresiscmb.cap" x="351" y="0" flags="0x4"/>
    </TTGlyph>
    <TTGlyph name="Agrave" xMin="5" yMin="0" xMax="669" yMax="878">
      <component glyphName="A" x="0" y="0" flags="0x204"/>
      <component glyphName="gravecmb.cap" x="332" y="0" flags="0x4"/>
    </TTGlyph>
    <TTGlyph name="Amacron" xMin="5" yMin="0" xMax="669" yMax="814">
      <component glyphName="A" x="0" y="0" flags="0x204"/>
      <component glyphName="macroncmb.cap" x="339" y="0" flags="0x4"/>
    </TTGlyph>
    <TTGlyph name="Aogonek" xMin="5" yMin="-230" xMax="669" yMax="655">
      <component glyphName="A" x="0" y="0" flags="0x204"/>
      <component glyphName="uni0328" x="551" y="0" flags="0x4"/>
    </TTGlyph>
    <TTGlyph name="Aring" xMin="5" yMin="0" xMax="669" yMax="908">
      <component glyphName="A" x="0" y="0" flags="0x204"/>
      <component glyphName="ringcmb.cap" x="339" y="0" flags="0x4"/>
    </TTGlyph>
    <TTGlyph name="Atilde" xMin="5" yMin="0" xMax="669" yMax="848">
      <component glyphName="A" x="0" y="0" flags="0x204"/>
      <component glyphName="tildecmb.cap" x="343" y="0" flags="0x4"/>
    </TTGlyph>
    <TTGlyph name="B" xMin="32" yMin="0" xMax="611" yMax="655">
      <contour>
        <pt x="293" y="55" on="1"/>
        <pt x="345" y="55" on="0"/>
        <pt x="413" y="73" on="0"/>
        <pt x="451" y="108" on="0"/>
        <pt x="466" y="157" on="0"/>
        <pt x="466" y="188" on="1"/>
        <pt x="466" y="257" on="0"/>
        <pt x="392" y="318" on="0"/>
        <pt x="301" y="318" on="1"/>
        <pt x="261" y="318" on="1"/>
        <pt x="261" y="248" on="0"/>
        <pt x="261" y="118" on="0"/>
        <pt x="263" y="55" on="1"/>
      </contour>
      <contour>
        <pt x="263" y="600" on="1"/>
        <pt x="261" y="543" on="0"/>
        <pt x="261" y="429" on="0"/>
        <pt x="261" y="371" on="1"/>
        <pt x="298" y="371" on="1"/>
        <pt x="370" y="371" on="0"/>
        <pt x="436" y="430" on="0"/>
        <pt x="436" y="487" on="1"/>
        <pt x="436" y="544" on="0"/>
        <pt x="377" y="600" on="0"/>
        <pt x="312" y="600" on="1"/>
      </contour>
      <contour>
        <pt x="346" y="655" on="1"/>
        <pt x="464" y="655" on="0"/>
        <pt x="574" y="565" on="0"/>
        <pt x="574" y="491" on="1"/>
        <pt x="574" y="467" on="0"/>
        <pt x="562" y="422" on="0"/>
        <pt x="533" y="384" on="0"/>
        <pt x="487" y="356" on="0"/>
        <pt x="454" y="347" on="1"/>
        <pt x="498" y="339" on="0"/>
        <pt x="558" y="308" on="0"/>
        <pt x="595" y="266" on="0"/>
        <pt x="611" y="214" on="0"/>
        <pt x="611" y="186" on="1"/>
        <pt x="611" y="152" on="0"/>
        <pt x="586" y="86" on="0"/>
        <pt x="517" y="33" on="0"/>
        <pt x="395" y="0" on="0"/>
        <pt x="298" y="0" on="1"/>
        <pt x="32" y="0" on="1"/>
        <pt x="32" y="50" on="1"/>
        <pt x="113" y="59" on="1"/>
        <pt x="115" y="121" on="0"/>
        <pt x="115" y="246" on="0"/>
        <pt x="115" y="310" on="1"/>
        <pt x="115" y="345" on="1"/>
        <pt x="115" y="408" on="0"/>
        <pt x="115" y="533" on="0"/>
        <pt x="113" y="596" on="1"/>
        <pt x="32" y="605" on="1"/>
        <pt x="32" y="655" on="1"/>
      </contour>
    </TTGlyph>
    <TTGlyph name="C" xMin="30" yMin="-15" xMax="587" yMax="670">
      <contour>
        <pt x="587" y="184" on="1"/>
        <pt x="583" y="32" on="1"/>
        <pt x="541" y="9" on="0"/>
        <pt x="439" y="-15" on="0"/>
        <pt x="382" y="-15" on="1"/>
        <pt x="305" y="-15" on="0"/>
        <pt x="176" y="28" on="0"/>
        <pt x="82" y="114" on="0"/>
        <pt x="30" y="242" on="0"/>
        <pt x="30" y="327" on="1"/>
        <pt x="30" y="412" on="0"/>
        <pt x="85" y="541" on="0"/>
        <pt x="181" y="627" on="0"/>
        <pt x="314" y="670" on="0"/>
        <pt x="392" y="670" on="1"/>
        <pt x="440" y="670" on="0"/>
        <pt x="527" y="649" on="0"/>
        <pt x="573" y="623" on="1"/>
        <pt x="577" y="471" on="1"/>
        <pt x="498" y="471" on="1"/>
        <pt x="478" y="597" on="1"/>
        <pt x="436" y="615" on="0"/>
        <pt x="393" y="615" on="1"/>
        <pt x="349" y="615" on="0"/>
        <pt x="272" y="578" on="0"/>
        <pt x="215" y="505" on="0"/>
        <pt x="183" y="397" on="0"/>
        <pt x="183" y="327" on="1"/>
        <pt x="183" y="257" on="0"/>
        <pt x="215" y="150" on="0"/>
        <pt x="272" y="77" on="0"/>
        <pt x="349" y="40" on="0"/>
        <pt x="393" y="40" on="1"/>
        <pt x="440" y="40" on="0"/>
        <pt x="488" y="58" on="1"/>
        <pt x="507" y="184" on="1"/>
      </contour>
    </TTGlyph>
    <TTGlyph name="Cacute" xMin="30" yMin="-15" xMax="587" yMax="878">
      <component glyphName="C" x="0" y="0" flags="0x204"/>
      <component glyphName="acutecmb.cap" x="384" y="0" flags="0x4"/>
    </TTGlyph>
    <TTGlyph name="Ccaron" xMin="30" yMin="-15" xMax="587" yMax="867">
      <component glyphName="C" x="0" y="0" flags="0x204"/>
      <component glyphName="caroncmb.cap" x="379" y="0" flags="0x4"/>
    </TTGlyph>
    <TTGlyph name="Ccedilla" xMin="30" yMin="-230" xMax="587" yMax="670">
      <component glyphName="C" x="0" y="0" flags="0x204"/>
      <component glyphName="uni0327" x="361" y="0" flags="0x4"/>
    </TTGlyph>
    <TTGlyph name="D" xMin="32" yMin="0" xMax="662" yMax="655">
      <contour>
        <pt x="299" y="55" on="1"/>
        <pt x="346" y="55" on="0"/>
        <pt x="424" y="91" on="0"/>
        <pt x="479" y="160" on="0"/>
        <pt x="509" y="262" on="0"/>
        <pt x="509" y="328" on="1"/>
        <pt x="509" y="394" on="0"/>
        <pt x="479" y="496" on="0"/>
        <pt x="423" y="565" on="0"/>
        <pt x="346" y="600" on="0"/>
        <pt x="298" y="600" on="1"/>
        <pt x="263" y="600" on="1"/>
        <pt x="261" y="537" on="0"/>
        <pt x="261" y="410" on="0"/>
        <pt x="261" y="345" on="1"/>
        <pt x="261" y="320" on="1"/>
        <pt x="261" y="250" on="0"/>
        <pt x="261" y="119" on="0"/>
        <pt x="263" y="55" on="1"/>
      </contour>
      <contour>
        <pt x="334" y="655" on="1"/>
        <pt x="407" y="655" on="0"/>
        <pt x="528" y="613" on="0"/>
        <pt x="615" y="530" on="0"/>
        <pt x="662" y="410" on="0"/>
        <pt x="662" y="332" on="1"/>
        <pt x="662" y="251" on="0"/>
        <pt x="610" y="127" on="0"/>
        <pt x="517" y="43" on="0"/>
        <pt x="389" y="0" on="0"/>
        <pt x="314" y="0" on="1"/>
        <pt x="32" y="0" on="1"/>
        <pt x="32" y="50" on="1"/>
        <pt x="113" y="59" on="1"/>
        <pt x="115" y="121" on="0"/>
        <pt x="115" y="250" on="0"/>
        <pt x="115" y="320" on="1"/>
        <pt x="115" y="345" on="1"/>
        <pt x="115" y="408" on="0"/>
        <pt x="115" y="533" on="0"/>
        <pt x="113" y="596" on="1"/>
        <pt x="32" y="605" on="1"/>
        <pt x="32" y="655" on="1"/>
      </contour>
    </TTGlyph>
    <TTGlyph name="Dcaron" xMin="32" yMin="0" xMax="662" yMax="867">
      <component glyphName="D" x="0" y="0" flags="0x204"/>
      <component glyphName="caroncmb.cap" x="341" y="0" flags="0x4"/>
    </TTGlyph>
    <TTGlyph name="Dcroat" xMin="32" yMin="0" xMax="662" yMax="655">
      <component glyphName="Eth" x="0" y="0" flags="0x204"/>
    </TTGlyph>
    <TTGlyph name="E" xMin="32" yMin="0" xMax="573" yMax="655">
      <contour>
        <pt x="573" y="174" on="1"/>
        <pt x="566" y="0" on="1"/>
        <pt x="32" y="0" on="1"/>
        <pt x="32" y="50" on="1"/>
        <pt x="113" y="59" on="1"/>
        <pt x="115" y="121" on="0"/>
        <pt x="115" y="246" on="0"/>
        <pt x="115" y="310" on="1"/>
        <pt x="115" y="345" on="1"/>
        <pt x="115" y="408" on="0"/>
        <pt x="115" y="533" on="0"/>
        <pt x="113" y="596" on="1"/>
        <pt x="32" y="605" on="1"/>
        <pt x="32" y="655" on="1"/>
        <pt x="546" y="655" on="1"/>
        <pt x="553" y="481" on="1"/>
        <pt x="478" y="481" on="1"/>
        <pt x="457" y="600" on="1"/>
        <pt x="263" y="600" on="1"/>
        <pt x="261" y="543" on="0"/>
        <pt x="261" y="427" on="0"/>
        <pt x="261" y="367" on="1"/>
        <pt x="389" y="367" on="1"/>
        <pt x="402" y="456" on="1"/>
        <pt x="456" y="456" on="1"/>
        <pt x="456" y="224" on="1"/>
        <pt x="402" y="224" on="1"/>
        <pt x="390" y="312" on="1"/>
        <pt x="261" y="312" on="1"/>
        <pt x="261" y="244" on="0"/>
        <pt x="261" y="117" on="0"/>
        <pt x="263" y="54" on="1"/>
        <pt x="477" y="54" on="1"/>
        <pt x="498" y="174" on="1"/>
      </contour>
    </TTGlyph>
    <TTGlyph name="Eacute" xMin="32" yMin="0" xMax="573" yMax="878">
      <component glyphName="E" x="0" y="0" flags="0x204"/>
      <component glyphName="acutecmb.cap" x="354" y="0" flags="0x4"/>
    </TTGlyph>
    <TTGlyph name="Ecaron" xMin="32" yMin="0" xMax="573" yMax="867">
      <component glyphName="E" x="0" y="0" flags="0x204"/>
      <component glyphName="caroncmb.cap" x="324" y="0" flags="0x4"/>
    </TTGlyph>
    <TTGlyph name="Ecircumflex" xMin="32" yMin="0" xMax="573" yMax="867">
      <component glyphName="E" x="0" y="0" flags="0x204"/>
      <component glyphName="circumflexcmb.cap" x="328" y="0" flags="0x4"/>
    </TTGlyph>
    <TTGlyph name="Edieresis" xMin="32" yMin="0" xMax="573" yMax="848">
      <component glyphName="E" x="0" y="0" flags="0x204"/>
      <component glyphName="dieresiscmb.cap" x="313" y="0" flags="0x4"/>
    </TTGlyph>
    <TTGlyph name="Edotaccent" xMin="32" yMin="0" xMax="573" yMax="867">
      <component glyphName="E" x="0" y="0" flags="0x204"/>
      <component glyphName="dotaccentcmb.cap" x="314" y="0" flags="0x4"/>
    </TTGlyph>
    <TTGlyph name="Egrave" xMin="32" yMin="0" xMax="573" yMax="878">
      <component glyphName="E" x="0" y="0" flags="0x204"/>
      <component glyphName="gravecmb.cap" x="284" y="0" flags="0x4"/>
    </TTGlyph>
    <TTGlyph name="Emacron" xMin="32" yMin="0" xMax="573" yMax="814">
      <component glyphName="E" x="0" y="0" flags="0x204"/>
      <component glyphName="macroncmb.cap" x="334" y="0" flags="0x4"/>
    </TTGlyph>
    <TTGlyph name="Eogonek" xMin="32" yMin="-230" xMax="578" yMax="655">
      <component glyphName="E" x="0" y="0" flags="0x204"/>
      <component glyphName="uni0328" x="462" y="0" flags="0x4"/>
    </TTGlyph>
    <TTGlyph name="Eth" xMin="32" yMin="0" xMax="662" yMax="655">
      <contour>
        <pt x="299" y="55" on="1"/>
        <pt x="346" y="55" on="0"/>
        <pt x="424" y="91" on="0"/>
        <pt x="479" y="160" on="0"/>
        <pt x="509" y="262" on="0"/>
        <pt x="509" y="328" on="1"/>
        <pt x="509" y="394" on="0"/>
        <pt x="479" y="496" on="0"/>
        <pt x="423" y="565" on="0"/>
        <pt x="346" y="600" on="0"/>
        <pt x="298" y="600" on="1"/>
        <pt x="263" y="600" on="1"/>
        <pt x="261" y="542" on="0"/>
        <pt x="261" y="426" on="0"/>
        <pt x="261" y="366" on="1"/>
        <pt x="392" y="366" on="1"/>
        <pt x="392" y="311" on="1"/>
        <pt x="261" y="311" on="1"/>
        <pt x="261" y="243" on="0"/>
        <pt x="261" y="117" on="0"/>
        <pt x="263" y="55" on="1"/>
      </contour>
      <contour>
        <pt x="334" y="655" on="1"/>
        <pt x="407" y="655" on="0"/>
        <pt x="528" y="613" on="0"/>
        <pt x="615" y="530" on="0"/>
        <pt x="662" y="410" on="0"/>
        <pt x="662" y="332" on="1"/>
        <pt x="662" y="251" on="0"/>
        <pt x="610" y="127" on="0"/>
        <pt x="517" y="43" on="0"/>
        <pt x="389" y="0" on="0"/>
        <pt x="314" y="0" on="1"/>
        <pt x="32" y="0" on="1"/>
        <pt x="32" y="50" on="1"/>
        <pt x="113" y="59" on="1"/>
        <pt x="115" y="119" on="0"/>
        <pt x="115" y="244" on="0"/>
        <pt x="115" y="311" on="1"/>
        <pt x="32" y="311" on="1"/>
        <pt x="32" y="366" on="1"/>
        <pt x="115" y="366" on="1"/>
        <pt x="115" y="424" on="0"/>
        <pt x="115" y="539" on="0"/>
        <pt x="113" y="596" on="1"/>
        <pt x="32" y="605" on="1"/>
        <pt x="32" y="655" on="1"/>
      </contour>
    </TTGlyph>
    <TTGlyph name="Euro" xMin="7" yMin="-15" xMax="517" yMax="653">
      <contour>
        <pt x="396" y="92" on="1"/>
        <pt x="399" y="116" on="0"/>
        <pt x="412" y="147" on="0"/>
        <pt x="431" y="164" on="0"/>
        <pt x="452" y="170" on="0"/>
        <pt x="463" y="170" on="1"/>
        <pt x="481" y="170" on="0"/>
        <pt x="513" y="152" on="0"/>
        <pt x="517" y="126" on="1"/>
        <pt x="508" y="56" on="0"/>
        <pt x="424" y="-15" on="0"/>
        <pt x="332" y="-15" on="1"/>
        <pt x="230" y="-15" on="0"/>
        <pt x="93" y="107" on="0"/>
        <pt x="74" y="228" on="1"/>
        <pt x="7" y="228" on="1"/>
        <pt x="7" y="283" on="1"/>
        <pt x="68" y="283" on="1"/>
        <pt x="67" y="291" on="0"/>
        <pt x="67" y="309" on="0"/>
        <pt x="67" y="318" on="1"/>
        <pt x="67" y="326" on="0"/>
        <pt x="67" y="342" on="0"/>
        <pt x="68" y="350" on="1"/>
        <pt x="7" y="350" on="1"/>
        <pt x="7" y="405" on="1"/>
        <pt x="74" y="405" on="1"/>
        <pt x="84" y="467" on="0"/>
        <pt x="134" y="560" on="0"/>
        <pt x="206" y="622" on="0"/>
        <pt x="297" y="653" on="0"/>
        <pt x="349" y="653" on="1"/>
        <pt x="427" y="653" on="0"/>
        <pt x="513" y="581" on="0"/>
        <pt x="515" y="512" on="1"/>
        <pt x="508" y="488" on="0"/>
        <pt x="479" y="468" on="0"/>
        <pt x="460" y="468" on="1"/>
        <pt x="450" y="468" on="0"/>
        <pt x="428" y="474" on="0"/>
        <pt x="410" y="491" on="0"/>
        <pt x="396" y="522" on="0"/>
        <pt x="394" y="546" on="1"/>
        <pt x="388" y="601" on="1"/>
        <pt x="380" y="602" on="0"/>
        <pt x="368" y="603" on="0"/>
        <pt x="362" y="603" on="1"/>
        <pt x="299" y="603" on="0"/>
        <pt x="215" y="503" on="0"/>
        <pt x="201" y="405" on="1"/>
        <pt x="409" y="405" on="1"/>
        <pt x="409" y="350" on="1"/>
        <pt x="197" y="350" on="1"/>
        <pt x="196" y="342" on="0"/>
        <pt x="196" y="326" on="0"/>
        <pt x="196" y="318" on="1"/>
        <pt x="196" y="309" on="0"/>
        <pt x="196" y="291" on="0"/>
        <pt x="197" y="283" on="1"/>
        <pt x="409" y="283" on="1"/>
        <pt x="409" y="228" on="1"/>
        <pt x="202" y="228" on="1"/>
        <pt x="216" y="135" on="0"/>
        <pt x="299" y="35" on="0"/>
        <pt x="367" y="35" on="1"/>
        <pt x="372" y="35" on="0"/>
        <pt x="383" y="35" on="0"/>
        <pt x="390" y="37" on="1"/>
      </contour>
    </TTGlyph>
    <TTGlyph name="F" xMin="32" yMin="0" xMax="553" yMax="655">
      <contour>
        <pt x="263" y="600" on="1"/>
        <pt x="261" y="543" on="0"/>
        <pt x="261" y="427" on="0"/>
        <pt x="261" y="367" on="1"/>
        <pt x="394" y="367" on="1"/>
        <pt x="407" y="456" on="1"/>
        <pt x="461" y="456" on="1"/>
        <pt x="461" y="214" on="1"/>
        <pt x="407" y="214" on="1"/>
        <pt x="394" y="312" on="1"/>
        <pt x="261" y="312" on="1"/>
        <pt x="261" y="246" on="0"/>
        <pt x="261" y="121" on="0"/>
        <pt x="263" y="60" on="1"/>
        <pt x="354" y="50" on="1"/>
        <pt x="354" y="0" on="1"/>
        <pt x="32" y="0" on="1"/>
        <pt x="32" y="50" on="1"/>
        <pt x="113" y="59" on="1"/>
        <pt x="115" y="121" on="0"/>
        <pt x="115" y="246" on="0"/>
        <pt x="115" y="310" on="1"/>
        <pt x="115" y="345" on="1"/>
        <pt x="115" y="408" on="0"/>
        <pt x="115" y="533" on="0"/>
        <pt x="113" y="596" on="1"/>
        <pt x="32" y="605" on="1"/>
        <pt x="32" y="655" on="1"/>
        <pt x="546" y="655" on="1"/>
        <pt x="553" y="481" on="1"/>
        <pt x="478" y="481" on="1"/>
        <pt x="457" y="600" on="1"/>
      </contour>
    </TTGlyph>
    <TTGlyph name="G" xMin="30" yMin="-15" xMax="650" yMax="670">
      <contour>
        <pt x="650" y="261" on="1"/>
        <pt x="596" y="254" on="1"/>
        <pt x="595" y="212" on="0"/>
        <pt x="594" y="129" on="0"/>
        <pt x="594" y="86" on="1"/>
        <pt x="594" y="43" on="1"/>
        <pt x="541" y="14" on="0"/>
        <pt x="437" y="-15" on="0"/>
        <pt x="377" y="-15" on="1"/>
        <pt x="298" y="-15" on="0"/>
        <pt x="170" y="37" on="0"/>
        <pt x="79" y="128" on="0"/>
        <pt x="30" y="253" on="0"/>
        <pt x="30" y="327" on="1"/>
        <pt x="30" y="401" on="0"/>
        <pt x="80" y="527" on="0"/>
        <pt x="173" y="618" on="0"/>
        <pt x="305" y="670" on="0"/>
        <pt x="387" y="670" on="1"/>
        <pt x="435" y="670" on="0"/>
        <pt x="531" y="649" on="0"/>
        <pt x="584" y="623" on="1"/>
        <pt x="588" y="481" on="1"/>
        <pt x="508" y="481" on="1"/>
        <pt x="490" y="592" on="1"/>
        <pt x="443" y="615" on="0"/>
        <pt x="394" y="615" on="1"/>
        <pt x="297" y="615" on="0"/>
        <pt x="183" y="465" on="0"/>
        <pt x="183" y="327" on="1"/>
        <pt x="183" y="259" on="0"/>
        <pt x="216" y="152" on="0"/>
        <pt x="273" y="78" on="0"/>
        <pt x="351" y="40" on="0"/>
        <pt x="397" y="40" on="1"/>
        <pt x="426" y="40" on="0"/>
        <pt x="450" y="47" on="1"/>
        <pt x="450" y="86" on="1"/>
        <pt x="450" y="128" on="0"/>
        <pt x="449" y="210" on="0"/>
        <pt x="448" y="252" on="1"/>
        <pt x="374" y="261" on="1"/>
        <pt x="374" y="311" on="1"/>
        <pt x="650" y="311" on="1"/>
      </contour>
    </TTGlyph>
    <TTGlyph name="Gbreve" xMin="30" yMin="-15" xMax="650" yMax="872">
      <component glyphName="G" x="0" y="0" flags="0x204"/>
      <component glyphName="brevecmb.cap" x="382" y="0" flags="0x4"/>
    </TTGlyph>
    <TTGlyph name="Gdotaccent" xMin="30" yMin="-15" xMax="650" yMax="867">
      <component glyphName="G" x="0" y="0" flags="0x204"/>
      <component glyphName="dotaccentcmb.cap" x="377" y="0" flags="0x4"/>
    </TTGlyph>
    <TTGlyph name="H" xMin="32" yMin="0" xMax="763" yMax="655">
      <contour>
        <pt x="682" y="596" on="1"/>
        <pt x="680" y="534" on="0"/>
        <pt x="680" y="409" on="0"/>
        <pt x="680" y="345" on="1"/>
        <pt x="680" y="310" on="1"/>
        <pt x="680" y="247" on="0"/>
        <pt x="680" y="122" on="0"/>
        <pt x="682" y="59" on="1"/>
        <pt x="763" y="50" on="1"/>
        <pt x="763" y="0" on="1"/>
        <pt x="451" y="0" on="1"/>
        <pt x="451" y="50" on="1"/>
        <pt x="532" y="59" on="1"/>
        <pt x="534" y="119" on="0"/>
        <pt x="534" y="244" on="0"/>
        <pt x="534" y="311" on="1"/>
        <pt x="261" y="311" on="1"/>
        <pt x="261" y="245" on="0"/>
        <pt x="261" y="120" on="0"/>
        <pt x="263" y="59" on="1"/>
        <pt x="344" y="50" on="1"/>
        <pt x="344" y="0" on="1"/>
        <pt x="32" y="0" on="1"/>
        <pt x="32" y="50" on="1"/>
        <pt x="113" y="59" on="1"/>
        <pt x="115" y="121" on="0"/>
        <pt x="115" y="246" on="0"/>
        <pt x="115" y="310" on="1"/>
        <pt x="115" y="345" on="1"/>
        <pt x="115" y="408" on="0"/>
        <pt x="115" y="533" on="0"/>
        <pt x="113" y="596" on="1"/>
        <pt x="32" y="605" on="1"/>
        <pt x="32" y="655" on="1"/>
        <pt x="344" y="655" on="1"/>
        <pt x="344" y="605" on="1"/>
        <pt x="263" y="596" on="1"/>
        <pt x="261" y="539" on="0"/>
        <pt x="261" y="425" on="0"/>
        <pt x="261" y="366" on="1"/>
        <pt x="534" y="366" on="1"/>
        <pt x="534" y="424" on="0"/>
        <pt x="534" y="539" on="0"/>
        <pt x="532" y="596" on="1"/>
        <pt x="451" y="605" on="1"/>
        <pt x="451" y="655" on="1"/>
        <pt x="763" y="655" on="1"/>
        <pt x="763" y="605" on="1"/>
      </contour>
    </TTGlyph>
    <TTGlyph name="I" xMin="32" yMin="0" xMax="344" yMax="655">
      <contour>
        <pt x="263" y="596" on="1"/>
        <pt x="261" y="534" on="0"/>
        <pt x="261" y="409" on="0"/>
        <pt x="261" y="345" on="1"/>
        <pt x="261" y="310" on="1"/>
        <pt x="261" y="247" on="0"/>
        <pt x="261" y="122" on="0"/>
        <pt x="263" y="59" on="1"/>
        <pt x="344" y="50" on="1"/>
        <pt x="344" y="0" on="1"/>
        <pt x="32" y="0" on="1"/>
        <pt x="32" y="50" on="1"/>
        <pt x="113" y="59" on="1"/>
        <pt x="115" y="121" on="0"/>
        <pt x="115" y="246" on="0"/>
        <pt x="115" y="310" on="1"/>
        <pt x="115" y="345" on="1"/>
        <pt x="115" y="408" on="0"/>
        <pt x="115" y="533" on="0"/>
        <pt x="113" y="596" on="1"/>
        <pt x="32" y="605" on="1"/>
        <pt x="32" y="655" on="1"/>
        <pt x="344" y="655" on="1"/>
        <pt x="344" y="605" on="1"/>
      </contour>
    </TTGlyph>
    <TTGlyph name="Iacute" xMin="32" yMin="0" xMax="344" yMax="878">
      <component glyphName="I" x="0" y="0" flags="0x204"/>
      <component glyphName="acutecmb.cap" x="228" y="0" flags="0x4"/>
    </TTGlyph>
    <TTGlyph name="Icircumflex" xMin="21" yMin="0" xMax="355" yMax="867">
      <component glyphName="I" x="0" y="0" flags="0x204"/>
      <component glyphName="circumflexcmb.cap" x="188" y="0" flags="0x4"/>
    </TTGlyph>
    <TTGlyph name="Idieresis" xMin="-3" yMin="0" xMax="379" yMax="848">
      <component glyphName="I" x="0" y="0" flags="0x204"/>
      <component glyphName="dieresiscmb.cap" x="188" y="0" flags="0x4"/>
    </TTGlyph>
    <TTGlyph name="Idotaccent" xMin="32" yMin="0" xMax="344" yMax="867">
      <component glyphName="I" x="0" y="0" flags="0x204"/>
      <component glyphName="dotaccentcmb.cap" x="188" y="0" flags="0x4"/>
    </TTGlyph>
    <TTGlyph name="Igrave" xMin="32" yMin="0" xMax="344" yMax="878">
      <component glyphName="I" x="0" y="0" flags="0x204"/>
      <component glyphName="gravecmb.cap" x="173" y="0" flags="0x4"/>
    </TTGlyph>
    <TTGlyph name="Imacron" xMin="32" yMin="0" xMax="344" yMax="814">
      <component glyphName="I" x="0" y="0" flags="0x204"/>
      <component glyphName="macroncmb.cap" x="193" y="0" flags="0x4"/>
    </TTGlyph>
    <TTGlyph name="Iogonek" xMin="32" yMin="-230" xMax="344" yMax="655">
      <component glyphName="I" x="0" y="0" flags="0x204"/>
      <component glyphName="uni0328" x="227" y="0" flags="0x4"/>
    </TTGlyph>
    <TTGlyph name="J" xMin="-60" yMin="-180" xMax="358" yMax="655">
      <contour>
        <pt x="358" y="605" on="1"/>
        <pt x="277" y="596" on="1"/>
        <pt x="275" y="536" on="0"/>
        <pt x="275" y="414" on="0"/>
        <pt x="275" y="351" on="1"/>
        <pt x="275" y="205" on="1"/>
        <pt x="275" y="124" on="0"/>
        <pt x="267" y="17" on="0"/>
        <pt x="254" y="-25" on="1"/>
        <pt x="229" y="-104" on="0"/>
        <pt x="125" y="-180" on="0"/>
        <pt x="60" y="-180" on="1"/>
        <pt x="44" y="-180" on="0"/>
        <pt x="8" y="-174" on="0"/>
        <pt x="-25" y="-161" on="0"/>
        <pt x="-53" y="-137" on="0"/>
        <pt x="-60" y="-119" on="1"/>
        <pt x="-60" y="-88" on="0"/>
        <pt x="-18" y="-57" on="0"/>
        <pt x="10" y="-57" on="1"/>
        <pt x="30" y="-57" on="0"/>
        <pt x="62" y="-74" on="0"/>
        <pt x="80" y="-95" on="1"/>
        <pt x="105" y="-125" on="1"/>
        <pt x="118" y="-102" on="0"/>
        <pt x="131" y="-44" on="0"/>
        <pt x="131" y="4" on="1"/>
        <pt x="131" y="31" on="0"/>
        <pt x="130" y="125" on="0"/>
        <pt x="129" y="268" on="0"/>
        <pt x="127" y="465" on="0"/>
        <pt x="126" y="596" on="1"/>
        <pt x="36" y="605" on="1"/>
        <pt x="36" y="655" on="1"/>
        <pt x="358" y="655" on="1"/>
      </contour>
    </TTGlyph>
    <TTGlyph name="K" xMin="32" yMin="0" xMax="701" yMax="655">
      <contour>
        <pt x="701" y="50" on="1"/>
        <pt x="701" y="0" on="1"/>
        <pt x="405" y="0" on="1"/>
        <pt x="405" y="50" on="1"/>
        <pt x="464" y="56" on="1"/>
        <pt x="329" y="324" on="1"/>
        <pt x="261" y="241" on="1"/>
        <pt x="261" y="195" on="0"/>
        <pt x="261" y="104" on="0"/>
        <pt x="263" y="59" on="1"/>
        <pt x="344" y="50" on="1"/>
        <pt x="344" y="0" on="1"/>
        <pt x="32" y="0" on="1"/>
        <pt x="32" y="50" on="1"/>
        <pt x="113" y="59" on="1"/>
        <pt x="115" y="121" on="0"/>
        <pt x="115" y="246" on="0"/>
        <pt x="115" y="310" on="1"/>
        <pt x="115" y="345" on="1"/>
        <pt x="115" y="408" on="0"/>
        <pt x="115" y="533" on="0"/>
        <pt x="113" y="596" on="1"/>
        <pt x="32" y="605" on="1"/>
        <pt x="32" y="655" on="1"/>
        <pt x="344" y="655" on="1"/>
        <pt x="344" y="605" on="1"/>
        <pt x="263" y="596" on="1"/>
        <pt x="261" y="534" on="0"/>
        <pt x="261" y="409" on="0"/>
        <pt x="261" y="345" on="1"/>
        <pt x="261" y="319" on="1"/>
        <pt x="483" y="595" on="1"/>
        <pt x="429" y="605" on="1"/>
        <pt x="429" y="655" on="1"/>
        <pt x="655" y="655" on="1"/>
        <pt x="655" y="605" on="1"/>
        <pt x="550" y="592" on="1"/>
        <pt x="417" y="431" on="1"/>
        <pt x="622" y="59" on="1"/>
      </contour>
    </TTGlyph>
    <TTGlyph name="L" xMin="32" yMin="0" xMax="560" yMax="655">
      <contour>
        <pt x="560" y="194" on="1"/>
        <pt x="550" y="0" on="1"/>
        <pt x="32" y="0" on="1"/>
        <pt x="32" y="50" on="1"/>
        <pt x="113" y="59" on="1"/>
        <pt x="115" y="121" on="0"/>
        <pt x="115" y="246" on="0"/>
        <pt x="115" y="310" on="1"/>
        <pt x="115" y="345" on="1"/>
        <pt x="115" y="408" on="0"/>
        <pt x="115" y="533" on="0"/>
        <pt x="113" y="596" on="1"/>
        <pt x="32" y="605" on="1"/>
        <pt x="32" y="655" on="1"/>
        <pt x="349" y="655" on="1"/>
        <pt x="349" y="605" on="1"/>
        <pt x="263" y="596" on="1"/>
        <pt x="261" y="533" on="0"/>
        <pt x="261" y="409" on="0"/>
        <pt x="261" y="345" on="1"/>
        <pt x="261" y="310" on="1"/>
        <pt x="261" y="246" on="0"/>
        <pt x="261" y="119" on="0"/>
        <pt x="263" y="55" on="1"/>
        <pt x="453" y="55" on="1"/>
        <pt x="481" y="194" on="1"/>
      </contour>
    </TTGlyph>
    <TTGlyph name="Lacute" xMin="32" yMin="0" xMax="560" yMax="878">
      <component glyphName="L" x="0" y="0" flags="0x204"/>
      <component glyphName="acutecmb.cap" x="260" y="0" flags="0x4"/>
    </TTGlyph>
    <TTGlyph name="Lcaron" xMin="32" yMin="0" xMax="560" yMax="735">
      <component glyphName="L" x="0" y="0" flags="0x204"/>
      <component glyphName="caron.alt" x="464" y="0" flags="0x4"/>
    </TTGlyph>
    <TTGlyph name="Ldot" xMin="32" yMin="0" xMax="561" yMax="655">
      <component glyphName="L" x="0" y="0" flags="0x204"/>
      <component glyphName="period" x="327" y="320" flags="0x4"/>
    </TTGlyph>
    <TTGlyph name="Lslash" xMin="32" yMin="-1" xMax="560" yMax="654">
      <contour>
        <pt x="560" y="193" on="1"/>
        <pt x="550" y="-1" on="1"/>
        <pt x="32" y="-1" on="1"/>
        <pt x="32" y="49" on="1"/>
        <pt x="113" y="58" on="1"/>
        <pt x="115" y="102" on="0"/>
        <pt x="115" y="190" on="0"/>
        <pt x="115" y="235" on="1"/>
        <pt x="32" y="188" on="1"/>
        <pt x="32" y="264" on="1"/>
        <pt x="115" y="312" on="1"/>
        <pt x="115" y="344" on="1"/>
        <pt x="115" y="407" on="0"/>
        <pt x="115" y="532" on="0"/>
        <pt x="113" y="595" on="1"/>
        <pt x="32" y="604" on="1"/>
        <pt x="32" y="654" on="1"/>
        <pt x="349" y="654" on="1"/>
        <pt x="349" y="604" on="1"/>
        <pt x="263" y="595" on="1"/>
        <pt x="261" y="542" on="0"/>
        <pt x="261" y="437" on="0"/>
        <pt x="261" y="383" on="1"/>
        <pt x="396" y="460" on="1"/>
        <pt x="396" y="383" on="1"/>
        <pt x="261" y="306" on="1"/>
        <pt x="261" y="243" on="0"/>
        <pt x="261" y="117" on="0"/>
        <pt x="263" y="54" on="1"/>
        <pt x="453" y="54" on="1"/>
        <pt x="481" y="193" on="1"/>
      </contour>
    </TTGlyph>
    <TTGlyph name="M" xMin="15" yMin="0" xMax="883" yMax="655">
      <contour>
        <pt x="802" y="596" on="1"/>
        <pt x="800" y="534" on="0"/>
        <pt x="800" y="409" on="0"/>
        <pt x="800" y="345" on="1"/>
        <pt x="800" y="310" on="1"/>
        <pt x="800" y="247" on="0"/>
        <pt x="800" y="122" on="0"/>
        <pt x="802" y="59" on="1"/>
        <pt x="883" y="50" on="1"/>
        <pt x="883" y="0" on="1"/>
        <pt x="571" y="0" on="1"/>
        <pt x="571" y="50" on="1"/>
        <pt x="652" y="59" on="1"/>
        <pt x="654" y="121" on="0"/>
        <pt x="654" y="246" on="0"/>
        <pt x="654" y="310" on="1"/>
        <pt x="654" y="486" on="1"/>
        <pt x="430" y="0" on="1"/>
        <pt x="390" y="0" on="1"/>
        <pt x="164" y="485" on="1"/>
        <pt x="164" y="63" on="1"/>
        <pt x="258" y="50" on="1"/>
        <pt x="258" y="0" on="1"/>
        <pt x="15" y="0" on="1"/>
        <pt x="15" y="50" on="1"/>
        <pt x="109" y="63" on="1"/>
        <pt x="109" y="596" on="1"/>
        <pt x="26" y="605" on="1"/>
        <pt x="26" y="655" on="1"/>
        <pt x="227" y="655" on="1"/>
        <pt x="453" y="185" on="1"/>
        <pt x="673" y="655" on="1"/>
        <pt x="883" y="655" on="1"/>
        <pt x="883" y="605" on="1"/>
      </contour>
    </TTGlyph>
    <TTGlyph name="N" xMin="26" yMin="-10" xMax="735" yMax="655">
      <contour>
        <pt x="735" y="605" on="1"/>
        <pt x="642" y="592" on="1"/>
        <pt x="642" y="-10" on="1"/>
        <pt x="592" y="-10" on="1"/>
        <pt x="178" y="505" on="1"/>
        <pt x="178" y="63" on="1"/>
        <pt x="292" y="50" on="1"/>
        <pt x="292" y="0" on="1"/>
        <pt x="26" y="0" on="1"/>
        <pt x="26" y="50" on="1"/>
        <pt x="119" y="63" on="1"/>
        <pt x="119" y="579" on="1"/>
        <pt x="104" y="597" on="1"/>
        <pt x="36" y="604" on="1"/>
        <pt x="36" y="655" on="1"/>
        <pt x="233" y="655" on="1"/>
        <pt x="584" y="212" on="1"/>
        <pt x="584" y="592" on="1"/>
        <pt x="469" y="605" on="1"/>
        <pt x="469" y="655" on="1"/>
        <pt x="735" y="655" on="1"/>
      </contour>
    </TTGlyph>
    <TTGlyph name="Nacute" xMin="26" yMin="-10" xMax="735" yMax="864">
      <component glyphName="N" x="0" y="0" flags="0x204"/>
      <component glyphName="acutecmb.cap" x="407" y="-14" flags="0x4"/>
    </TTGlyph>
    <TTGlyph name="Ncaron" xMin="26" yMin="-10" xMax="735" yMax="858">
      <component glyphName="N" x="0" y="0" flags="0x204"/>
      <component glyphName="caroncmb.cap" x="373" y="-9" flags="0x4"/>
    </TTGlyph>
    <TTGlyph name="Ntilde" xMin="26" yMin="-10" xMax="735" yMax="848">
      <component glyphName="N" x="0" y="0" flags="0x204"/>
      <component glyphName="tildecmb.cap" x="382" y="0" flags="0x4"/>
    </TTGlyph>
    <TTGlyph name="O" xMin="32" yMin="-15" xMax="676" yMax="670">
      <contour>
        <pt x="185" y="327" on="1"/>
        <pt x="185" y="273" on="0"/>
        <pt x="203" y="170" on="0"/>
        <pt x="244" y="89" on="0"/>
        <pt x="308" y="40" on="0"/>
        <pt x="354" y="40" on="1"/>
        <pt x="400" y="40" on="0"/>
        <pt x="464" y="89" on="0"/>
        <pt x="504" y="170" on="0"/>
        <pt x="523" y="273" on="0"/>
        <pt x="523" y="327" on="1"/>
        <pt x="523" y="381" on="0"/>
        <pt x="504" y="485" on="0"/>
        <pt x="464" y="566" on="0"/>
        <pt x="400" y="615" on="0"/>
        <pt x="354" y="615" on="1"/>
        <pt x="308" y="615" on="0"/>
        <pt x="244" y="566" on="0"/>
        <pt x="203" y="485" on="0"/>
        <pt x="185" y="381" on="0"/>
      </contour>
      <contour>
        <pt x="354" y="670" on="1"/>
        <pt x="413" y="670" on="0"/>
        <pt x="528" y="627" on="0"/>
        <pt x="620" y="542" on="0"/>
        <pt x="676" y="413" on="0"/>
        <pt x="676" y="327" on="1"/>
        <pt x="676" y="241" on="0"/>
        <pt x="620" y="113" on="0"/>
        <pt x="529" y="28" on="0"/>
        <pt x="413" y="-15" on="0"/>
        <pt x="354" y="-15" on="1"/>
        <pt x="295" y="-15" on="0"/>
        <pt x="179" y="28" on="0"/>
        <pt x="88" y="113" on="0"/>
        <pt x="32" y="241" on="0"/>
        <pt x="32" y="327" on="1"/>
        <pt x="32" y="413" on="0"/>
        <pt x="88" y="542" on="0"/>
        <pt x="180" y="627" on="0"/>
        <pt x="295" y="670" on="0"/>
      </contour>
    </TTGlyph>
    <TTGlyph name="OE" xMin="30" yMin="-15" xMax="908" yMax="669">
      <contour>
        <pt x="450" y="345" on="1"/>
        <pt x="450" y="411" on="0"/>
        <pt x="450" y="545" on="0"/>
        <pt x="448" y="611" on="1"/>
        <pt x="424" y="614" on="0"/>
        <pt x="397" y="614" on="1"/>
        <pt x="345" y="614" on="0"/>
        <pt x="265" y="565" on="0"/>
        <pt x="211" y="484" on="0"/>
        <pt x="183" y="381" on="0"/>
        <pt x="183" y="327" on="1"/>
        <pt x="183" y="273" on="0"/>
        <pt x="211" y="170" on="0"/>
        <pt x="266" y="89" on="0"/>
        <pt x="346" y="40" on="0"/>
        <pt x="398" y="40" on="1"/>
        <pt x="411" y="40" on="0"/>
        <pt x="436" y="42" on="0"/>
        <pt x="448" y="44" on="1"/>
        <pt x="450" y="110" on="0"/>
        <pt x="450" y="242" on="0"/>
        <pt x="450" y="310" on="1"/>
      </contour>
      <contour>
        <pt x="908" y="174" on="1"/>
        <pt x="901" y="0" on="1"/>
        <pt x="523" y="0" on="1"/>
        <pt x="491" y="-8" on="0"/>
        <pt x="423" y="-15" on="0"/>
        <pt x="382" y="-15" on="1"/>
        <pt x="321" y="-15" on="0"/>
        <pt x="196" y="26" on="0"/>
        <pt x="94" y="111" on="0"/>
        <pt x="30" y="240" on="0"/>
        <pt x="30" y="327" on="1"/>
        <pt x="30" y="414" on="0"/>
        <pt x="94" y="543" on="0"/>
        <pt x="196" y="628" on="0"/>
        <pt x="321" y="669" on="0"/>
        <pt x="382" y="669" on="1"/>
        <pt x="423" y="669" on="0"/>
        <pt x="491" y="663" on="0"/>
        <pt x="523" y="655" on="1"/>
        <pt x="881" y="655" on="1"/>
        <pt x="888" y="481" on="1"/>
        <pt x="813" y="481" on="1"/>
        <pt x="792" y="600" on="1"/>
        <pt x="598" y="600" on="1"/>
        <pt x="596" y="543" on="0"/>
        <pt x="596" y="427" on="0"/>
        <pt x="596" y="367" on="1"/>
        <pt x="724" y="367" on="1"/>
        <pt x="737" y="456" on="1"/>
        <pt x="791" y="456" on="1"/>
        <pt x="791" y="224" on="1"/>
        <pt x="737" y="224" on="1"/>
        <pt x="725" y="312" on="1"/>
        <pt x="596" y="312" on="1"/>
        <pt x="596" y="244" on="0"/>
        <pt x="596" y="117" on="0"/>
        <pt x="598" y="54" on="1"/>
        <pt x="812" y="54" on="1"/>
        <pt x="833" y="174" on="1"/>
      </contour>
    </TTGlyph>
    <TTGlyph name="Oacute" xMin="32" yMin="-15" xMax="676" yMax="878">
      <component glyphName="O" x="0" y="0" flags="0x204"/>
      <component glyphName="acutecmb.cap" x="379" y="0" flags="0x4"/>
    </TTGlyph>
    <TTGlyph name="Ocircumflex" xMin="32" yMin="-15" xMax="676" yMax="867">
      <component glyphName="O" x="0" y="0" flags="0x204"/>
      <component glyphName="circumflexcmb.cap" x="354" y="0" flags="0x4"/>
    </TTGlyph>
    <TTGlyph name="Odieresis" xMin="32" yMin="-15" xMax="676" yMax="848">
      <component glyphName="O" x="0" y="0" flags="0x204"/>
      <component glyphName="dieresiscmb.cap" x="354" y="0" flags="0x4"/>
    </TTGlyph>
    <TTGlyph name="Ograve" xMin="32" yMin="-15" xMax="676" yMax="878">
      <component glyphName="O" x="0" y="0" flags="0x204"/>
      <component glyphName="gravecmb.cap" x="344" y="0" flags="0x4"/>
    </TTGlyph>
    <TTGlyph name="Ohungarumlaut" xMin="32" yMin="-15" xMax="676" yMax="891">
      <component glyphName="O" x="0" y="0" flags="0x204"/>
      <component glyphName="hungarumlautcmb.cap" x="394" y="0" flags="0x4"/>
    </TTGlyph>
    <TTGlyph name="Omacron" xMin="32" yMin="-15" xMax="676" yMax="814">
      <component glyphName="O" x="0" y="0" flags="0x204"/>
      <component glyphName="macroncmb.cap" x="359" y="0" flags="0x4"/>
    </TTGlyph>
    <TTGlyph name="Oslash" xMin="32" yMin="-20" xMax="676" yMax="670">
      <contour>
        <pt x="223" y="130" on="1"/>
        <pt x="243" y="89" on="0"/>
        <pt x="308" y="40" on="0"/>
        <pt x="354" y="40" on="1"/>
        <pt x="400" y="40" on="0"/>
        <pt x="464" y="89" on="0"/>
        <pt x="504" y="170" on="0"/>
        <pt x="523" y="273" on="0"/>
        <pt x="523" y="327" on="1"/>
        <pt x="523" y="398" on="0"/>
        <pt x="508" y="461" on="1"/>
      </contour>
      <contour>
        <pt x="476" y="541" on="1"/>
        <pt x="456" y="575" on="0"/>
        <pt x="396" y="615" on="0"/>
        <pt x="354" y="615" on="1"/>
        <pt x="308" y="615" on="0"/>
        <pt x="244" y="566" on="0"/>
        <pt x="203" y="485" on="0"/>
        <pt x="185" y="381" on="0"/>
        <pt x="185" y="327" on="1"/>
        <pt x="185" y="298" on="0"/>
        <pt x="190" y="242" on="0"/>
        <pt x="196" y="215" on="1"/>
      </contour>
      <contour>
        <pt x="595" y="562" on="1"/>
        <pt x="632" y="520" on="0"/>
        <pt x="676" y="403" on="0"/>
        <pt x="676" y="327" on="1"/>
        <pt x="676" y="241" on="0"/>
        <pt x="620" y="113" on="0"/>
        <pt x="529" y="28" on="0"/>
        <pt x="413" y="-15" on="0"/>
        <pt x="354" y="-15" on="1"/>
        <pt x="301" y="-15" on="0"/>
        <pt x="199" y="18" on="0"/>
        <pt x="156" y="52" on="1"/>
        <pt x="94" y="-20" on="1"/>
        <pt x="36" y="30" on="1"/>
        <pt x="101" y="106" on="1"/>
        <pt x="69" y="148" on="0"/>
        <pt x="32" y="258" on="0"/>
        <pt x="32" y="327" on="1"/>
        <pt x="32" y="413" on="0"/>
        <pt x="88" y="542" on="0"/>
        <pt x="180" y="627" on="0"/>
        <pt x="295" y="670" on="0"/>
        <pt x="354" y="670" on="1"/>
        <pt x="402" y="670" on="0"/>
        <pt x="496" y="642" on="0"/>
        <pt x="538" y="613" on="1"/>
        <pt x="587" y="670" on="1"/>
        <pt x="645" y="620" on="1"/>
      </contour>
    </TTGlyph>
    <TTGlyph name="Otilde" xMin="32" yMin="-15" xMax="676" yMax="858">
      <component glyphName="O" x="0" y="0" flags="0x204"/>
      <component glyphName="tildecmb.cap" x="354" y="10" flags="0x4"/>
    </TTGlyph>
    <TTGlyph name="P" xMin="32" yMin="0" xMax="584" yMax="655">
      <contour>
        <pt x="263" y="600" on="1"/>
        <pt x="261" y="537" on="0"/>
        <pt x="261" y="410" on="0"/>
        <pt x="261" y="345" on="1"/>
        <pt x="261" y="309" on="1"/>
        <pt x="292" y="309" on="1"/>
        <pt x="372" y="309" on="0"/>
        <pt x="446" y="391" on="0"/>
        <pt x="446" y="457" on="1"/>
        <pt x="446" y="526" on="0"/>
        <pt x="372" y="600" on="0"/>
        <pt x="294" y="600" on="1"/>
      </contour>
      <contour>
        <pt x="261" y="254" on="1"/>
        <pt x="261" y="207" on="0"/>
        <pt x="261" y="109" on="0"/>
        <pt x="263" y="60" on="1"/>
        <pt x="354" y="50" on="1"/>
        <pt x="354" y="0" on="1"/>
        <pt x="32" y="0" on="1"/>
        <pt x="32" y="50" on="1"/>
        <pt x="113" y="59" on="1"/>
        <pt x="115" y="121" on="0"/>
        <pt x="115" y="246" on="0"/>
        <pt x="115" y="310" on="1"/>
        <pt x="115" y="345" on="1"/>
        <pt x="115" y="408" on="0"/>
        <pt x="115" y="533" on="0"/>
        <pt x="113" y="596" on="1"/>
        <pt x="32" y="605" on="1"/>
        <pt x="32" y="655" on="1"/>
        <pt x="302" y="655" on="1"/>
        <pt x="377" y="655" on="0"/>
        <pt x="483" y="627" on="0"/>
        <pt x="552" y="576" on="0"/>
        <pt x="584" y="504" on="0"/>
        <pt x="584" y="460" on="1"/>
        <pt x="584" y="421" on="0"/>
        <pt x="557" y="347" on="0"/>
        <pt x="487" y="289" on="0"/>
        <pt x="368" y="254" on="0"/>
        <pt x="276" y="254" on="1"/>
      </contour>
    </TTGlyph>
    <TTGlyph name="Q" xMin="31" yMin="-207" xMax="675" yMax="670">
      <contour>
        <pt x="184" y="327" on="1"/>
        <pt x="184" y="273" on="0"/>
        <pt x="202" y="170" on="0"/>
        <pt x="243" y="89" on="0"/>
        <pt x="307" y="40" on="0"/>
        <pt x="353" y="40" on="1"/>
        <pt x="399" y="40" on="0"/>
        <pt x="463" y="89" on="0"/>
        <pt x="503" y="170" on="0"/>
        <pt x="522" y="273" on="0"/>
        <pt x="522" y="327" on="1"/>
        <pt x="522" y="381" on="0"/>
        <pt x="503" y="485" on="0"/>
        <pt x="463" y="566" on="0"/>
        <pt x="399" y="615" on="0"/>
        <pt x="353" y="615" on="1"/>
        <pt x="307" y="615" on="0"/>
        <pt x="243" y="566" on="0"/>
        <pt x="202" y="485" on="0"/>
        <pt x="184" y="381" on="0"/>
      </contour>
      <contour>
        <pt x="618" y="-175" on="1"/>
        <pt x="592" y="-192" on="0"/>
        <pt x="524" y="-207" on="0"/>
        <pt x="490" y="-207" on="1"/>
        <pt x="446" y="-207" on="0"/>
        <pt x="369" y="-179" on="0"/>
        <pt x="310" y="-127" on="0"/>
        <pt x="275" y="-52" on="0"/>
        <pt x="273" y="-5" on="1"/>
        <pt x="225" y="7" on="0"/>
        <pt x="137" y="60" on="0"/>
        <pt x="70" y="143" on="0"/>
        <pt x="31" y="256" on="0"/>
        <pt x="31" y="327" on="1"/>
        <pt x="31" y="413" on="0"/>
        <pt x="87" y="542" on="0"/>
        <pt x="179" y="627" on="0"/>
        <pt x="294" y="670" on="0"/>
        <pt x="353" y="670" on="1"/>
        <pt x="412" y="670" on="0"/>
        <pt x="527" y="627" on="0"/>
        <pt x="619" y="542" on="0"/>
        <pt x="675" y="413" on="0"/>
        <pt x="675" y="327" on="1"/>
        <pt x="675" y="252" on="0"/>
        <pt x="631" y="135" on="0"/>
        <pt x="558" y="51" on="0"/>
        <pt x="463" y="-1" on="0"/>
        <pt x="411" y="-10" on="1"/>
        <pt x="414" y="-81" on="0"/>
        <pt x="482" y="-147" on="0"/>
        <pt x="531" y="-147" on="1"/>
        <pt x="547" y="-147" on="0"/>
        <pt x="583" y="-142" on="0"/>
        <pt x="603" y="-135" on="1"/>
      </contour>
    </TTGlyph>
    <TTGlyph name="R" xMin="32" yMin="-10" xMax="664" yMax="655">
      <contour>
        <pt x="303" y="349" on="1"/>
        <pt x="341" y="349" on="0"/>
        <pt x="394" y="370" on="0"/>
        <pt x="427" y="405" on="0"/>
        <pt x="442" y="453" on="0"/>
        <pt x="442" y="480" on="1"/>
        <pt x="442" y="540" on="0"/>
        <pt x="376" y="600" on="0"/>
        <pt x="303" y="600" on="1"/>
        <pt x="261" y="600" on="1"/>
        <pt x="259" y="538" on="0"/>
        <pt x="259" y="413" on="0"/>
        <pt x="259" y="349" on="1"/>
      </contour>
      <contour>
        <pt x="664" y="50" on="1"/>
        <pt x="664" y="0" on="1"/>
        <pt x="634" y="-6" on="0"/>
        <pt x="588" y="-10" on="0"/>
        <pt x="567" y="-10" on="1"/>
        <pt x="538" y="-10" on="0"/>
        <pt x="491" y="-3" on="0"/>
        <pt x="455" y="15" on="0"/>
        <pt x="431" y="48" on="0"/>
        <pt x="426" y="74" on="1"/>
        <pt x="400" y="207" on="1"/>
        <pt x="390" y="256" on="0"/>
        <pt x="340" y="294" on="0"/>
        <pt x="290" y="294" on="1"/>
        <pt x="259" y="294" on="1"/>
        <pt x="259" y="235" on="0"/>
        <pt x="259" y="118" on="0"/>
        <pt x="261" y="59" on="1"/>
        <pt x="344" y="50" on="1"/>
        <pt x="344" y="0" on="1"/>
        <pt x="32" y="0" on="1"/>
        <pt x="32" y="50" on="1"/>
        <pt x="113" y="59" on="1"/>
        <pt x="115" y="121" on="0"/>
        <pt x="115" y="246" on="0"/>
        <pt x="115" y="310" on="1"/>
        <pt x="115" y="345" on="1"/>
        <pt x="115" y="408" on="0"/>
        <pt x="115" y="533" on="0"/>
        <pt x="113" y="596" on="1"/>
        <pt x="32" y="605" on="1"/>
        <pt x="32" y="655" on="1"/>
        <pt x="344" y="655" on="1"/>
        <pt x="457" y="655" on="0"/>
        <pt x="582" y="567" on="0"/>
        <pt x="582" y="490" on="1"/>
        <pt x="582" y="466" on="0"/>
        <pt x="567" y="415" on="0"/>
        <pt x="532" y="368" on="0"/>
        <pt x="475" y="331" on="0"/>
        <pt x="433" y="320" on="1"/>
        <pt x="481" y="306" on="0"/>
        <pt x="543" y="241" on="0"/>
        <pt x="554" y="187" on="1"/>
        <pt x="581" y="59" on="1"/>
      </contour>
    </TTGlyph>
    <TTGlyph name="Racute" xMin="32" yMin="-10" xMax="664" yMax="878">
      <component glyphName="R" x="0" y="0" flags="0x204"/>
      <component glyphName="acutecmb.cap" x="367" y="0" flags="0x4"/>
    </TTGlyph>
    <TTGlyph name="Rcaron" xMin="32" yMin="-10" xMax="664" yMax="867">
      <component glyphName="R" x="0" y="0" flags="0x204"/>
      <component glyphName="caroncmb.cap" x="317" y="0" flags="0x4"/>
    </TTGlyph>
    <TTGlyph name="S" xMin="35" yMin="-15" xMax="509" yMax="670">
      <contour>
        <pt x="321" y="389" on="1"/>
        <pt x="375" y="370" on="0"/>
        <pt x="447" y="325" on="0"/>
        <pt x="490" y="274" on="0"/>
        <pt x="509" y="219" on="0"/>
        <pt x="509" y="190" on="1"/>
        <pt x="509" y="146" on="0"/>
        <pt x="471" y="72" on="0"/>
        <pt x="402" y="16" on="0"/>
        <pt x="305" y="-15" on="0"/>
        <pt x="245" y="-15" on="1"/>
        <pt x="188" y="-15" on="0"/>
        <pt x="76" y="12" on="0"/>
        <pt x="35" y="37" on="1"/>
        <pt x="41" y="184" on="1"/>
        <pt x="124" y="184" on="1"/>
        <pt x="144" y="64" on="1"/>
        <pt x="167" y="53" on="0"/>
        <pt x="215" y="40" on="0"/>
        <pt x="244" y="40" on="1"/>
        <pt x="307" y="40" on="0"/>
        <pt x="377" y="98" on="0"/>
        <pt x="377" y="146" on="1"/>
        <pt x="377" y="184" on="0"/>
        <pt x="328" y="228" on="0"/>
        <pt x="274" y="248" on="1"/>
        <pt x="225" y="266" on="1"/>
        <pt x="136" y="298" on="0"/>
        <pt x="37" y="403" on="0"/>
        <pt x="37" y="478" on="1"/>
        <pt x="37" y="520" on="0"/>
        <pt x="70" y="590" on="0"/>
        <pt x="133" y="641" on="0"/>
        <pt x="222" y="670" on="0"/>
        <pt x="279" y="670" on="1"/>
        <pt x="334" y="670" on="0"/>
        <pt x="431" y="643" on="0"/>
        <pt x="467" y="618" on="1"/>
        <pt x="460" y="481" on="1"/>
        <pt x="378" y="481" on="1"/>
        <pt x="358" y="599" on="1"/>
        <pt x="338" y="607" on="0"/>
        <pt x="300" y="615" on="0"/>
        <pt x="280" y="615" on="1"/>
        <pt x="230" y="615" on="0"/>
        <pt x="162" y="563" on="0"/>
        <pt x="162" y="515" on="1"/>
        <pt x="162" y="473" on="0"/>
        <pt x="218" y="425" on="0"/>
        <pt x="269" y="407" on="1"/>
      </contour>
    </TTGlyph>
    <TTGlyph name="Sacute" xMin="35" yMin="-15" xMax="509" yMax="878">
      <component glyphName="S" x="0" y="0" flags="0x204"/>
      <component glyphName="acutecmb.cap" x="305" y="0" flags="0x4"/>
    </TTGlyph>
    <TTGlyph name="Scaron" xMin="35" yMin="-15" xMax="509" yMax="867">
      <component glyphName="S" x="0" y="0" flags="0x204"/>
      <component glyphName="caroncmb.cap" x="274" y="0" flags="0x4"/>
    </TTGlyph>
    <TTGlyph name="T" xMin="20" yMin="0" xMax="624" yMax="655">
      <contour>
        <pt x="397" y="600" on="1"/>
        <pt x="395" y="537" on="0"/>
        <pt x="395" y="410" on="0"/>
        <pt x="395" y="345" on="1"/>
        <pt x="395" y="310" on="1"/>
        <pt x="395" y="247" on="0"/>
        <pt x="395" y="123" on="0"/>
        <pt x="397" y="60" on="1"/>
        <pt x="488" y="50" on="1"/>
        <pt x="488" y="0" on="1"/>
        <pt x="156" y="0" on="1"/>
        <pt x="156" y="50" on="1"/>
        <pt x="247" y="60" on="1"/>
        <pt x="249" y="122" on="0"/>
        <pt x="249" y="247" on="0"/>
        <pt x="249" y="310" on="1"/>
        <pt x="249" y="345" on="1"/>
        <pt x="249" y="409" on="0"/>
        <pt x="249" y="536" on="0"/>
        <pt x="247" y="600" on="1"/>
        <pt x="115" y="600" on="1"/>
        <pt x="95" y="471" on="1"/>
        <pt x="20" y="471" on="1"/>
        <pt x="25" y="655" on="1"/>
        <pt x="619" y="655" on="1"/>
        <pt x="624" y="471" on="1"/>
        <pt x="549" y="471" on="1"/>
        <pt x="529" y="600" on="1"/>
      </contour>
    </TTGlyph>
    <TTGlyph name="Tcaron" xMin="20" yMin="0" xMax="624" yMax="867">
      <component glyphName="T" x="0" y="0" flags="0x204"/>
      <component glyphName="caroncmb.cap" x="322" y="0" flags="0x4"/>
    </TTGlyph>
    <TTGlyph name="Thorn" xMin="32" yMin="0" xMax="594" yMax="655">
      <contour>
        <pt x="302" y="199" on="1"/>
        <pt x="382" y="199" on="0"/>
        <pt x="456" y="278" on="0"/>
        <pt x="456" y="342" on="1"/>
        <pt x="456" y="408" on="0"/>
        <pt x="382" y="480" on="0"/>
        <pt x="304" y="480" on="1"/>
        <pt x="261" y="480" on="1"/>
        <pt x="261" y="199" on="1"/>
      </contour>
      <contour>
        <pt x="261" y="144" on="1"/>
        <pt x="261" y="123" on="0"/>
        <pt x="262" y="81" on="0"/>
        <pt x="262" y="60" on="1"/>
        <pt x="354" y="50" on="1"/>
        <pt x="354" y="0" on="1"/>
        <pt x="32" y="0" on="1"/>
        <pt x="32" y="50" on="1"/>
        <pt x="113" y="59" on="1"/>
        <pt x="115" y="121" on="0"/>
        <pt x="115" y="246" on="0"/>
        <pt x="115" y="310" on="1"/>
        <pt x="115" y="345" on="1"/>
        <pt x="115" y="408" on="0"/>
        <pt x="115" y="533" on="0"/>
        <pt x="113" y="596" on="1"/>
        <pt x="32" y="605" on="1"/>
        <pt x="32" y="655" on="1"/>
        <pt x="354" y="655" on="1"/>
        <pt x="354" y="605" on="1"/>
        <pt x="263" y="595" on="1"/>
        <pt x="262" y="580" on="0"/>
        <pt x="262" y="550" on="0"/>
        <pt x="261" y="535" on="1"/>
        <pt x="312" y="535" on="1"/>
        <pt x="461" y="535" on="0"/>
        <pt x="594" y="433" on="0"/>
        <pt x="594" y="345" on="1"/>
        <pt x="594" y="303" on="0"/>
        <pt x="567" y="230" on="0"/>
        <pt x="497" y="175" on="0"/>
        <pt x="378" y="144" on="0"/>
        <pt x="286" y="144" on="1"/>
      </contour>
    </TTGlyph>
    <TTGlyph name="U" xMin="32" yMin="-15" xMax="730" yMax="655">
      <contour>
        <pt x="730" y="605" on="1"/>
        <pt x="641" y="596" on="1"/>
        <pt x="641" y="283" on="1"/>
        <pt x="641" y="200" on="0"/>
        <pt x="601" y="86" on="0"/>
        <pt x="531" y="16" on="0"/>
        <pt x="434" y="-15" on="0"/>
        <pt x="377" y="-15" on="1"/>
        <pt x="319" y="-15" on="0"/>
        <pt x="222" y="16" on="0"/>
        <pt x="153" y="80" on="0"/>
        <pt x="115" y="181" on="0"/>
        <pt x="115" y="252" on="1"/>
        <pt x="115" y="352" on="1"/>
        <pt x="115" y="413" on="0"/>
        <pt x="115" y="535" on="0"/>
        <pt x="113" y="596" on="1"/>
        <pt x="32" y="605" on="1"/>
        <pt x="32" y="655" on="1"/>
        <pt x="344" y="655" on="1"/>
        <pt x="344" y="605" on="1"/>
        <pt x="264" y="597" on="1"/>
        <pt x="262" y="536" on="0"/>
        <pt x="262" y="414" on="0"/>
        <pt x="262" y="352" on="1"/>
        <pt x="262" y="283" on="1"/>
        <pt x="262" y="224" on="0"/>
        <pt x="283" y="142" on="0"/>
        <pt x="324" y="92" on="0"/>
        <pt x="383" y="70" on="0"/>
        <pt x="421" y="70" on="1"/>
        <pt x="459" y="70" on="0"/>
        <pt x="519" y="92" on="0"/>
        <pt x="560" y="142" on="0"/>
        <pt x="581" y="224" on="0"/>
        <pt x="581" y="283" on="1"/>
        <pt x="581" y="596" on="1"/>
        <pt x="494" y="605" on="1"/>
        <pt x="494" y="655" on="1"/>
        <pt x="730" y="655" on="1"/>
      </contour>
    </TTGlyph>
    <TTGlyph name="Uacute" xMin="32" yMin="-15" xMax="730" yMax="878">
      <component glyphName="U" x="0" y="0" flags="0x204"/>
      <component glyphName="acutecmb.cap" x="443" y="0" flags="0x4"/>
    </TTGlyph>
    <TTGlyph name="Ucircumflex" xMin="32" yMin="-15" xMax="730" yMax="867">
      <component glyphName="U" x="0" y="0" flags="0x204"/>
      <component glyphName="circumflexcmb.cap" x="411" y="0" flags="0x4"/>
    </TTGlyph>
    <TTGlyph name="Udieresis" xMin="32" yMin="-15" xMax="730" yMax="848">
      <component glyphName="U" x="0" y="0" flags="0x204"/>
      <component glyphName="dieresiscmb.cap" x="418" y="0" flags="0x4"/>
    </TTGlyph>
    <TTGlyph name="Ugrave" xMin="32" yMin="-15" xMax="730" yMax="878">
      <component glyphName="U" x="0" y="0" flags="0x204"/>
      <component glyphName="gravecmb.cap" x="373" y="0" flags="0x4"/>
    </TTGlyph>
    <TTGlyph name="Uhungarumlaut" xMin="32" yMin="-15" xMax="730" yMax="891">
      <component glyphName="U" x="0" y="0" flags="0x204"/>
      <component glyphName="hungarumlautcmb.cap" x="443" y="0" flags="0x4"/>
    </TTGlyph>
    <TTGlyph name="Umacron" xMin="32" yMin="-15" xMax="730" yMax="814">
      <component glyphName="U" x="0" y="0" flags="0x204"/>
      <component glyphName="macroncmb.cap" x="426" y="0" flags="0x4"/>
    </TTGlyph>
    <TTGlyph name="Uogonek" xMin="32" yMin="-229" xMax="730" yMax="655">
      <contour>
        <pt x="730" y="605" on="1"/>
        <pt x="641" y="596" on="1"/>
        <pt x="641" y="283" on="1"/>
        <pt x="641" y="233" on="0"/>
        <pt x="626" y="155" on="0"/>
        <pt x="601" y="95" on="0"/>
        <pt x="565" y="49" on="0"/>
        <pt x="544" y="32" on="1"/>
        <pt x="502" y="-3" on="0"/>
        <pt x="466" y="-54" on="0"/>
        <pt x="466" y="-83" on="1"/>
        <pt x="466" y="-120" on="0"/>
        <pt x="511" y="-154" on="0"/>
        <pt x="540" y="-154" on="1"/>
        <pt x="563" y="-154" on="0"/>
        <pt x="592" y="-146" on="1"/>
        <pt x="606" y="-184" on="1"/>
        <pt x="583" y="-204" on="0"/>
        <pt x="514" y="-229" on="0"/>
        <pt x="482" y="-229" on="1"/>
        <pt x="430" y="-229" on="0"/>
        <pt x="371" y="-175" on="0"/>
        <pt x="371" y="-130" on="1"/>
        <pt x="371" y="-95" on="0"/>
        <pt x="404" y="-34" on="0"/>
        <pt x="430" y="-13" on="1"/>
        <pt x="419" y="-14" on="0"/>
        <pt x="399" y="-15" on="0"/>
        <pt x="388" y="-15" on="1"/>
        <pt x="326" y="-15" on="0"/>
        <pt x="225" y="16" on="0"/>
        <pt x="154" y="80" on="0"/>
        <pt x="115" y="181" on="0"/>
        <pt x="115" y="252" on="1"/>
        <pt x="115" y="352" on="1"/>
        <pt x="115" y="413" on="0"/>
        <pt x="115" y="535" on="0"/>
        <pt x="113" y="596" on="1"/>
        <pt x="32" y="605" on="1"/>
        <pt x="32" y="655" on="1"/>
        <pt x="344" y="655" on="1"/>
        <pt x="344" y="605" on="1"/>
        <pt x="264" y="597" on="1"/>
        <pt x="262" y="536" on="0"/>
        <pt x="262" y="414" on="0"/>
        <pt x="262" y="352" on="1"/>
        <pt x="262" y="283" on="1"/>
        <pt x="262" y="224" on="0"/>
        <pt x="283" y="142" on="0"/>
        <pt x="324" y="92" on="0"/>
        <pt x="383" y="70" on="0"/>
        <pt x="421" y="70" on="1"/>
        <pt x="459" y="70" on="0"/>
        <pt x="519" y="92" on="0"/>
        <pt x="560" y="142" on="0"/>
        <pt x="581" y="224" on="0"/>
        <pt x="581" y="283" on="1"/>
        <pt x="581" y="596" on="1"/>
        <pt x="494" y="605" on="1"/>
        <pt x="494" y="655" on="1"/>
        <pt x="730" y="655" on="1"/>
      </contour>
    </TTGlyph>
    <TTGlyph name="Uring" xMin="32" yMin="-15" xMax="730" yMax="908">
      <component glyphName="U" x="0" y="0" flags="0x204"/>
      <component glyphName="ringcmb.cap" x="408" y="0" flags="0x4"/>
    </TTGlyph>
    <TTGlyph name="V" xMin="5" yMin="-10" xMax="645" yMax="655">
      <contour>
        <pt x="645" y="605" on="1"/>
        <pt x="571" y="593" on="1"/>
        <pt x="354" y="-10" on="1"/>
        <pt x="304" y="-10" on="1"/>
        <pt x="65" y="598" on="1"/>
        <pt x="5" y="605" on="1"/>
        <pt x="5" y="655" on="1"/>
        <pt x="301" y="655" on="1"/>
        <pt x="301" y="605" on="1"/>
        <pt x="219" y="596" on="1"/>
        <pt x="372" y="193" on="1"/>
        <pt x="516" y="591" on="1"/>
        <pt x="419" y="605" on="1"/>
        <pt x="419" y="655" on="1"/>
        <pt x="645" y="655" on="1"/>
      </contour>
    </TTGlyph>
    <TTGlyph name="W" xMin="5" yMin="-10" xMax="982" yMax="655">
      <contour>
        <pt x="982" y="605" on="1"/>
        <pt x="901" y="592" on="1"/>
        <pt x="714" y="-10" on="1"/>
        <pt x="663" y="-10" on="1"/>
        <pt x="486" y="489" on="1"/>
        <pt x="310" y="-10" on="1"/>
        <pt x="260" y="-10" on="1"/>
        <pt x="67" y="598" on="1"/>
        <pt x="5" y="605" on="1"/>
        <pt x="5" y="655" on="1"/>
        <pt x="298" y="655" on="1"/>
        <pt x="298" y="605" on="1"/>
        <pt x="218" y="596" on="1"/>
        <pt x="331" y="214" on="1"/>
        <pt x="472" y="596" on="1"/>
        <pt x="393" y="605" on="1"/>
        <pt x="393" y="655" on="1"/>
        <pt x="676" y="655" on="1"/>
        <pt x="676" y="605" on="1"/>
        <pt x="599" y="596" on="1"/>
        <pt x="729" y="209" on="1"/>
        <pt x="848" y="592" on="1"/>
        <pt x="756" y="605" on="1"/>
        <pt x="756" y="655" on="1"/>
        <pt x="982" y="655" on="1"/>
      </contour>
    </TTGlyph>
    <TTGlyph name="X" xMin="21" yMin="0" xMax="626" yMax="655">
      <contour>
        <pt x="626" y="50" on="1"/>
        <pt x="626" y="0" on="1"/>
        <pt x="330" y="0" on="1"/>
        <pt x="330" y="50" on="1"/>
        <pt x="397" y="57" on="1"/>
        <pt x="288" y="258" on="1"/>
        <pt x="161" y="57" on="1"/>
        <pt x="232" y="50" on="1"/>
        <pt x="232" y="0" on="1"/>
        <pt x="21" y="0" on="1"/>
        <pt x="21" y="50" on="1"/>
        <pt x="96" y="58" on="1"/>
        <pt x="262" y="307" on="1"/>
        <pt x="105" y="597" on="1"/>
        <pt x="31" y="605" on="1"/>
        <pt x="31" y="655" on="1"/>
        <pt x="329" y="655" on="1"/>
        <pt x="329" y="605" on="1"/>
        <pt x="263" y="598" on="1"/>
        <pt x="359" y="421" on="1"/>
        <pt x="472" y="597" on="1"/>
        <pt x="399" y="605" on="1"/>
        <pt x="399" y="655" on="1"/>
        <pt x="625" y="655" on="1"/>
        <pt x="625" y="605" on="1"/>
        <pt x="538" y="597" on="1"/>
        <pt x="385" y="372" on="1"/>
        <pt x="556" y="58" on="1"/>
      </contour>
    </TTGlyph>
    <TTGlyph name="Y" xMin="2" yMin="0" xMax="604" yMax="655">
      <contour>
        <pt x="376" y="293" on="1"/>
        <pt x="376" y="225" on="1"/>
        <pt x="376" y="199" on="0"/>
        <pt x="376" y="156" on="0"/>
        <pt x="376" y="118" on="0"/>
        <pt x="377" y="81" on="0"/>
        <pt x="377" y="60" on="1"/>
        <pt x="469" y="50" on="1"/>
        <pt x="469" y="0" on="1"/>
        <pt x="137" y="0" on="1"/>
        <pt x="137" y="50" on="1"/>
        <pt x="229" y="60" on="1"/>
        <pt x="230" y="100" on="0"/>
        <pt x="230" y="172" on="0"/>
        <pt x="230" y="225" on="1"/>
        <pt x="230" y="282" on="1"/>
        <pt x="67" y="598" on="1"/>
        <pt x="2" y="605" on="1"/>
        <pt x="2" y="655" on="1"/>
        <pt x="309" y="655" on="1"/>
        <pt x="309" y="605" on="1"/>
        <pt x="230" y="596" on="1"/>
        <pt x="346" y="338" on="1"/>
        <pt x="472" y="594" on="1"/>
        <pt x="392" y="605" on="1"/>
        <pt x="392" y="655" on="1"/>
        <pt x="604" y="655" on="1"/>
        <pt x="604" y="605" on="1"/>
        <pt x="530" y="592" on="1"/>
      </contour>
    </TTGlyph>
    <TTGlyph name="Yacute" xMin="2" yMin="0" xMax="604" yMax="878">
      <component glyphName="Y" x="0" y="0" flags="0x204"/>
      <component glyphName="acutecmb.cap" x="369" y="0" flags="0x4"/>
    </TTGlyph>
    <TTGlyph name="Ydieresis" xMin="2" yMin="0" xMax="604" yMax="848">
      <component glyphName="Y" x="0" y="0" flags="0x204"/>
      <component glyphName="dieresiscmb.cap" x="339" y="0" flags="0x4"/>
    </TTGlyph>
    <TTGlyph name="Z" xMin="20" yMin="0" xMax="549" yMax="655">
      <contour>
        <pt x="549" y="184" on="1"/>
        <pt x="541" y="0" on="1"/>
        <pt x="20" y="0" on="1"/>
        <pt x="20" y="40" on="1"/>
        <pt x="364" y="600" on="1"/>
        <pt x="135" y="600" on="1"/>
        <pt x="108" y="471" on="1"/>
        <pt x="30" y="471" on="1"/>
        <pt x="38" y="655" on="1"/>
        <pt x="530" y="655" on="1"/>
        <pt x="530" y="615" on="1"/>
        <pt x="186" y="55" on="1"/>
        <pt x="444" y="55" on="1"/>
        <pt x="470" y="184" on="1"/>
      </contour>
    </TTGlyph>
    <TTGlyph name="Zacute" xMin="20" yMin="0" xMax="549" yMax="878">
      <component glyphName="Z" x="0" y="0" flags="0x204"/>
      <component glyphName="acutecmb.cap" x="325" y="0" flags="0x4"/>
    </TTGlyph>
    <TTGlyph name="Zcaron" xMin="20" yMin="0" xMax="549" yMax="867">
      <component glyphName="Z" x="0" y="0" flags="0x204"/>
      <component glyphName="caroncmb.cap" x="295" y="0" flags="0x4"/>
    </TTGlyph>
    <TTGlyph name="Zdotaccent" xMin="20" yMin="0" xMax="549" yMax="867">
      <component glyphName="Z" x="0" y="0" flags="0x204"/>
      <component glyphName="dotaccentcmb.cap" x="290" y="0" flags="0x4"/>
    </TTGlyph>
    <TTGlyph name="a" xMin="45" yMin="-15" xMax="539" yMax="498">
      <contour>
        <pt x="317" y="258" on="1"/>
        <pt x="298" y="253" on="0"/>
        <pt x="265" y="242" on="0"/>
        <pt x="253" y="237" on="1"/>
        <pt x="209" y="220" on="0"/>
        <pt x="175" y="168" on="0"/>
        <pt x="175" y="136" on="1"/>
        <pt x="175" y="116" on="0"/>
        <pt x="186" y="92" on="0"/>
        <pt x="194" y="84" on="1"/>
        <pt x="215" y="63" on="0"/>
        <pt x="250" y="63" on="1"/>
        <pt x="266" y="63" on="0"/>
        <pt x="296" y="74" on="0"/>
        <pt x="317" y="89" on="1"/>
      </contour>
      <contour>
        <pt x="539" y="63" on="1"/>
        <pt x="519" y="22" on="0"/>
        <pt x="468" y="-10" on="0"/>
        <pt x="430" y="-10" on="1"/>
        <pt x="389" y="-10" on="0"/>
        <pt x="335" y="22" on="0"/>
        <pt x="324" y="48" on="1"/>
        <pt x="290" y="17" on="0"/>
        <pt x="227" y="-15" on="0"/>
        <pt x="180" y="-15" on="1"/>
        <pt x="120" y="-15" on="0"/>
        <pt x="45" y="46" on="0"/>
        <pt x="45" y="105" on="1"/>
        <pt x="45" y="128" on="0"/>
        <pt x="60" y="173" on="0"/>
        <pt x="101" y="216" on="0"/>
        <pt x="173" y="256" on="0"/>
        <pt x="230" y="275" on="1"/>
        <pt x="247" y="281" on="0"/>
        <pt x="293" y="294" on="0"/>
        <pt x="317" y="301" on="1"/>
        <pt x="317" y="331" on="1"/>
        <pt x="317" y="394" on="0"/>
        <pt x="279" y="448" on="0"/>
        <pt x="231" y="448" on="1"/>
        <pt x="223" y="448" on="0"/>
        <pt x="208" y="447" on="0"/>
        <pt x="200" y="446" on="1"/>
        <pt x="192" y="388" on="1"/>
        <pt x="187" y="349" on="0"/>
        <pt x="149" y="311" on="0"/>
        <pt x="123" y="311" on="1"/>
        <pt x="100" y="311" on="0"/>
        <pt x="67" y="339" on="0"/>
        <pt x="62" y="362" on="1"/>
        <pt x="69" y="421" on="0"/>
        <pt x="181" y="498" on="0"/>
        <pt x="277" y="498" on="1"/>
        <pt x="324" y="498" on="0"/>
        <pt x="391" y="477" on="0"/>
        <pt x="433" y="430" on="0"/>
        <pt x="453" y="353" on="0"/>
        <pt x="453" y="297" on="1"/>
        <pt x="453" y="91" on="1"/>
        <pt x="453" y="75" on="0"/>
        <pt x="465" y="55" on="0"/>
        <pt x="478" y="55" on="1"/>
        <pt x="488" y="55" on="0"/>
        <pt x="500" y="67" on="0"/>
        <pt x="508" y="76" on="1"/>
        <pt x="513" y="82" on="1"/>
      </contour>
    </TTGlyph>
    <TTGlyph name="a.sups" xMin="31" yMin="405" xMax="370" yMax="740">
      <contour>
        <pt x="217" y="579" on="1"/>
        <pt x="188" y="571" on="0"/>
        <pt x="172" y="565" on="1"/>
        <pt x="144" y="554" on="0"/>
        <pt x="121" y="523" on="0"/>
        <pt x="121" y="504" on="1"/>
        <pt x="121" y="492" on="0"/>
        <pt x="129" y="476" on="0"/>
        <pt x="134" y="471" on="1"/>
        <pt x="147" y="458" on="0"/>
        <pt x="169" y="458" on="1"/>
        <pt x="182" y="458" on="0"/>
        <pt x="203" y="466" on="0"/>
        <pt x="217" y="475" on="1"/>
      </contour>
      <contour>
        <pt x="370" y="454" on="1"/>
        <pt x="356" y="428" on="0"/>
        <pt x="319" y="408" on="0"/>
        <pt x="296" y="408" on="1"/>
        <pt x="267" y="408" on="0"/>
        <pt x="230" y="429" on="0"/>
        <pt x="222" y="447" on="1"/>
        <pt x="200" y="428" on="0"/>
        <pt x="150" y="405" on="0"/>
        <pt x="120" y="405" on="1"/>
        <pt x="82" y="405" on="0"/>
        <pt x="31" y="446" on="0"/>
        <pt x="31" y="486" on="1"/>
        <pt x="31" y="502" on="0"/>
        <pt x="41" y="530" on="0"/>
        <pt x="69" y="556" on="0"/>
        <pt x="118" y="581" on="0"/>
        <pt x="157" y="593" on="1"/>
        <pt x="169" y="597" on="0"/>
        <pt x="200" y="605" on="0"/>
        <pt x="217" y="609" on="1"/>
        <pt x="217" y="631" on="1"/>
        <pt x="217" y="672" on="0"/>
        <pt x="192" y="705" on="0"/>
        <pt x="162" y="705" on="1"/>
        <pt x="157" y="705" on="0"/>
        <pt x="145" y="704" on="0"/>
        <pt x="138" y="703" on="1"/>
        <pt x="133" y="667" on="1"/>
        <pt x="129" y="643" on="0"/>
        <pt x="101" y="620" on="0"/>
        <pt x="84" y="620" on="1"/>
        <pt x="69" y="620" on="0"/>
        <pt x="46" y="638" on="0"/>
        <pt x="43" y="652" on="1"/>
        <pt x="47" y="690" on="0"/>
        <pt x="124" y="740" on="0"/>
        <pt x="187" y="740" on="1"/>
        <pt x="253" y="740" on="0"/>
        <pt x="312" y="681" on="0"/>
        <pt x="312" y="611" on="1"/>
        <pt x="312" y="476" on="1"/>
        <pt x="312" y="450" on="0"/>
        <pt x="327" y="450" on="1"/>
        <pt x="335" y="450" on="0"/>
        <pt x="345" y="458" on="0"/>
        <pt x="352" y="467" on="1"/>
      </contour>
    </TTGlyph>
    <TTGlyph name="aacute" xMin="45" yMin="-15" xMax="539" yMax="763">
      <component glyphName="a" x="0" y="0" flags="0x204"/>
      <component glyphName="uni0301" x="301" y="0" flags="0x4"/>
    </TTGlyph>
    <TTGlyph name="abreve" xMin="45" yMin="-15" xMax="539" yMax="743">
      <component glyphName="a" x="0" y="0" flags="0x204"/>
      <component glyphName="uni0306" x="272" y="0" flags="0x4"/>
    </TTGlyph>
    <TTGlyph name="acircumflex" xMin="45" yMin="-15" xMax="539" yMax="753">
      <component glyphName="a" x="0" y="0" flags="0x204"/>
      <component glyphName="uni0302" x="269" y="0" flags="0x4"/>
    </TTGlyph>
    <TTGlyph name="acute" xMin="97" yMin="543" xMax="301" yMax="763">
      <component glyphName="uni0301" x="201" y="0" flags="0x4"/>
    </TTGlyph>
    <TTGlyph name="acutecmb.cap" xMin="-115" yMin="702" xMax="110" yMax="878">
      <contour>
        <pt x="-7" y="839" on="1"/>
        <pt x="16" y="860" on="0"/>
        <pt x="48" y="878" on="0"/>
        <pt x="63" y="878" on="1"/>
        <pt x="84" y="878" on="0"/>
        <pt x="110" y="851" on="0"/>
        <pt x="110" y="833" on="1"/>
        <pt x="110" y="819" on="0"/>
        <pt x="88" y="789" on="0"/>
        <pt x="54" y="772" on="1"/>
        <pt x="-90" y="702" on="1"/>
        <pt x="-115" y="736" on="1"/>
      </contour>
    </TTGlyph>
    <TTGlyph name="adieresis" xMin="45" yMin="-15" xMax="539" yMax="711">
      <component glyphName="a" x="0" y="0" flags="0x204"/>
      <component glyphName="uni0308" x="264" y="0" flags="0x4"/>
    </TTGlyph>
    <TTGlyph name="ae" xMin="45" yMin="-15" xMax="770" yMax="498">
      <contour>
        <pt x="339" y="106" on="1"/>
        <pt x="326" y="132" on="0"/>
        <pt x="312" y="196" on="0"/>
        <pt x="312" y="233" on="1"/>
        <pt x="312" y="239" on="0"/>
        <pt x="312" y="251" on="0"/>
        <pt x="313" y="257" on="1"/>
        <pt x="276" y="246" on="0"/>
        <pt x="253" y="237" on="1"/>
        <pt x="209" y="220" on="0"/>
        <pt x="175" y="168" on="0"/>
        <pt x="175" y="136" on="1"/>
        <pt x="175" y="116" on="0"/>
        <pt x="186" y="92" on="0"/>
        <pt x="194" y="84" on="1"/>
        <pt x="215" y="63" on="0"/>
        <pt x="250" y="63" on="1"/>
        <pt x="268" y="63" on="0"/>
        <pt x="302" y="77" on="0"/>
        <pt x="328" y="97" on="1"/>
      </contour>
      <contour>
        <pt x="578" y="285" on="1"/>
        <pt x="614" y="285" on="0"/>
        <pt x="641" y="316" on="0"/>
        <pt x="641" y="348" on="1"/>
        <pt x="641" y="400" on="0"/>
        <pt x="597" y="448" on="0"/>
        <pt x="568" y="448" on="1"/>
        <pt x="552" y="448" on="0"/>
        <pt x="516" y="432" on="0"/>
        <pt x="485" y="394" on="0"/>
        <pt x="462" y="331" on="0"/>
        <pt x="458" y="285" on="1"/>
      </contour>
      <contour>
        <pt x="457" y="235" on="1"/>
        <pt x="460" y="146" on="0"/>
        <pt x="541" y="63" on="0"/>
        <pt x="602" y="63" on="1"/>
        <pt x="646" y="63" on="0"/>
        <pt x="703" y="102" on="0"/>
        <pt x="726" y="138" on="1"/>
        <pt x="760" y="119" on="1"/>
        <pt x="740" y="53" on="0"/>
        <pt x="630" y="-15" on="0"/>
        <pt x="554" y="-15" on="1"/>
        <pt x="491" y="-15" on="0"/>
        <pt x="392" y="30" on="0"/>
        <pt x="360" y="72" on="1"/>
        <pt x="337" y="52" on="1"/>
        <pt x="316" y="34" on="0"/>
        <pt x="281" y="9" on="0"/>
        <pt x="247" y="-8" on="0"/>
        <pt x="211" y="-15" on="0"/>
        <pt x="189" y="-15" on="1"/>
        <pt x="123" y="-15" on="0"/>
        <pt x="45" y="46" on="0"/>
        <pt x="45" y="105" on="1"/>
        <pt x="45" y="128" on="0"/>
        <pt x="60" y="173" on="0"/>
        <pt x="101" y="216" on="0"/>
        <pt x="173" y="256" on="0"/>
        <pt x="230" y="275" on="1"/>
        <pt x="247" y="281" on="0"/>
        <pt x="293" y="294" on="0"/>
        <pt x="317" y="301" on="1"/>
        <pt x="317" y="331" on="1"/>
        <pt x="317" y="398" on="0"/>
        <pt x="279" y="448" on="0"/>
        <pt x="239" y="448" on="1"/>
        <pt x="229" y="448" on="0"/>
        <pt x="210" y="447" on="0"/>
        <pt x="200" y="446" on="1"/>
        <pt x="193" y="394" on="1"/>
        <pt x="183" y="312" on="0"/>
        <pt x="122" y="312" on="1"/>
        <pt x="95" y="312" on="0"/>
        <pt x="67" y="340" on="0"/>
        <pt x="62" y="360" on="1"/>
        <pt x="69" y="420" on="0"/>
        <pt x="176" y="498" on="0"/>
        <pt x="269" y="498" on="1"/>
        <pt x="326" y="498" on="0"/>
        <pt x="399" y="466" on="0"/>
        <pt x="420" y="439" on="1"/>
        <pt x="450" y="470" on="0"/>
        <pt x="523" y="498" on="0"/>
        <pt x="565" y="498" on="1"/>
        <pt x="612" y="498" on="0"/>
        <pt x="688" y="467" on="0"/>
        <pt x="741" y="411" on="0"/>
        <pt x="770" y="333" on="0"/>
        <pt x="770" y="287" on="1"/>
        <pt x="770" y="259" on="0"/>
        <pt x="764" y="235" on="1"/>
      </contour>
    </TTGlyph>
    <TTGlyph name="agrave" xMin="45" yMin="-15" xMax="539" yMax="763">
      <component glyphName="a" x="0" y="0" flags="0x204"/>
      <component glyphName="uni0300" x="262" y="0" flags="0x4"/>
    </TTGlyph>
    <TTGlyph name="amacron" xMin="45" yMin="-15" xMax="539" yMax="685">
      <component glyphName="a" x="0" y="0" flags="0x204"/>
      <component glyphName="uni0304" x="268" y="0" flags="0x4"/>
    </TTGlyph>
    <TTGlyph name="ampersand" xMin="37" yMin="-15" xMax="723" yMax="670">
      <contour>
        <pt x="295" y="61" on="1"/>
        <pt x="333" y="61" on="0"/>
        <pt x="385" y="89" on="0"/>
        <pt x="406" y="109" on="1"/>
        <pt x="389" y="131" on="0"/>
        <pt x="356" y="173" on="0"/>
        <pt x="340" y="193" on="1"/>
        <pt x="306" y="235" on="0"/>
        <pt x="251" y="305" on="0"/>
        <pt x="229" y="332" on="1"/>
        <pt x="167" y="282" on="0"/>
        <pt x="167" y="199" on="1"/>
        <pt x="167" y="139" on="0"/>
        <pt x="234" y="61" on="0"/>
      </contour>
      <contour>
        <pt x="259" y="455" on="1"/>
        <pt x="267" y="446" on="0"/>
        <pt x="289" y="424" on="0"/>
        <pt x="304" y="408" on="1"/>
        <pt x="335" y="440" on="0"/>
        <pt x="364" y="504" on="0"/>
        <pt x="364" y="536" on="1"/>
        <pt x="364" y="576" on="0"/>
        <pt x="332" y="630" on="0"/>
        <pt x="291" y="630" on="1"/>
        <pt x="253" y="630" on="0"/>
        <pt x="217" y="589" on="0"/>
        <pt x="217" y="559" on="1"/>
        <pt x="217" y="536" on="0"/>
        <pt x="237" y="481" on="0"/>
      </contour>
      <contour>
        <pt x="653" y="425" on="1"/>
        <pt x="623" y="353" on="0"/>
        <pt x="556" y="221" on="0"/>
        <pt x="513" y="161" on="1"/>
        <pt x="532" y="138" on="0"/>
        <pt x="569" y="90" on="0"/>
        <pt x="587" y="64" on="1"/>
        <pt x="694" y="43" on="1"/>
        <pt x="694" y="0" on="1"/>
        <pt x="662" y="-6" on="0"/>
        <pt x="615" y="-10" on="0"/>
        <pt x="592" y="-10" on="1"/>
        <pt x="563" y="-10" on="0"/>
        <pt x="523" y="-4" on="0"/>
        <pt x="491" y="13" on="0"/>
        <pt x="461" y="43" on="0"/>
        <pt x="441" y="67" on="1"/>
        <pt x="438" y="71" on="1"/>
        <pt x="423" y="54" on="0"/>
        <pt x="386" y="23" on="0"/>
        <pt x="339" y="-1" on="0"/>
        <pt x="279" y="-15" on="0"/>
        <pt x="242" y="-15" on="1"/>
        <pt x="192" y="-15" on="0"/>
        <pt x="116" y="14" on="0"/>
        <pt x="64" y="63" on="0"/>
        <pt x="37" y="129" on="0"/>
        <pt x="37" y="166" on="1"/>
        <pt x="37" y="228" on="0"/>
        <pt x="117" y="324" on="0"/>
        <pt x="203" y="362" on="1"/>
        <pt x="199" y="367" on="1"/>
        <pt x="179" y="389" on="0"/>
        <pt x="147" y="427" on="0"/>
        <pt x="124" y="466" on="0"/>
        <pt x="112" y="507" on="0"/>
        <pt x="112" y="532" on="1"/>
        <pt x="112" y="563" on="0"/>
        <pt x="138" y="614" on="0"/>
        <pt x="186" y="650" on="0"/>
        <pt x="253" y="670" on="0"/>
        <pt x="294" y="670" on="1"/>
        <pt x="332" y="670" on="0"/>
        <pt x="393" y="650" on="0"/>
        <pt x="436" y="615" on="0"/>
        <pt x="459" y="568" on="0"/>
        <pt x="459" y="540" on="1"/>
        <pt x="459" y="489" on="0"/>
        <pt x="391" y="419" on="0"/>
        <pt x="327" y="384" on="1"/>
        <pt x="354" y="355" on="0"/>
        <pt x="390" y="312" on="1"/>
        <pt x="414" y="283" on="0"/>
        <pt x="460" y="227" on="0"/>
        <pt x="483" y="199" on="1"/>
        <pt x="516" y="252" on="0"/>
        <pt x="569" y="363" on="0"/>
        <pt x="588" y="423" on="1"/>
        <pt x="502" y="436" on="1"/>
        <pt x="502" y="480" on="1"/>
        <pt x="723" y="480" on="1"/>
        <pt x="723" y="436" on="1"/>
      </contour>
    </TTGlyph>
    <TTGlyph name="aogonek" xMin="45" yMin="-230" xMax="549" yMax="498">
      <contour>
        <pt x="317" y="258" on="1"/>
        <pt x="298" y="253" on="0"/>
        <pt x="265" y="242" on="0"/>
        <pt x="253" y="237" on="1"/>
        <pt x="209" y="220" on="0"/>
        <pt x="175" y="168" on="0"/>
        <pt x="175" y="136" on="1"/>
        <pt x="175" y="116" on="0"/>
        <pt x="186" y="92" on="0"/>
        <pt x="194" y="84" on="1"/>
        <pt x="215" y="63" on="0"/>
        <pt x="250" y="63" on="1"/>
        <pt x="266" y="63" on="0"/>
        <pt x="296" y="74" on="0"/>
        <pt x="317" y="89" on="1"/>
      </contour>
      <contour>
        <pt x="549" y="-185" on="1"/>
        <pt x="526" y="-205" on="0"/>
        <pt x="456" y="-230" on="0"/>
        <pt x="423" y="-230" on="1"/>
        <pt x="372" y="-230" on="0"/>
        <pt x="314" y="-178" on="0"/>
        <pt x="314" y="-136" on="1"/>
        <pt x="314" y="-94" on="0"/>
        <pt x="369" y="-31" on="0"/>
        <pt x="409" y="-9" on="1"/>
        <pt x="379" y="-6" on="0"/>
        <pt x="336" y="26" on="0"/>
        <pt x="325" y="49" on="1"/>
        <pt x="308" y="34" on="0"/>
        <pt x="276" y="10" on="0"/>
        <pt x="242" y="-7" on="0"/>
        <pt x="204" y="-15" on="0"/>
        <pt x="180" y="-15" on="1"/>
        <pt x="120" y="-15" on="0"/>
        <pt x="45" y="46" on="0"/>
        <pt x="45" y="105" on="1"/>
        <pt x="45" y="128" on="0"/>
        <pt x="60" y="173" on="0"/>
        <pt x="101" y="216" on="0"/>
        <pt x="173" y="256" on="0"/>
        <pt x="230" y="275" on="1"/>
        <pt x="247" y="281" on="0"/>
        <pt x="293" y="294" on="0"/>
        <pt x="317" y="301" on="1"/>
        <pt x="317" y="331" on="1"/>
        <pt x="317" y="394" on="0"/>
        <pt x="279" y="448" on="0"/>
        <pt x="231" y="448" on="1"/>
        <pt x="223" y="448" on="0"/>
        <pt x="208" y="447" on="0"/>
        <pt x="200" y="446" on="1"/>
        <pt x="192" y="388" on="1"/>
        <pt x="187" y="349" on="0"/>
        <pt x="149" y="311" on="0"/>
        <pt x="123" y="311" on="1"/>
        <pt x="100" y="311" on="0"/>
        <pt x="67" y="339" on="0"/>
        <pt x="62" y="362" on="1"/>
        <pt x="69" y="421" on="0"/>
        <pt x="181" y="498" on="0"/>
        <pt x="277" y="498" on="1"/>
        <pt x="324" y="498" on="0"/>
        <pt x="391" y="477" on="0"/>
        <pt x="433" y="430" on="0"/>
        <pt x="453" y="353" on="0"/>
        <pt x="453" y="297" on="1"/>
        <pt x="453" y="91" on="1"/>
        <pt x="453" y="75" on="0"/>
        <pt x="465" y="55" on="0"/>
        <pt x="478" y="55" on="1"/>
        <pt x="488" y="55" on="0"/>
        <pt x="500" y="67" on="0"/>
        <pt x="508" y="76" on="1"/>
        <pt x="513" y="82" on="1"/>
        <pt x="539" y="63" on="1"/>
        <pt x="525" y="38" on="0"/>
        <pt x="500" y="12" on="0"/>
        <pt x="482" y="-2" on="1"/>
        <pt x="450" y="-25" on="0"/>
        <pt x="409" y="-63" on="0"/>
        <pt x="409" y="-92" on="1"/>
        <pt x="409" y="-123" on="0"/>
        <pt x="454" y="-155" on="0"/>
        <pt x="484" y="-155" on="1"/>
        <pt x="506" y="-155" on="0"/>
        <pt x="535" y="-147" on="1"/>
      </contour>
    </TTGlyph>
    <TTGlyph name="approxequal" xMin="38" yMin="127" xMax="492" yMax="544">
      <component glyphName="asciitilde" x="0" y="-129" flags="0x204"/>
      <component glyphName="asciitilde" x="0" y="110" flags="0x4"/>
    </TTGlyph>
    <TTGlyph name="aring" xMin="45" yMin="-15" xMax="539" yMax="761">
      <component glyphName="a" x="0" y="0" flags="0x204"/>
      <component glyphName="uni030A" x="262" y="0" flags="0x4"/>
    </TTGlyph>
    <TTGlyph name="arrowdown" xMin="53" yMin="-54" xMax="667" yMax="600">
      <contour>
        <pt x="667" y="271" on="1"/>
        <pt x="384" y="-54" on="1"/>
        <pt x="336" y="-54" on="1"/>
        <pt x="53" y="271" on="1"/>
        <pt x="95" y="313" on="1"/>
        <pt x="328" y="84" on="1"/>
        <pt x="315" y="555" on="1"/>
        <pt x="315" y="600" on="1"/>
        <pt x="405" y="600" on="1"/>
        <pt x="405" y="559" on="1"/>
        <pt x="392" y="83" on="1"/>
        <pt x="625" y="313" on="1"/>
      </contour>
    </TTGlyph>
    <TTGlyph name="arrowup" xMin="53" yMin="-54" xMax="667" yMax="600">
      <contour>
        <pt x="625" y="233" on="1"/>
        <pt x="392" y="462" on="1"/>
        <pt x="405" y="-9" on="1"/>
        <pt x="405" y="-54" on="1"/>
        <pt x="315" y="-54" on="1"/>
        <pt x="315" y="-13" on="1"/>
        <pt x="328" y="463" on="1"/>
        <pt x="95" y="233" on="1"/>
        <pt x="53" y="275" on="1"/>
        <pt x="336" y="600" on="1"/>
        <pt x="384" y="600" on="1"/>
        <pt x="667" y="275" on="1"/>
      </contour>
    </TTGlyph>
    <TTGlyph name="asciicircum" xMin="64" yMin="186" xMax="466" yMax="498">
      <contour>
        <pt x="403" y="186" on="1"/>
        <pt x="265" y="413" on="1"/>
        <pt x="127" y="186" on="1"/>
        <pt x="64" y="235" on="1"/>
        <pt x="224" y="498" on="1"/>
        <pt x="306" y="498" on="1"/>
        <pt x="466" y="235" on="1"/>
      </contour>
    </TTGlyph>
    <TTGlyph name="asciitilde" xMin="38" yMin="256" xMax="492" yMax="434">
      <contour>
        <pt x="285" y="380" on="1"/>
        <pt x="316" y="354" on="0"/>
        <pt x="347" y="336" on="0"/>
        <pt x="363" y="336" on="1"/>
        <pt x="373" y="336" on="0"/>
        <pt x="391" y="343" on="0"/>
        <pt x="407" y="363" on="0"/>
        <pt x="420" y="399" on="0"/>
        <pt x="424" y="429" on="1"/>
        <pt x="492" y="421" on="1"/>
        <pt x="489" y="373" on="0"/>
        <pt x="468" y="309" on="0"/>
        <pt x="435" y="272" on="0"/>
        <pt x="393" y="256" on="0"/>
        <pt x="369" y="256" on="1"/>
        <pt x="336" y="256" on="0"/>
        <pt x="278" y="284" on="0"/>
        <pt x="245" y="310" on="1"/>
        <pt x="229" y="323" on="0"/>
        <pt x="207" y="340" on="0"/>
        <pt x="189" y="350" on="0"/>
        <pt x="174" y="354" on="0"/>
        <pt x="166" y="354" on="1"/>
        <pt x="157" y="354" on="0"/>
        <pt x="139" y="347" on="0"/>
        <pt x="123" y="327" on="0"/>
        <pt x="110" y="291" on="0"/>
        <pt x="106" y="261" on="1"/>
        <pt x="38" y="269" on="1"/>
        <pt x="41" y="317" on="0"/>
        <pt x="62" y="381" on="0"/>
        <pt x="95" y="418" on="0"/>
        <pt x="137" y="434" on="0"/>
        <pt x="161" y="434" on="1"/>
        <pt x="194" y="434" on="0"/>
        <pt x="252" y="406" on="0"/>
      </contour>
    </TTGlyph>
    <TTGlyph name="asterisk" xMin="20" yMin="360" xMax="414" yMax="740">
      <contour>
        <pt x="217" y="740" on="1"/>
        <pt x="239" y="740" on="0"/>
        <pt x="267" y="714" on="0"/>
        <pt x="267" y="685" on="1"/>
        <pt x="267" y="671" on="0"/>
        <pt x="256" y="629" on="0"/>
        <pt x="247" y="600" on="1"/>
        <pt x="235" y="560" on="1"/>
        <pt x="269" y="584" on="1"/>
        <pt x="304" y="609" on="0"/>
        <pt x="348" y="633" on="0"/>
        <pt x="366" y="633" on="1"/>
        <pt x="388" y="633" on="0"/>
        <pt x="414" y="603" on="0"/>
        <pt x="414" y="580" on="1"/>
        <pt x="414" y="566" on="0"/>
        <pt x="403" y="547" on="0"/>
        <pt x="375" y="534" on="0"/>
        <pt x="326" y="528" on="0"/>
        <pt x="287" y="527" on="1"/>
        <pt x="246" y="526" on="1"/>
        <pt x="279" y="502" on="1"/>
        <pt x="324" y="470" on="0"/>
        <pt x="358" y="427" on="0"/>
        <pt x="358" y="408" on="1"/>
        <pt x="358" y="386" on="0"/>
        <pt x="327" y="360" on="0"/>
        <pt x="306" y="360" on="1"/>
        <pt x="296" y="360" on="0"/>
        <pt x="278" y="368" on="0"/>
        <pt x="260" y="392" on="0"/>
        <pt x="241" y="434" on="0"/>
        <pt x="230" y="467" on="1"/>
        <pt x="217" y="505" on="1"/>
        <pt x="204" y="467" on="1"/>
        <pt x="193" y="435" on="0"/>
        <pt x="174" y="394" on="0"/>
        <pt x="156" y="370" on="0"/>
        <pt x="137" y="360" on="0"/>
        <pt x="127" y="360" on="1"/>
        <pt x="107" y="360" on="0"/>
        <pt x="75" y="388" on="0"/>
        <pt x="75" y="409" on="1"/>
        <pt x="75" y="418" on="0"/>
        <pt x="82" y="437" on="0"/>
        <pt x="100" y="458" on="0"/>
        <pt x="131" y="485" on="0"/>
        <pt x="155" y="502" on="1"/>
        <pt x="188" y="526" on="1"/>
        <pt x="147" y="527" on="1"/>
        <pt x="109" y="528" on="0"/>
        <pt x="60" y="534" on="0"/>
        <pt x="32" y="547" on="0"/>
        <pt x="20" y="566" on="0"/>
        <pt x="20" y="580" on="1"/>
        <pt x="20" y="603" on="0"/>
        <pt x="46" y="634" on="0"/>
        <pt x="69" y="634" on="1"/>
        <pt x="87" y="634" on="0"/>
        <pt x="127" y="610" on="0"/>
        <pt x="165" y="584" on="1"/>
        <pt x="199" y="560" on="1"/>
        <pt x="187" y="600" on="1"/>
        <pt x="179" y="628" on="0"/>
        <pt x="168" y="671" on="0"/>
        <pt x="168" y="685" on="1"/>
        <pt x="168" y="714" on="0"/>
        <pt x="195" y="740" on="0"/>
      </contour>
    </TTGlyph>
    <TTGlyph name="at" xMin="35" yMin="-185" xMax="894" yMax="670">
      <contour>
        <pt x="558" y="406" on="1"/>
        <pt x="541" y="417" on="0"/>
        <pt x="519" y="417" on="1"/>
        <pt x="493" y="417" on="0"/>
        <pt x="444" y="391" on="0"/>
        <pt x="421" y="361" on="1"/>
        <pt x="397" y="330" on="0"/>
        <pt x="370" y="255" on="0"/>
        <pt x="370" y="207" on="1"/>
        <pt x="370" y="160" on="0"/>
        <pt x="406" y="114" on="0"/>
        <pt x="438" y="114" on="1"/>
        <pt x="455" y="114" on="0"/>
        <pt x="487" y="129" on="0"/>
        <pt x="511" y="149" on="1"/>
        <pt x="511" y="154" on="0"/>
        <pt x="512" y="161" on="0"/>
        <pt x="513" y="165" on="1"/>
      </contour>
      <contour>
        <pt x="629" y="182" on="1"/>
        <pt x="621" y="140" on="0"/>
        <pt x="640" y="104" on="0"/>
        <pt x="672" y="104" on="1"/>
        <pt x="699" y="104" on="0"/>
        <pt x="747" y="129" on="0"/>
        <pt x="782" y="183" on="0"/>
        <pt x="803" y="267" on="0"/>
        <pt x="803" y="326" on="1"/>
        <pt x="803" y="401" on="0"/>
        <pt x="761" y="508" on="0"/>
        <pt x="683" y="576" on="0"/>
        <pt x="574" y="608" on="0"/>
        <pt x="508" y="608" on="1"/>
        <pt x="439" y="608" on="0"/>
        <pt x="302" y="553" on="0"/>
        <pt x="194" y="447" on="0"/>
        <pt x="126" y="293" on="0"/>
        <pt x="126" y="194" on="1"/>
        <pt x="126" y="131" on="0"/>
        <pt x="165" y="16" on="0"/>
        <pt x="243" y="-71" on="0"/>
        <pt x="361" y="-123" on="0"/>
        <pt x="439" y="-123" on="1"/>
        <pt x="472" y="-123" on="0"/>
        <pt x="525" y="-118" on="0"/>
        <pt x="568" y="-108" on="0"/>
        <pt x="606" y="-94" on="0"/>
        <pt x="626" y="-85" on="1"/>
        <pt x="644" y="-131" on="1"/>
        <pt x="596" y="-159" on="0"/>
        <pt x="489" y="-185" on="0"/>
        <pt x="423" y="-185" on="1"/>
        <pt x="330" y="-185" on="0"/>
        <pt x="185" y="-130" on="0"/>
        <pt x="86" y="-30" on="0"/>
        <pt x="35" y="108" on="0"/>
        <pt x="35" y="191" on="1"/>
        <pt x="35" y="301" on="0"/>
        <pt x="112" y="478" on="0"/>
        <pt x="245" y="603" on="0"/>
        <pt x="425" y="670" on="0"/>
        <pt x="528" y="670" on="1"/>
        <pt x="611" y="670" on="0"/>
        <pt x="746" y="622" on="0"/>
        <pt x="842" y="535" on="0"/>
        <pt x="894" y="413" on="0"/>
        <pt x="894" y="338" on="1"/>
        <pt x="894" y="267" on="0"/>
        <pt x="853" y="155" on="0"/>
        <pt x="782" y="76" on="0"/>
        <pt x="688" y="34" on="0"/>
        <pt x="635" y="34" on="1"/>
        <pt x="585" y="34" on="0"/>
        <pt x="528" y="77" on="0"/>
        <pt x="517" y="107" on="1"/>
        <pt x="483" y="70" on="0"/>
        <pt x="415" y="34" on="0"/>
        <pt x="374" y="34" on="1"/>
        <pt x="324" y="34" on="0"/>
        <pt x="256" y="101" on="0"/>
        <pt x="256" y="173" on="1"/>
        <pt x="256" y="239" on="0"/>
        <pt x="306" y="356" on="0"/>
        <pt x="349" y="401" on="1"/>
        <pt x="384" y="437" on="0"/>
        <pt x="469" y="480" on="0"/>
        <pt x="511" y="480" on="1"/>
        <pt x="540" y="480" on="0"/>
        <pt x="586" y="462" on="0"/>
        <pt x="605" y="445" on="1"/>
        <pt x="662" y="473" on="1"/>
        <pt x="681" y="456" on="1"/>
      </contour>
    </TTGlyph>
    <TTGlyph name="at.cap" xMin="35" yMin="-115" xMax="894" yMax="740">
      <contour>
        <pt x="558" y="476" on="1"/>
        <pt x="541" y="487" on="0"/>
        <pt x="519" y="487" on="1"/>
        <pt x="493" y="487" on="0"/>
        <pt x="444" y="461" on="0"/>
        <pt x="421" y="431" on="1"/>
        <pt x="397" y="400" on="0"/>
        <pt x="370" y="325" on="0"/>
        <pt x="370" y="277" on="1"/>
        <pt x="370" y="230" on="0"/>
        <pt x="406" y="184" on="0"/>
        <pt x="438" y="184" on="1"/>
        <pt x="455" y="184" on="0"/>
        <pt x="487" y="199" on="0"/>
        <pt x="511" y="219" on="1"/>
        <pt x="511" y="224" on="0"/>
        <pt x="512" y="231" on="0"/>
        <pt x="513" y="235" on="1"/>
      </contour>
      <contour>
        <pt x="629" y="252" on="1"/>
        <pt x="621" y="210" on="0"/>
        <pt x="640" y="174" on="0"/>
        <pt x="672" y="174" on="1"/>
        <pt x="699" y="174" on="0"/>
        <pt x="747" y="199" on="0"/>
        <pt x="782" y="253" on="0"/>
        <pt x="803" y="337" on="0"/>
        <pt x="803" y="396" on="1"/>
        <pt x="803" y="471" on="0"/>
        <pt x="761" y="578" on="0"/>
        <pt x="683" y="646" on="0"/>
        <pt x="574" y="678" on="0"/>
        <pt x="508" y="678" on="1"/>
        <pt x="439" y="678" on="0"/>
        <pt x="302" y="623" on="0"/>
        <pt x="194" y="517" on="0"/>
        <pt x="126" y="363" on="0"/>
        <pt x="126" y="264" on="1"/>
        <pt x="126" y="201" on="0"/>
        <pt x="165" y="86" on="0"/>
        <pt x="243" y="-1" on="0"/>
        <pt x="361" y="-53" on="0"/>
        <pt x="439" y="-53" on="1"/>
        <pt x="472" y="-53" on="0"/>
        <pt x="525" y="-48" on="0"/>
        <pt x="568" y="-38" on="0"/>
        <pt x="606" y="-24" on="0"/>
        <pt x="626" y="-15" on="1"/>
        <pt x="644" y="-61" on="1"/>
        <pt x="596" y="-89" on="0"/>
        <pt x="489" y="-115" on="0"/>
        <pt x="423" y="-115" on="1"/>
        <pt x="330" y="-115" on="0"/>
        <pt x="185" y="-60" on="0"/>
        <pt x="86" y="40" on="0"/>
        <pt x="35" y="178" on="0"/>
        <pt x="35" y="261" on="1"/>
        <pt x="35" y="371" on="0"/>
        <pt x="112" y="548" on="0"/>
        <pt x="245" y="673" on="0"/>
        <pt x="425" y="740" on="0"/>
        <pt x="528" y="740" on="1"/>
        <pt x="611" y="740" on="0"/>
        <pt x="746" y="692" on="0"/>
        <pt x="842" y="605" on="0"/>
        <pt x="894" y="483" on="0"/>
        <pt x="894" y="408" on="1"/>
        <pt x="894" y="337" on="0"/>
        <pt x="853" y="225" on="0"/>
        <pt x="782" y="146" on="0"/>
        <pt x="688" y="104" on="0"/>
        <pt x="635" y="104" on="1"/>
        <pt x="585" y="104" on="0"/>
        <pt x="528" y="147" on="0"/>
        <pt x="517" y="177" on="1"/>
        <pt x="483" y="140" on="0"/>
        <pt x="415" y="104" on="0"/>
        <pt x="374" y="104" on="1"/>
        <pt x="324" y="104" on="0"/>
        <pt x="256" y="171" on="0"/>
        <pt x="256" y="243" on="1"/>
        <pt x="256" y="309" on="0"/>
        <pt x="306" y="426" on="0"/>
        <pt x="349" y="471" on="1"/>
        <pt x="384" y="507" on="0"/>
        <pt x="469" y="550" on="0"/>
        <pt x="511" y="550" on="1"/>
        <pt x="540" y="550" on="0"/>
        <pt x="586" y="532" on="0"/>
        <pt x="605" y="515" on="1"/>
        <pt x="662" y="543" on="1"/>
        <pt x="681" y="526" on="1"/>
      </contour>
    </TTGlyph>
    <TTGlyph name="atilde" xMin="45" yMin="-15" xMax="539" yMax="724">
      <component glyphName="a" x="0" y="0" flags="0x204"/>
      <component glyphName="uni0303" x="281" y="0" flags="0x4"/>
    </TTGlyph>
    <TTGlyph name="b" xMin="20" yMin="-15" xMax="569" yMax="720">
      <contour>
        <pt x="231" y="93" on="1"/>
        <pt x="251" y="79" on="0"/>
        <pt x="293" y="62" on="0"/>
        <pt x="314" y="62" on="1"/>
        <pt x="360" y="62" on="0"/>
        <pt x="424" y="149" on="0"/>
        <pt x="424" y="241" on="1"/>
        <pt x="424" y="333" on="0"/>
        <pt x="369" y="420" on="0"/>
        <pt x="321" y="420" on="1"/>
        <pt x="298" y="420" on="0"/>
        <pt x="253" y="402" on="0"/>
        <pt x="231" y="387" on="1"/>
      </contour>
      <contour>
        <pt x="228" y="437" on="1"/>
        <pt x="258" y="466" on="0"/>
        <pt x="326" y="498" on="0"/>
        <pt x="371" y="498" on="1"/>
        <pt x="413" y="498" on="0"/>
        <pt x="486" y="466" on="0"/>
        <pt x="539" y="402" on="0"/>
        <pt x="569" y="307" on="0"/>
        <pt x="569" y="244" on="1"/>
        <pt x="569" y="184" on="0"/>
        <pt x="536" y="88" on="0"/>
        <pt x="478" y="21" on="0"/>
        <pt x="401" y="-15" on="0"/>
        <pt x="356" y="-15" on="1"/>
        <pt x="312" y="-15" on="0"/>
        <pt x="247" y="14" on="0"/>
        <pt x="220" y="43" on="1"/>
        <pt x="217" y="43" on="1"/>
        <pt x="211" y="-15" on="1"/>
        <pt x="33" y="0" on="1"/>
        <pt x="33" y="44" on="1"/>
        <pt x="94" y="56" on="1"/>
        <pt x="95" y="94" on="0"/>
        <pt x="95" y="178" on="0"/>
        <pt x="95" y="210" on="1"/>
        <pt x="95" y="626" on="1"/>
        <pt x="20" y="635" on="1"/>
        <pt x="20" y="675" on="1"/>
        <pt x="218" y="720" on="1"/>
        <pt x="232" y="712" on="1"/>
        <pt x="228" y="570" on="1"/>
      </contour>
    </TTGlyph>
    <TTGlyph name="b.sups" xMin="13" yMin="405" xMax="391" yMax="887">
      <contour>
        <pt x="160" y="480" on="1"/>
        <pt x="175" y="469" on="0"/>
        <pt x="204" y="455" on="0"/>
        <pt x="220" y="455" on="1"/>
        <pt x="233" y="455" on="0"/>
        <pt x="258" y="467" on="0"/>
        <pt x="277" y="494" on="0"/>
        <pt x="289" y="539" on="0"/>
        <pt x="289" y="572" on="1"/>
        <pt x="289" y="608" on="0"/>
        <pt x="277" y="653" on="0"/>
        <pt x="258" y="680" on="0"/>
        <pt x="235" y="690" on="0"/>
        <pt x="224" y="690" on="1"/>
        <pt x="196" y="690" on="0"/>
        <pt x="160" y="665" on="1"/>
      </contour>
      <contour>
        <pt x="160" y="698" on="1"/>
        <pt x="205" y="740" on="0"/>
        <pt x="258" y="740" on="1"/>
        <pt x="282" y="740" on="0"/>
        <pt x="330" y="721" on="0"/>
        <pt x="368" y="680" on="0"/>
        <pt x="391" y="617" on="0"/>
        <pt x="391" y="574" on="1"/>
        <pt x="391" y="532" on="0"/>
        <pt x="366" y="468" on="0"/>
        <pt x="324" y="426" on="0"/>
        <pt x="272" y="405" on="0"/>
        <pt x="245" y="405" on="1"/>
        <pt x="194" y="405" on="0"/>
        <pt x="155" y="445" on="1"/>
        <pt x="150" y="408" on="1"/>
        <pt x="23" y="415" on="1"/>
        <pt x="23" y="446" on="1"/>
        <pt x="62" y="454" on="1"/>
        <pt x="62" y="823" on="1"/>
        <pt x="13" y="829" on="1"/>
        <pt x="13" y="857" on="1"/>
        <pt x="149" y="887" on="1"/>
        <pt x="160" y="882" on="1"/>
      </contour>
    </TTGlyph>
    <TTGlyph name="backslash" xMin="4" yMin="-160" xMax="364" yMax="710">
      <contour>
        <pt x="364" y="-160" on="1"/>
        <pt x="271" y="-160" on="1"/>
        <pt x="4" y="710" on="1"/>
        <pt x="97" y="710" on="1"/>
      </contour>
    </TTGlyph>
    <TTGlyph name="bar" xMin="97" yMin="-250" xMax="183" yMax="750">
      <contour>
        <pt x="97" y="750" on="1"/>
        <pt x="183" y="750" on="1"/>
        <pt x="183" y="-250" on="1"/>
        <pt x="97" y="-250" on="1"/>
      </contour>
    </TTGlyph>
    <TTGlyph name="braceleft" xMin="40" yMin="-159" xMax="309" yMax="715">
      <contour>
        <pt x="282" y="658" on="1"/>
        <pt x="246" y="654" on="0"/>
        <pt x="214" y="621" on="0"/>
        <pt x="214" y="590" on="1"/>
        <pt x="214" y="532" on="0"/>
        <pt x="230" y="447" on="0"/>
        <pt x="230" y="409" on="1"/>
        <pt x="230" y="361" on="0"/>
        <pt x="188" y="293" on="0"/>
        <pt x="144" y="278" on="1"/>
        <pt x="188" y="263" on="0"/>
        <pt x="230" y="195" on="0"/>
        <pt x="230" y="147" on="1"/>
        <pt x="230" y="109" on="0"/>
        <pt x="214" y="24" on="0"/>
        <pt x="214" y="-34" on="1"/>
        <pt x="214" y="-65" on="0"/>
        <pt x="246" y="-98" on="0"/>
        <pt x="282" y="-102" on="1"/>
        <pt x="309" y="-105" on="1"/>
        <pt x="309" y="-159" on="1"/>
        <pt x="272" y="-159" on="1"/>
        <pt x="194" y="-159" on="0"/>
        <pt x="99" y="-95" on="0"/>
        <pt x="99" y="-29" on="1"/>
        <pt x="99" y="-1" on="0"/>
        <pt x="115" y="50" on="0"/>
        <pt x="134" y="98" on="0"/>
        <pt x="150" y="145" on="0"/>
        <pt x="150" y="169" on="1"/>
        <pt x="150" y="204" on="0"/>
        <pt x="103" y="245" on="0"/>
        <pt x="40" y="253" on="1"/>
        <pt x="40" y="303" on="1"/>
        <pt x="103" y="311" on="0"/>
        <pt x="150" y="352" on="0"/>
        <pt x="150" y="387" on="1"/>
        <pt x="150" y="411" on="0"/>
        <pt x="134" y="458" on="0"/>
        <pt x="115" y="506" on="0"/>
        <pt x="99" y="557" on="0"/>
        <pt x="99" y="585" on="1"/>
        <pt x="99" y="651" on="0"/>
        <pt x="194" y="715" on="0"/>
        <pt x="272" y="715" on="1"/>
        <pt x="309" y="715" on="1"/>
        <pt x="309" y="661" on="1"/>
      </contour>
    </TTGlyph>
    <TTGlyph name="braceleft.cap" xMin="40" yMin="-129" xMax="309" yMax="745">
      <component glyphName="braceleft" x="0" y="30" flags="0x204"/>
    </TTGlyph>
    <TTGlyph name="braceright" xMin="30" yMin="-159" xMax="299" yMax="715">
      <contour>
        <pt x="299" y="253" on="1"/>
        <pt x="236" y="245" on="0"/>
        <pt x="189" y="204" on="0"/>
        <pt x="189" y="169" on="1"/>
        <pt x="189" y="145" on="0"/>
        <pt x="205" y="98" on="0"/>
        <pt x="224" y="50" on="0"/>
        <pt x="240" y="-1" on="0"/>
        <pt x="240" y="-29" on="1"/>
        <pt x="240" y="-95" on="0"/>
        <pt x="145" y="-159" on="0"/>
        <pt x="67" y="-159" on="1"/>
        <pt x="30" y="-159" on="1"/>
        <pt x="30" y="-105" on="1"/>
        <pt x="57" y="-102" on="1"/>
        <pt x="93" y="-98" on="0"/>
        <pt x="125" y="-65" on="0"/>
        <pt x="125" y="-34" on="1"/>
        <pt x="125" y="24" on="0"/>
        <pt x="109" y="109" on="0"/>
        <pt x="109" y="147" on="1"/>
        <pt x="109" y="195" on="0"/>
        <pt x="151" y="263" on="0"/>
        <pt x="195" y="278" on="1"/>
        <pt x="151" y="293" on="0"/>
        <pt x="109" y="361" on="0"/>
        <pt x="109" y="409" on="1"/>
        <pt x="109" y="447" on="0"/>
        <pt x="125" y="532" on="0"/>
        <pt x="125" y="590" on="1"/>
        <pt x="125" y="621" on="0"/>
        <pt x="93" y="654" on="0"/>
        <pt x="57" y="658" on="1"/>
        <pt x="30" y="661" on="1"/>
        <pt x="30" y="715" on="1"/>
        <pt x="67" y="715" on="1"/>
        <pt x="145" y="715" on="0"/>
        <pt x="240" y="651" on="0"/>
        <pt x="240" y="585" on="1"/>
        <pt x="240" y="557" on="0"/>
        <pt x="224" y="506" on="0"/>
        <pt x="205" y="458" on="0"/>
        <pt x="189" y="411" on="0"/>
        <pt x="189" y="387" on="1"/>
        <pt x="189" y="352" on="0"/>
        <pt x="236" y="311" on="0"/>
        <pt x="299" y="303" on="1"/>
      </contour>
    </TTGlyph>
    <TTGlyph name="braceright.cap" xMin="30" yMin="-129" xMax="299" yMax="745">
      <component glyphName="braceright" x="0" y="30" flags="0x204"/>
    </TTGlyph>
    <TTGlyph name="bracketleft" xMin="100" yMin="-159" xMax="319" yMax="715">
      <contour>
        <pt x="225" y="655" on="1"/>
        <pt x="223" y="592" on="0"/>
        <pt x="223" y="463" on="0"/>
        <pt x="223" y="398" on="1"/>
        <pt x="223" y="158" on="1"/>
        <pt x="223" y="94" on="0"/>
        <pt x="223" y="-35" on="0"/>
        <pt x="225" y="-99" on="1"/>
        <pt x="319" y="-109" on="1"/>
        <pt x="319" y="-159" on="1"/>
        <pt x="100" y="-159" on="1"/>
        <pt x="102" y="-81" on="0"/>
        <pt x="103" y="77" on="0"/>
        <pt x="103" y="158" on="1"/>
        <pt x="103" y="398" on="1"/>
        <pt x="103" y="477" on="0"/>
        <pt x="102" y="636" on="0"/>
        <pt x="100" y="715" on="1"/>
        <pt x="319" y="715" on="1"/>
        <pt x="319" y="665" on="1"/>
      </contour>
    </TTGlyph>
    <TTGlyph name="bracketleft.cap" xMin="100" yMin="-129" xMax="319" yMax="745">
      <component glyphName="bracketleft" x="0" y="30" flags="0x204"/>
    </TTGlyph>
    <TTGlyph name="bracketright" xMin="20" yMin="-159" xMax="239" yMax="715">
      <contour>
        <pt x="236" y="158" on="1"/>
        <pt x="236" y="79" on="0"/>
        <pt x="237" y="-80" on="0"/>
        <pt x="239" y="-159" on="1"/>
        <pt x="20" y="-159" on="1"/>
        <pt x="20" y="-109" on="1"/>
        <pt x="114" y="-99" on="1"/>
        <pt x="116" y="-36" on="0"/>
        <pt x="116" y="93" on="0"/>
        <pt x="116" y="158" on="1"/>
        <pt x="116" y="398" on="1"/>
        <pt x="116" y="462" on="0"/>
        <pt x="116" y="591" on="0"/>
        <pt x="114" y="655" on="1"/>
        <pt x="20" y="665" on="1"/>
        <pt x="20" y="715" on="1"/>
        <pt x="239" y="715" on="1"/>
        <pt x="237" y="637" on="0"/>
        <pt x="236" y="479" on="0"/>
        <pt x="236" y="398" on="1"/>
      </contour>
    </TTGlyph>
    <TTGlyph name="bracketright.cap" xMin="20" yMin="-129" xMax="239" yMax="745">
      <component glyphName="bracketright" x="0" y="30" flags="0x204"/>
    </TTGlyph>
    <TTGlyph name="breve" xMin="40" yMin="575" xMax="360" yMax="743">
      <component glyphName="uni0306" x="200" y="0" flags="0x4"/>
    </TTGlyph>
    <TTGlyph name="brevecmb.cap" xMin="-158" yMin="720" xMax="158" yMax="872">
      <contour>
        <pt x="0" y="720" on="1"/>
        <pt x="-39" y="720" on="0"/>
        <pt x="-96" y="745" on="0"/>
        <pt x="-135" y="786" on="0"/>
        <pt x="-156" y="835" on="0"/>
        <pt x="-158" y="859" on="1"/>
        <pt x="-116" y="872" on="1"/>
        <pt x="-102" y="839" on="0"/>
        <pt x="-42" y="794" on="0"/>
        <pt x="0" y="794" on="1"/>
        <pt x="42" y="794" on="0"/>
        <pt x="103" y="840" on="0"/>
        <pt x="116" y="872" on="1"/>
        <pt x="158" y="859" on="1"/>
        <pt x="156" y="835" on="0"/>
        <pt x="135" y="786" on="0"/>
        <pt x="96" y="745" on="0"/>
        <pt x="39" y="720" on="0"/>
      </contour>
    </TTGlyph>
    <TTGlyph name="brokenbar" xMin="97" yMin="-250" xMax="183" yMax="750">
      <contour>
        <pt x="97" y="200" on="1"/>
        <pt x="183" y="200" on="1"/>
        <pt x="183" y="-250" on="1"/>
        <pt x="97" y="-250" on="1"/>
      </contour>
      <contour>
        <pt x="97" y="320" on="1"/>
        <pt x="97" y="750" on="1"/>
        <pt x="183" y="750" on="1"/>
        <pt x="183" y="320" on="1"/>
      </contour>
    </TTGlyph>
    <TTGlyph name="bullet" xMin="35" yMin="199" xMax="285" yMax="451">
      <contour>
        <pt x="160" y="199" on="1"/>
        <pt x="134" y="199" on="0"/>
        <pt x="89" y="217" on="0"/>
        <pt x="55" y="250" on="0"/>
        <pt x="35" y="296" on="0"/>
        <pt x="35" y="325" on="1"/>
        <pt x="35" y="353" on="0"/>
        <pt x="55" y="400" on="0"/>
        <pt x="89" y="433" on="0"/>
        <pt x="134" y="451" on="0"/>
        <pt x="160" y="451" on="1"/>
        <pt x="185" y="451" on="0"/>
        <pt x="231" y="433" on="0"/>
        <pt x="265" y="400" on="0"/>
        <pt x="285" y="353" on="0"/>
        <pt x="285" y="325" on="1"/>
        <pt x="285" y="296" on="0"/>
        <pt x="265" y="250" on="0"/>
        <pt x="231" y="217" on="0"/>
        <pt x="185" y="199" on="0"/>
      </contour>
    </TTGlyph>
    <TTGlyph name="c" xMin="35" yMin="-15" xMax="480" yMax="498">
      <contour>
        <pt x="479" y="119" on="1"/>
        <pt x="461" y="54" on="0"/>
        <pt x="351" y="-15" on="0"/>
        <pt x="276" y="-15" on="1"/>
        <pt x="221" y="-15" on="0"/>
        <pt x="132" y="19" on="0"/>
        <pt x="69" y="84" on="0"/>
        <pt x="35" y="179" on="0"/>
        <pt x="35" y="240" on="1"/>
        <pt x="35" y="300" on="0"/>
        <pt x="76" y="396" on="0"/>
        <pt x="146" y="463" on="0"/>
        <pt x="239" y="498" on="0"/>
        <pt x="292" y="498" on="1"/>
        <pt x="332" y="498" on="0"/>
        <pt x="401" y="476" on="0"/>
        <pt x="451" y="439" on="0"/>
        <pt x="480" y="387" on="0"/>
        <pt x="480" y="357" on="1"/>
        <pt x="469" y="309" on="0"/>
        <pt x="421" y="309" on="1"/>
        <pt x="393" y="309" on="0"/>
        <pt x="353" y="346" on="0"/>
        <pt x="351" y="391" on="1"/>
        <pt x="348" y="444" on="1"/>
        <pt x="340" y="446" on="0"/>
        <pt x="325" y="448" on="0"/>
        <pt x="317" y="448" on="1"/>
        <pt x="289" y="448" on="0"/>
        <pt x="239" y="423" on="0"/>
        <pt x="202" y="374" on="0"/>
        <pt x="180" y="302" on="0"/>
        <pt x="180" y="255" on="1"/>
        <pt x="180" y="157" on="0"/>
        <pt x="262" y="63" on="0"/>
        <pt x="325" y="63" on="1"/>
        <pt x="365" y="63" on="0"/>
        <pt x="422" y="100" on="0"/>
        <pt x="445" y="138" on="1"/>
      </contour>
    </TTGlyph>
    <TTGlyph name="c.sups" xMin="23" yMin="405" xMax="329" yMax="740">
      <contour>
        <pt x="329" y="495" on="1"/>
        <pt x="315" y="451" on="0"/>
        <pt x="241" y="405" on="0"/>
        <pt x="189" y="405" on="1"/>
        <pt x="114" y="405" on="0"/>
        <pt x="23" y="492" on="0"/>
        <pt x="23" y="572" on="1"/>
        <pt x="23" y="611" on="0"/>
        <pt x="51" y="673" on="0"/>
        <pt x="100" y="717" on="0"/>
        <pt x="164" y="740" on="0"/>
        <pt x="200" y="740" on="1"/>
        <pt x="228" y="740" on="0"/>
        <pt x="275" y="726" on="0"/>
        <pt x="310" y="702" on="0"/>
        <pt x="329" y="668" on="0"/>
        <pt x="329" y="649" on="1"/>
        <pt x="326" y="633" on="0"/>
        <pt x="303" y="617" on="0"/>
        <pt x="288" y="617" on="1"/>
        <pt x="271" y="617" on="0"/>
        <pt x="242" y="642" on="0"/>
        <pt x="240" y="671" on="1"/>
        <pt x="238" y="703" on="1"/>
        <pt x="233" y="704" on="0"/>
        <pt x="223" y="705" on="0"/>
        <pt x="218" y="705" on="1"/>
        <pt x="180" y="705" on="0"/>
        <pt x="125" y="641" on="0"/>
        <pt x="125" y="581" on="1"/>
        <pt x="125" y="518" on="0"/>
        <pt x="180" y="458" on="0"/>
        <pt x="221" y="458" on="1"/>
        <pt x="274" y="458" on="0"/>
        <pt x="305" y="507" on="1"/>
      </contour>
    </TTGlyph>
    <TTGlyph name="cacute" xMin="35" yMin="-15" xMax="480" yMax="763">
      <component glyphName="c" x="0" y="0" flags="0x204"/>
      <component glyphName="uni0301" x="320" y="0" flags="0x4"/>
    </TTGlyph>
    <TTGlyph name="caron" xMin="48" yMin="568" xMax="352" yMax="760">
      <component glyphName="uni030C" x="200" y="0" flags="0x4"/>
    </TTGlyph>
    <TTGlyph name="caron.alt" xMin="-11" yMin="516" xMax="93" yMax="735">
      <contour>
        <pt x="46" y="735" on="1"/>
        <pt x="72" y="735" on="0"/>
        <pt x="93" y="710" on="0"/>
        <pt x="93" y="687" on="1"/>
        <pt x="93" y="669" on="0"/>
        <pt x="81" y="628" on="0"/>
        <pt x="68" y="598" on="1"/>
        <pt x="33" y="516" on="1"/>
        <pt x="-11" y="516" on="1"/>
        <pt x="-7" y="720" on="1"/>
        <pt x="7" y="728" on="0"/>
        <pt x="32" y="735" on="0"/>
      </contour>
    </TTGlyph>
    <TTGlyph name="caroncmb.cap" xMin="-148" yMin="710" xMax="148" yMax="867">
      <contour>
        <pt x="148" y="836" on="1"/>
        <pt x="40" y="710" on="1"/>
        <pt x="-40" y="710" on="1"/>
        <pt x="-148" y="836" on="1"/>
        <pt x="-117" y="867" on="1"/>
        <pt x="0" y="782" on="1"/>
        <pt x="117" y="867" on="1"/>
      </contour>
    </TTGlyph>
    <TTGlyph name="ccaron" xMin="35" yMin="-15" xMax="480" yMax="760">
      <component glyphName="c" x="0" y="0" flags="0x204"/>
      <component glyphName="uni030C" x="290" y="0" flags="0x4"/>
    </TTGlyph>
    <TTGlyph name="ccedilla" xMin="35" yMin="-230" xMax="480" yMax="498">
      <component glyphName="c" x="0" y="0" flags="0x204"/>
      <component glyphName="uni0327" x="265" y="0" flags="0x4"/>
    </TTGlyph>
    <TTGlyph name="cedilla" xMin="93" yMin="-230" xMax="291" yMax="8">
      <component glyphName="uni0327" x="172" y="0" flags="0x4"/>
    </TTGlyph>
    <TTGlyph name="cent" xMin="44" yMin="-45" xMax="506" yMax="655">
      <contour>
        <pt x="271" y="504" on="1"/>
        <pt x="237" y="485" on="0"/>
        <pt x="189" y="395" on="0"/>
        <pt x="189" y="325" on="1"/>
        <pt x="189" y="251" on="0"/>
        <pt x="236" y="162" on="0"/>
        <pt x="271" y="144" on="1"/>
      </contour>
      <contour>
        <pt x="501" y="189" on="1"/>
        <pt x="484" y="132" on="0"/>
        <pt x="392" y="65" on="0"/>
        <pt x="326" y="57" on="1"/>
        <pt x="326" y="-45" on="1"/>
        <pt x="271" y="-45" on="1"/>
        <pt x="271" y="55" on="1"/>
        <pt x="167" y="60" on="0"/>
        <pt x="44" y="192" on="0"/>
        <pt x="44" y="310" on="1"/>
        <pt x="44" y="365" on="0"/>
        <pt x="79" y="454" on="0"/>
        <pt x="141" y="520" on="0"/>
        <pt x="223" y="560" on="0"/>
        <pt x="271" y="566" on="1"/>
        <pt x="271" y="655" on="1"/>
        <pt x="326" y="655" on="1"/>
        <pt x="326" y="568" on="1"/>
        <pt x="365" y="566" on="0"/>
        <pt x="431" y="542" on="0"/>
        <pt x="479" y="505" on="0"/>
        <pt x="506" y="455" on="0"/>
        <pt x="506" y="427" on="1"/>
        <pt x="501" y="402" on="0"/>
        <pt x="467" y="377" on="0"/>
        <pt x="444" y="377" on="1"/>
        <pt x="418" y="377" on="0"/>
        <pt x="380" y="414" on="0"/>
        <pt x="377" y="461" on="1"/>
        <pt x="374" y="512" on="1"/>
        <pt x="351" y="518" on="0"/>
        <pt x="326" y="518" on="1"/>
        <pt x="326" y="133" on="1"/>
        <pt x="379" y="134" on="0"/>
        <pt x="442" y="171" on="0"/>
        <pt x="465" y="208" on="1"/>
      </contour>
    </TTGlyph>
    <TTGlyph name="circumflex" xMin="37" yMin="553" xMax="363" yMax="753">
      <component glyphName="uni0302" x="200" y="0" flags="0x4"/>
    </TTGlyph>
    <TTGlyph name="circumflexcmb.cap" xMin="-167" yMin="693" xMax="167" yMax="867">
      <contour>
        <pt x="140" y="693" on="1"/>
        <pt x="0" y="778" on="1"/>
        <pt x="-140" y="693" on="1"/>
        <pt x="-167" y="726" on="1"/>
        <pt x="-28" y="867" on="1"/>
        <pt x="28" y="867" on="1"/>
        <pt x="167" y="726" on="1"/>
      </contour>
    </TTGlyph>
    <TTGlyph name="colon" xMin="66" yMin="-15" xMax="234" yMax="498">
      <component glyphName="period" x="0" y="344" flags="0x204"/>
      <component glyphName="period" x="0" y="0" flags="0x4"/>
    </TTGlyph>
    <TTGlyph name="colon.sups" xMin="53" yMin="406" xMax="166" yMax="725">
      <contour>
        <pt x="109" y="611" on="1"/>
        <pt x="85" y="611" on="0"/>
        <pt x="53" y="644" on="0"/>
        <pt x="53" y="668" on="1"/>
        <pt x="53" y="692" on="0"/>
        <pt x="85" y="725" on="0"/>
        <pt x="109" y="725" on="1"/>
        <pt x="133" y="725" on="0"/>
        <pt x="166" y="692" on="0"/>
        <pt x="166" y="668" on="1"/>
        <pt x="166" y="644" on="0"/>
        <pt x="133" y="611" on="0"/>
      </contour>
      <contour>
        <pt x="109" y="406" on="1"/>
        <pt x="85" y="406" on="0"/>
        <pt x="53" y="439" on="0"/>
        <pt x="53" y="463" on="1"/>
        <pt x="53" y="487" on="0"/>
        <pt x="85" y="520" on="0"/>
        <pt x="109" y="520" on="1"/>
        <pt x="133" y="520" on="0"/>
        <pt x="166" y="487" on="0"/>
        <pt x="166" y="463" on="1"/>
        <pt x="166" y="439" on="0"/>
        <pt x="133" y="406" on="0"/>
      </contour>
    </TTGlyph>
    <TTGlyph name="comma" xMin="19" yMin="-208" xMax="233" yMax="154">
      <contour>
        <pt x="121" y="-14" on="1"/>
        <pt x="92" y="4" on="0"/>
        <pt x="68" y="49" on="0"/>
        <pt x="68" y="71" on="1"/>
        <pt x="68" y="104" on="0"/>
        <pt x="115" y="154" on="0"/>
        <pt x="153" y="154" on="1"/>
        <pt x="168" y="154" on="0"/>
        <pt x="203" y="142" on="0"/>
        <pt x="220" y="124" on="1"/>
        <pt x="225" y="103" on="0"/>
        <pt x="233" y="65" on="0"/>
        <pt x="233" y="42" on="1"/>
        <pt x="233" y="-6" on="0"/>
        <pt x="197" y="-89" on="0"/>
        <pt x="140" y="-154" on="0"/>
        <pt x="68" y="-198" on="0"/>
        <pt x="33" y="-208" on="1"/>
        <pt x="19" y="-169" on="1"/>
        <pt x="67" y="-144" on="0"/>
        <pt x="135" y="-77" on="0"/>
        <pt x="153" y="-34" on="1"/>
      </contour>
    </TTGlyph>
    <TTGlyph name="comma.dnom" xMin="35" yMin="-114" xMax="164" yMax="106">
      <component glyphName="comma.sups" x="0" y="-414" flags="0x204"/>
    </TTGlyph>
    <TTGlyph name="comma.numr" xMin="35" yMin="145" xMax="164" yMax="365">
      <component glyphName="comma.sups" x="0" y="-155" flags="0x204"/>
    </TTGlyph>
    <TTGlyph name="comma.subs" xMin="35" yMin="-334" xMax="164" yMax="-114">
      <component glyphName="comma.sups" x="0" y="-634" flags="0x204"/>
    </TTGlyph>
    <TTGlyph name="comma.sups" xMin="35" yMin="300" xMax="164" yMax="520">
      <contour>
        <pt x="89" y="402" on="1"/>
        <pt x="69" y="413" on="0"/>
        <pt x="53" y="444" on="0"/>
        <pt x="53" y="459" on="1"/>
        <pt x="53" y="483" on="0"/>
        <pt x="85" y="520" on="0"/>
        <pt x="110" y="520" on="1"/>
        <pt x="119" y="520" on="0"/>
        <pt x="142" y="513" on="0"/>
        <pt x="153" y="502" on="1"/>
        <pt x="164" y="473" on="0"/>
        <pt x="164" y="444" on="1"/>
        <pt x="164" y="414" on="0"/>
        <pt x="142" y="365" on="0"/>
        <pt x="107" y="328" on="0"/>
        <pt x="63" y="304" on="0"/>
        <pt x="42" y="300" on="1"/>
        <pt x="35" y="331" on="1"/>
        <pt x="58" y="339" on="0"/>
        <pt x="99" y="366" on="0"/>
        <pt x="112" y="390" on="1"/>
      </contour>
    </TTGlyph>
    <TTGlyph name="commabelowcmb.alt" xMin="-63" yMin="569" xMax="97" yMax="794">
      <contour>
        <pt x="97" y="755" on="1"/>
        <pt x="70" y="744" on="0"/>
        <pt x="29" y="720" on="0"/>
        <pt x="12" y="701" on="1"/>
        <pt x="35" y="691" on="0"/>
        <pt x="69" y="657" on="0"/>
        <pt x="69" y="632" on="1"/>
        <pt x="69" y="607" on="0"/>
        <pt x="33" y="569" on="0"/>
        <pt x="3" y="569" on="1"/>
        <pt x="-10" y="569" on="0"/>
        <pt x="-37" y="578" on="0"/>
        <pt x="-51" y="591" on="1"/>
        <pt x="-58" y="605" on="0"/>
        <pt x="-63" y="635" on="0"/>
        <pt x="-63" y="647" on="1"/>
        <pt x="-63" y="675" on="0"/>
        <pt x="-39" y="721" on="0"/>
        <pt x="1" y="757" on="0"/>
        <pt x="53" y="785" on="0"/>
        <pt x="82" y="794" on="1"/>
      </contour>
    </TTGlyph>
    <TTGlyph name="copyright" xMin="34" yMin="-15" xMax="714" yMax="670">
      <contour>
        <pt x="461" y="248" on="1"/>
        <pt x="514" y="248" on="1"/>
        <pt x="511" y="152" on="1"/>
        <pt x="458" y="125" on="0"/>
        <pt x="396" y="125" on="1"/>
        <pt x="351" y="125" on="0"/>
        <pt x="277" y="155" on="0"/>
        <pt x="223" y="208" on="0"/>
        <pt x="194" y="281" on="0"/>
        <pt x="194" y="325" on="1"/>
        <pt x="194" y="367" on="0"/>
        <pt x="224" y="440" on="0"/>
        <pt x="278" y="493" on="0"/>
        <pt x="352" y="523" on="0"/>
        <pt x="395" y="523" on="1"/>
        <pt x="424" y="523" on="0"/>
        <pt x="477" y="513" on="0"/>
        <pt x="506" y="496" on="1"/>
        <pt x="508" y="400" on="1"/>
        <pt x="456" y="400" on="1"/>
        <pt x="446" y="464" on="1"/>
        <pt x="434" y="467" on="0"/>
        <pt x="412" y="469" on="0"/>
        <pt x="403" y="469" on="1"/>
        <pt x="358" y="469" on="0"/>
        <pt x="295" y="395" on="0"/>
        <pt x="295" y="325" on="1"/>
        <pt x="295" y="254" on="0"/>
        <pt x="355" y="180" on="0"/>
        <pt x="408" y="180" on="1"/>
        <pt x="415" y="180" on="0"/>
        <pt x="438" y="182" on="0"/>
        <pt x="451" y="185" on="1"/>
      </contour>
      <contour>
        <pt x="374" y="31" on="1"/>
        <pt x="432" y="31" on="0"/>
        <pt x="535" y="75" on="0"/>
        <pt x="612" y="154" on="0"/>
        <pt x="657" y="264" on="0"/>
        <pt x="657" y="330" on="1"/>
        <pt x="657" y="396" on="0"/>
        <pt x="612" y="504" on="0"/>
        <pt x="535" y="581" on="0"/>
        <pt x="432" y="624" on="0"/>
        <pt x="374" y="624" on="1"/>
        <pt x="316" y="624" on="0"/>
        <pt x="213" y="582" on="0"/>
        <pt x="136" y="504" on="0"/>
        <pt x="91" y="396" on="0"/>
        <pt x="91" y="330" on="1"/>
        <pt x="91" y="264" on="0"/>
        <pt x="136" y="154" on="0"/>
        <pt x="213" y="75" on="0"/>
        <pt x="316" y="31" on="0"/>
      </contour>
      <contour>
        <pt x="374" y="670" on="1"/>
        <pt x="442" y="670" on="0"/>
        <pt x="566" y="623" on="0"/>
        <pt x="659" y="534" on="0"/>
        <pt x="714" y="408" on="0"/>
        <pt x="714" y="330" on="1"/>
        <pt x="714" y="251" on="0"/>
        <pt x="659" y="123" on="0"/>
        <pt x="566" y="33" on="0"/>
        <pt x="442" y="-15" on="0"/>
        <pt x="374" y="-15" on="1"/>
        <pt x="306" y="-15" on="0"/>
        <pt x="182" y="33" on="0"/>
        <pt x="89" y="123" on="0"/>
        <pt x="34" y="251" on="0"/>
        <pt x="34" y="330" on="1"/>
        <pt x="34" y="408" on="0"/>
        <pt x="89" y="534" on="0"/>
        <pt x="182" y="623" on="0"/>
        <pt x="306" y="670" on="0"/>
      </contour>
    </TTGlyph>
    <TTGlyph name="currency" xMin="25" yMin="88" xMax="503" yMax="566">
      <contour>
        <pt x="264" y="230" on="1"/>
        <pt x="283" y="230" on="0"/>
        <pt x="317" y="244" on="0"/>
        <pt x="342" y="269" on="0"/>
        <pt x="357" y="305" on="0"/>
        <pt x="357" y="327" on="1"/>
        <pt x="357" y="349" on="0"/>
        <pt x="342" y="385" on="0"/>
        <pt x="317" y="411" on="0"/>
        <pt x="283" y="425" on="0"/>
        <pt x="264" y="425" on="1"/>
        <pt x="225" y="425" on="0"/>
        <pt x="169" y="371" on="0"/>
        <pt x="169" y="327" on="1"/>
        <pt x="169" y="305" on="0"/>
        <pt x="184" y="269" on="0"/>
        <pt x="210" y="244" on="0"/>
        <pt x="244" y="230" on="0"/>
      </contour>
      <contour>
        <pt x="433" y="201" on="1"/>
        <pt x="461" y="185" on="0"/>
        <pt x="501" y="153" on="0"/>
        <pt x="501" y="130" on="1"/>
        <pt x="501" y="113" on="0"/>
        <pt x="477" y="88" on="0"/>
        <pt x="459" y="88" on="1"/>
        <pt x="446" y="88" on="0"/>
        <pt x="426" y="100" on="0"/>
        <pt x="409" y="120" on="0"/>
        <pt x="395" y="144" on="0"/>
        <pt x="389" y="155" on="1"/>
        <pt x="371" y="189" on="1"/>
        <pt x="325" y="155" on="0"/>
        <pt x="264" y="155" on="1"/>
        <pt x="203" y="155" on="0"/>
        <pt x="155" y="189" on="1"/>
        <pt x="138" y="158" on="1"/>
        <pt x="122" y="130" on="0"/>
        <pt x="90" y="90" on="0"/>
        <pt x="67" y="90" on="1"/>
        <pt x="50" y="90" on="0"/>
        <pt x="25" y="114" on="0"/>
        <pt x="25" y="132" on="1"/>
        <pt x="25" y="145" on="0"/>
        <pt x="37" y="165" on="0"/>
        <pt x="57" y="182" on="0"/>
        <pt x="81" y="196" on="0"/>
        <pt x="92" y="202" on="1"/>
        <pt x="124" y="219" on="1"/>
        <pt x="107" y="241" on="0"/>
        <pt x="87" y="295" on="0"/>
        <pt x="87" y="327" on="1"/>
        <pt x="87" y="359" on="0"/>
        <pt x="107" y="415" on="0"/>
        <pt x="125" y="436" on="1"/>
        <pt x="95" y="453" on="1"/>
        <pt x="67" y="469" on="0"/>
        <pt x="27" y="501" on="0"/>
        <pt x="27" y="524" on="1"/>
        <pt x="27" y="541" on="0"/>
        <pt x="51" y="566" on="0"/>
        <pt x="69" y="566" on="1"/>
        <pt x="82" y="566" on="0"/>
        <pt x="102" y="553" on="0"/>
        <pt x="119" y="534" on="0"/>
        <pt x="133" y="510" on="0"/>
        <pt x="139" y="499" on="1"/>
        <pt x="157" y="466" on="1"/>
        <pt x="203" y="500" on="0"/>
        <pt x="264" y="500" on="1"/>
        <pt x="294" y="500" on="0"/>
        <pt x="350" y="482" on="0"/>
        <pt x="373" y="465" on="1"/>
        <pt x="390" y="496" on="1"/>
        <pt x="406" y="524" on="0"/>
        <pt x="438" y="564" on="0"/>
        <pt x="461" y="564" on="1"/>
        <pt x="478" y="564" on="0"/>
        <pt x="503" y="540" on="0"/>
        <pt x="503" y="522" on="1"/>
        <pt x="503" y="509" on="0"/>
        <pt x="490" y="489" on="0"/>
        <pt x="471" y="472" on="0"/>
        <pt x="447" y="458" on="0"/>
        <pt x="436" y="452" on="1"/>
        <pt x="404" y="435" on="1"/>
        <pt x="421" y="413" on="0"/>
        <pt x="439" y="359" on="0"/>
        <pt x="439" y="327" on="1"/>
        <pt x="439" y="295" on="0"/>
        <pt x="419" y="240" on="0"/>
        <pt x="402" y="218" on="1"/>
      </contour>
    </TTGlyph>
    <TTGlyph name="d" xMin="35" yMin="-15" xMax="569" yMax="720">
      <contour>
        <pt x="375" y="388" on="1"/>
        <pt x="354" y="403" on="0"/>
        <pt x="313" y="421" on="0"/>
        <pt x="292" y="421" on="1"/>
        <pt x="270" y="421" on="0"/>
        <pt x="230" y="399" on="0"/>
        <pt x="199" y="355" on="0"/>
        <pt x="180" y="288" on="0"/>
        <pt x="180" y="242" on="1"/>
        <pt x="180" y="151" on="0"/>
        <pt x="241" y="63" on="0"/>
        <pt x="286" y="63" on="1"/>
        <pt x="308" y="63" on="0"/>
        <pt x="353" y="82" on="0"/>
        <pt x="375" y="97" on="1"/>
      </contour>
      <contour>
        <pt x="569" y="44" on="1"/>
        <pt x="569" y="0" on="1"/>
        <pt x="387" y="-10" on="1"/>
        <pt x="379" y="49" on="1"/>
        <pt x="349" y="18" on="0"/>
        <pt x="279" y="-15" on="0"/>
        <pt x="233" y="-15" on="1"/>
        <pt x="191" y="-15" on="0"/>
        <pt x="118" y="17" on="0"/>
        <pt x="65" y="81" on="0"/>
        <pt x="35" y="176" on="0"/>
        <pt x="35" y="239" on="1"/>
        <pt x="35" y="299" on="0"/>
        <pt x="68" y="395" on="0"/>
        <pt x="126" y="462" on="0"/>
        <pt x="203" y="498" on="0"/>
        <pt x="248" y="498" on="1"/>
        <pt x="290" y="498" on="0"/>
        <pt x="354" y="470" on="0"/>
        <pt x="380" y="444" on="1"/>
        <pt x="380" y="625" on="1"/>
        <pt x="300" y="635" on="1"/>
        <pt x="300" y="675" on="1"/>
        <pt x="501" y="720" on="1"/>
        <pt x="515" y="712" on="1"/>
        <pt x="511" y="570" on="1"/>
        <pt x="511" y="56" on="1"/>
      </contour>
    </TTGlyph>
    <TTGlyph name="d.sups" xMin="24" yMin="405" xMax="390" yMax="887">
      <contour>
        <pt x="256" y="671" on="1"/>
        <pt x="242" y="680" on="0"/>
        <pt x="216" y="690" on="0"/>
        <pt x="202" y="690" on="1"/>
        <pt x="188" y="690" on="0"/>
        <pt x="161" y="678" on="0"/>
        <pt x="139" y="650" on="0"/>
        <pt x="126" y="606" on="0"/>
        <pt x="126" y="573" on="1"/>
        <pt x="126" y="508" on="0"/>
        <pt x="165" y="455" on="0"/>
        <pt x="196" y="455" on="1"/>
        <pt x="225" y="455" on="0"/>
        <pt x="256" y="475" on="1"/>
      </contour>
      <contour>
        <pt x="390" y="446" on="1"/>
        <pt x="390" y="415" on="1"/>
        <pt x="263" y="408" on="1"/>
        <pt x="259" y="442" on="1"/>
        <pt x="217" y="405" on="0"/>
        <pt x="168" y="405" on="1"/>
        <pt x="143" y="405" on="0"/>
        <pt x="92" y="423" on="0"/>
        <pt x="50" y="463" on="0"/>
        <pt x="24" y="526" on="0"/>
        <pt x="24" y="571" on="1"/>
        <pt x="24" y="614" on="0"/>
        <pt x="50" y="677" on="0"/>
        <pt x="92" y="719" on="0"/>
        <pt x="145" y="740" on="0"/>
        <pt x="171" y="740" on="1"/>
        <pt x="193" y="740" on="0"/>
        <pt x="236" y="726" on="0"/>
        <pt x="256" y="711" on="1"/>
        <pt x="256" y="822" on="1"/>
        <pt x="205" y="829" on="1"/>
        <pt x="205" y="857" on="1"/>
        <pt x="343" y="887" on="1"/>
        <pt x="353" y="882" on="1"/>
        <pt x="353" y="453" on="1"/>
      </contour>
    </TTGlyph>
    <TTGlyph name="dagger" xMin="30" yMin="-95" xMax="508" yMax="732">
      <contour>
        <pt x="341" y="521" on="1"/>
        <pt x="366" y="530" on="0"/>
        <pt x="413" y="548" on="0"/>
        <pt x="442" y="548" on="1"/>
        <pt x="477" y="548" on="0"/>
        <pt x="508" y="515" on="0"/>
        <pt x="508" y="485" on="1"/>
        <pt x="508" y="455" on="0"/>
        <pt x="477" y="422" on="0"/>
        <pt x="442" y="422" on="1"/>
        <pt x="413" y="422" on="0"/>
        <pt x="367" y="440" on="0"/>
        <pt x="341" y="449" on="1"/>
        <pt x="289" y="468" on="1"/>
        <pt x="299" y="438" on="0"/>
        <pt x="315" y="392" on="0"/>
        <pt x="325" y="352" on="0"/>
        <pt x="331" y="315" on="0"/>
        <pt x="331" y="293" on="1"/>
        <pt x="331" y="268" on="0"/>
        <pt x="325" y="201" on="0"/>
        <pt x="314" y="108" on="0"/>
        <pt x="298" y="-15" on="0"/>
        <pt x="287" y="-95" on="1"/>
        <pt x="251" y="-95" on="1"/>
        <pt x="240" y="-15" on="0"/>
        <pt x="224" y="108" on="0"/>
        <pt x="213" y="201" on="0"/>
        <pt x="207" y="268" on="0"/>
        <pt x="207" y="293" on="1"/>
        <pt x="207" y="314" on="0"/>
        <pt x="213" y="352" on="0"/>
        <pt x="223" y="391" on="0"/>
        <pt x="239" y="438" on="0"/>
        <pt x="249" y="468" on="1"/>
        <pt x="197" y="449" on="1"/>
        <pt x="171" y="440" on="0"/>
        <pt x="125" y="422" on="0"/>
        <pt x="96" y="422" on="1"/>
        <pt x="61" y="422" on="0"/>
        <pt x="30" y="455" on="0"/>
        <pt x="30" y="485" on="1"/>
        <pt x="30" y="515" on="0"/>
        <pt x="61" y="548" on="0"/>
        <pt x="96" y="548" on="1"/>
        <pt x="125" y="548" on="0"/>
        <pt x="172" y="530" on="0"/>
        <pt x="197" y="521" on="1"/>
        <pt x="246" y="503" on="1"/>
        <pt x="230" y="557" on="1"/>
        <pt x="224" y="577" on="0"/>
        <pt x="206" y="637" on="0"/>
        <pt x="206" y="668" on="1"/>
        <pt x="206" y="702" on="0"/>
        <pt x="239" y="732" on="0"/>
        <pt x="269" y="732" on="1"/>
        <pt x="299" y="732" on="0"/>
        <pt x="332" y="702" on="0"/>
        <pt x="332" y="668" on="1"/>
        <pt x="332" y="637" on="0"/>
        <pt x="314" y="577" on="0"/>
        <pt x="308" y="557" on="1"/>
        <pt x="292" y="503" on="1"/>
      </contour>
    </TTGlyph>
    <TTGlyph name="daggerdbl" xMin="30" yMin="-105" xMax="508" yMax="732">
      <contour>
        <pt x="341" y="178" on="1"/>
        <pt x="367" y="187" on="0"/>
        <pt x="413" y="205" on="0"/>
        <pt x="442" y="205" on="1"/>
        <pt x="477" y="205" on="0"/>
        <pt x="508" y="172" on="0"/>
        <pt x="508" y="142" on="1"/>
        <pt x="508" y="112" on="0"/>
        <pt x="477" y="79" on="0"/>
        <pt x="442" y="79" on="1"/>
        <pt x="413" y="79" on="0"/>
        <pt x="366" y="97" on="0"/>
        <pt x="341" y="106" on="1"/>
        <pt x="292" y="124" on="1"/>
        <pt x="308" y="70" on="1"/>
        <pt x="314" y="50" on="0"/>
        <pt x="332" y="-10" on="0"/>
        <pt x="332" y="-41" on="1"/>
        <pt x="332" y="-75" on="0"/>
        <pt x="299" y="-105" on="0"/>
        <pt x="269" y="-105" on="1"/>
        <pt x="239" y="-105" on="0"/>
        <pt x="206" y="-75" on="0"/>
        <pt x="206" y="-41" on="1"/>
        <pt x="206" y="-10" on="0"/>
        <pt x="224" y="50" on="0"/>
        <pt x="230" y="70" on="1"/>
        <pt x="246" y="124" on="1"/>
        <pt x="197" y="106" on="1"/>
        <pt x="172" y="97" on="0"/>
        <pt x="125" y="79" on="0"/>
        <pt x="96" y="79" on="1"/>
        <pt x="61" y="79" on="0"/>
        <pt x="30" y="112" on="0"/>
        <pt x="30" y="142" on="1"/>
        <pt x="30" y="172" on="0"/>
        <pt x="61" y="205" on="0"/>
        <pt x="96" y="205" on="1"/>
        <pt x="125" y="205" on="0"/>
        <pt x="171" y="187" on="0"/>
        <pt x="197" y="178" on="1"/>
        <pt x="249" y="159" on="1"/>
        <pt x="239" y="187" on="0"/>
        <pt x="224" y="229" on="0"/>
        <pt x="213" y="265" on="0"/>
        <pt x="207" y="299" on="0"/>
        <pt x="207" y="319" on="1"/>
        <pt x="207" y="337" on="0"/>
        <pt x="213" y="369" on="0"/>
        <pt x="225" y="402" on="0"/>
        <pt x="240" y="442" on="0"/>
        <pt x="249" y="468" on="1"/>
        <pt x="197" y="449" on="1"/>
        <pt x="171" y="440" on="0"/>
        <pt x="125" y="422" on="0"/>
        <pt x="96" y="422" on="1"/>
        <pt x="61" y="422" on="0"/>
        <pt x="30" y="455" on="0"/>
        <pt x="30" y="485" on="1"/>
        <pt x="30" y="515" on="0"/>
        <pt x="61" y="548" on="0"/>
        <pt x="96" y="548" on="1"/>
        <pt x="125" y="548" on="0"/>
        <pt x="172" y="530" on="0"/>
        <pt x="197" y="521" on="1"/>
        <pt x="246" y="503" on="1"/>
        <pt x="230" y="557" on="1"/>
        <pt x="224" y="577" on="0"/>
        <pt x="206" y="637" on="0"/>
        <pt x="206" y="668" on="1"/>
        <pt x="206" y="702" on="0"/>
        <pt x="239" y="732" on="0"/>
        <pt x="269" y="732" on="1"/>
        <pt x="299" y="732" on="0"/>
        <pt x="332" y="702" on="0"/>
        <pt x="332" y="668" on="1"/>
        <pt x="332" y="637" on="0"/>
        <pt x="314" y="577" on="0"/>
        <pt x="308" y="557" on="1"/>
        <pt x="292" y="503" on="1"/>
        <pt x="341" y="521" on="1"/>
        <pt x="366" y="530" on="0"/>
        <pt x="413" y="548" on="0"/>
        <pt x="442" y="548" on="1"/>
        <pt x="477" y="548" on="0"/>
        <pt x="508" y="515" on="0"/>
        <pt x="508" y="485" on="1"/>
        <pt x="508" y="455" on="0"/>
        <pt x="477" y="422" on="0"/>
        <pt x="442" y="422" on="1"/>
        <pt x="413" y="422" on="0"/>
        <pt x="367" y="440" on="0"/>
        <pt x="341" y="449" on="1"/>
        <pt x="289" y="468" on="1"/>
        <pt x="298" y="442" on="0"/>
        <pt x="313" y="403" on="0"/>
        <pt x="325" y="369" on="0"/>
        <pt x="331" y="338" on="0"/>
        <pt x="331" y="319" on="1"/>
        <pt x="331" y="299" on="0"/>
        <pt x="325" y="265" on="0"/>
        <pt x="314" y="229" on="0"/>
        <pt x="299" y="187" on="0"/>
        <pt x="289" y="159" on="1"/>
      </contour>
    </TTGlyph>
    <TTGlyph name="dcaron" xMin="35" yMin="-15" xMax="685" yMax="735">
      <component glyphName="d" x="0" y="0" flags="0x4"/>
      <component glyphName="caron.alt" x="592" y="0" flags="0x4"/>
    </TTGlyph>
    <TTGlyph name="dcroat" xMin="35" yMin="-15" xMax="569" yMax="720">
      <contour>
        <pt x="375" y="370" on="1"/>
        <pt x="354" y="385" on="0"/>
        <pt x="312" y="403" on="0"/>
        <pt x="291" y="403" on="1"/>
        <pt x="270" y="403" on="0"/>
        <pt x="230" y="382" on="0"/>
        <pt x="199" y="340" on="0"/>
        <pt x="180" y="276" on="0"/>
        <pt x="180" y="233" on="1"/>
        <pt x="180" y="147" on="0"/>
        <pt x="240" y="63" on="0"/>
        <pt x="285" y="63" on="1"/>
        <pt x="307" y="63" on="0"/>
        <pt x="352" y="82" on="0"/>
        <pt x="375" y="98" on="1"/>
      </contour>
      <contour>
        <pt x="511" y="531" on="1"/>
        <pt x="511" y="56" on="1"/>
        <pt x="569" y="44" on="1"/>
        <pt x="569" y="0" on="1"/>
        <pt x="385" y="-10" on="1"/>
        <pt x="379" y="49" on="1"/>
        <pt x="348" y="18" on="0"/>
        <pt x="279" y="-15" on="0"/>
        <pt x="233" y="-15" on="1"/>
        <pt x="191" y="-15" on="0"/>
        <pt x="118" y="16" on="0"/>
        <pt x="65" y="77" on="0"/>
        <pt x="35" y="169" on="0"/>
        <pt x="35" y="230" on="1"/>
        <pt x="35" y="288" on="0"/>
        <pt x="68" y="381" on="0"/>
        <pt x="126" y="446" on="0"/>
        <pt x="203" y="480" on="0"/>
        <pt x="248" y="480" on="1"/>
        <pt x="290" y="480" on="0"/>
        <pt x="354" y="452" on="0"/>
        <pt x="380" y="426" on="1"/>
        <pt x="380" y="531" on="1"/>
        <pt x="194" y="531" on="1"/>
        <pt x="194" y="586" on="1"/>
        <pt x="380" y="586" on="1"/>
        <pt x="380" y="625" on="1"/>
        <pt x="300" y="635" on="1"/>
        <pt x="300" y="675" on="1"/>
        <pt x="501" y="720" on="1"/>
        <pt x="515" y="712" on="1"/>
        <pt x="511" y="586" on="1"/>
        <pt x="569" y="586" on="1"/>
        <pt x="569" y="531" on="1"/>
      </contour>
    </TTGlyph>
    <TTGlyph name="degree" xMin="35" yMin="386" xMax="321" yMax="670">
      <contour>
        <pt x="178" y="434" on="1"/>
        <pt x="215" y="434" on="0"/>
        <pt x="262" y="485" on="0"/>
        <pt x="262" y="527" on="1"/>
        <pt x="262" y="570" on="0"/>
        <pt x="215" y="622" on="0"/>
        <pt x="178" y="622" on="1"/>
        <pt x="141" y="622" on="0"/>
        <pt x="94" y="570" on="0"/>
        <pt x="94" y="527" on="1"/>
        <pt x="94" y="485" on="0"/>
        <pt x="141" y="434" on="0"/>
      </contour>
      <contour>
        <pt x="178" y="386" on="1"/>
        <pt x="149" y="386" on="0"/>
        <pt x="97" y="406" on="0"/>
        <pt x="58" y="443" on="0"/>
        <pt x="35" y="495" on="0"/>
        <pt x="35" y="527" on="1"/>
        <pt x="35" y="560" on="0"/>
        <pt x="58" y="613" on="0"/>
        <pt x="97" y="650" on="0"/>
        <pt x="149" y="670" on="0"/>
        <pt x="178" y="670" on="1"/>
        <pt x="207" y="670" on="0"/>
        <pt x="259" y="650" on="0"/>
        <pt x="298" y="613" on="0"/>
        <pt x="321" y="560" on="0"/>
        <pt x="321" y="527" on="1"/>
        <pt x="321" y="495" on="0"/>
        <pt x="298" y="443" on="0"/>
        <pt x="259" y="406" on="0"/>
        <pt x="207" y="386" on="0"/>
      </contour>
    </TTGlyph>
    <TTGlyph name="dieresis" xMin="17" yMin="581" xMax="383" yMax="711">
      <component glyphName="uni0308" x="200" y="0" flags="0x4"/>
    </TTGlyph>
    <TTGlyph name="dieresiscmb.cap" xMin="-191" yMin="719" xMax="191" yMax="848">
      <contour>
        <pt x="-122" y="719" on="1"/>
        <pt x="-150" y="719" on="0"/>
        <pt x="-191" y="755" on="0"/>
        <pt x="-191" y="783" on="1"/>
        <pt x="-191" y="811" on="0"/>
        <pt x="-150" y="848" on="0"/>
        <pt x="-122" y="848" on="1"/>
        <pt x="-94" y="848" on="0"/>
        <pt x="-54" y="811" on="0"/>
        <pt x="-54" y="783" on="1"/>
        <pt x="-54" y="755" on="0"/>
        <pt x="-94" y="719" on="0"/>
      </contour>
      <contour>
        <pt x="122" y="719" on="1"/>
        <pt x="94" y="719" on="0"/>
        <pt x="54" y="755" on="0"/>
        <pt x="54" y="783" on="1"/>
        <pt x="54" y="811" on="0"/>
        <pt x="94" y="848" on="0"/>
        <pt x="122" y="848" on="1"/>
        <pt x="150" y="848" on="0"/>
        <pt x="191" y="811" on="0"/>
        <pt x="191" y="783" on="1"/>
        <pt x="191" y="755" on="0"/>
        <pt x="150" y="719" on="0"/>
      </contour>
    </TTGlyph>
    <TTGlyph name="divide" xMin="30" yMin="61" xMax="500" yMax="599">
      <contour>
        <pt x="265" y="61" on="1"/>
        <pt x="235" y="61" on="0"/>
        <pt x="193" y="100" on="0"/>
        <pt x="193" y="130" on="1"/>
        <pt x="193" y="160" on="0"/>
        <pt x="235" y="199" on="0"/>
        <pt x="265" y="199" on="1"/>
        <pt x="295" y="199" on="0"/>
        <pt x="337" y="160" on="0"/>
        <pt x="337" y="130" on="1"/>
        <pt x="337" y="100" on="0"/>
        <pt x="295" y="61" on="0"/>
      </contour>
      <contour>
        <pt x="265" y="461" on="1"/>
        <pt x="235" y="461" on="0"/>
        <pt x="193" y="500" on="0"/>
        <pt x="193" y="530" on="1"/>
        <pt x="193" y="560" on="0"/>
        <pt x="235" y="599" on="0"/>
        <pt x="265" y="599" on="1"/>
        <pt x="295" y="599" on="0"/>
        <pt x="337" y="560" on="0"/>
        <pt x="337" y="530" on="1"/>
        <pt x="337" y="500" on="0"/>
        <pt x="295" y="461" on="0"/>
      </contour>
      <contour>
        <pt x="30" y="285" on="1"/>
        <pt x="30" y="365" on="1"/>
        <pt x="500" y="365" on="1"/>
        <pt x="500" y="285" on="1"/>
      </contour>
    </TTGlyph>
    <TTGlyph name="dollar" xMin="44" yMin="-115" xMax="483" yMax="740">
      <contour>
        <pt x="291" y="39" on="1"/>
        <pt x="328" y="47" on="0"/>
        <pt x="367" y="100" on="0"/>
        <pt x="367" y="138" on="1"/>
        <pt x="367" y="182" on="0"/>
        <pt x="331" y="229" on="0"/>
        <pt x="291" y="246" on="1"/>
      </contour>
      <contour>
        <pt x="233" y="599" on="1"/>
        <pt x="202" y="591" on="0"/>
        <pt x="160" y="543" on="0"/>
        <pt x="160" y="501" on="1"/>
        <pt x="160" y="463" on="0"/>
        <pt x="198" y="419" on="0"/>
        <pt x="233" y="404" on="1"/>
      </contour>
      <contour>
        <pt x="299" y="380" on="1"/>
        <pt x="352" y="362" on="0"/>
        <pt x="423" y="321" on="0"/>
        <pt x="465" y="272" on="0"/>
        <pt x="483" y="213" on="0"/>
        <pt x="483" y="176" on="1"/>
        <pt x="483" y="101" on="0"/>
        <pt x="388" y="-2" on="0"/>
        <pt x="291" y="-13" on="1"/>
        <pt x="291" y="-115" on="1"/>
        <pt x="236" y="-115" on="1"/>
        <pt x="236" y="-15" on="1"/>
        <pt x="146" y="-12" on="0"/>
        <pt x="44" y="64" on="0"/>
        <pt x="44" y="128" on="1"/>
        <pt x="53" y="152" on="0"/>
        <pt x="87" y="170" on="0"/>
        <pt x="105" y="170" on="1"/>
        <pt x="129" y="170" on="0"/>
        <pt x="163" y="141" on="0"/>
        <pt x="166" y="104" on="1"/>
        <pt x="172" y="42" on="1"/>
        <pt x="186" y="38" on="0"/>
        <pt x="217" y="36" on="0"/>
        <pt x="236" y="35" on="1"/>
        <pt x="236" y="267" on="1"/>
        <pt x="219" y="273" on="1"/>
        <pt x="178" y="287" on="0"/>
        <pt x="115" y="322" on="0"/>
        <pt x="71" y="369" on="0"/>
        <pt x="48" y="431" on="0"/>
        <pt x="48" y="472" on="1"/>
        <pt x="48" y="505" on="0"/>
        <pt x="73" y="566" on="0"/>
        <pt x="120" y="614" on="0"/>
        <pt x="189" y="646" on="0"/>
        <pt x="233" y="651" on="1"/>
        <pt x="233" y="740" on="1"/>
        <pt x="288" y="740" on="1"/>
        <pt x="288" y="653" on="1"/>
        <pt x="450" y="644" on="0"/>
        <pt x="462" y="512" on="1"/>
        <pt x="454" y="486" on="0"/>
        <pt x="421" y="468" on="0"/>
        <pt x="404" y="468" on="1"/>
        <pt x="394" y="468" on="0"/>
        <pt x="372" y="474" on="0"/>
        <pt x="354" y="491" on="0"/>
        <pt x="341" y="522" on="0"/>
        <pt x="339" y="546" on="1"/>
        <pt x="335" y="598" on="1"/>
        <pt x="323" y="600" on="0"/>
        <pt x="300" y="602" on="0"/>
        <pt x="288" y="603" on="1"/>
        <pt x="288" y="384" on="1"/>
      </contour>
    </TTGlyph>
    <TTGlyph name="dotaccent" xMin="117" yMin="581" xMax="283" yMax="740">
      <component glyphName="uni0307" x="200" y="0" flags="0x4"/>
    </TTGlyph>
    <TTGlyph name="dotaccentcmb.cap" xMin="-80" yMin="716" xMax="80" yMax="867">
      <contour>
        <pt x="0" y="716" on="1"/>
        <pt x="-33" y="716" on="0"/>
        <pt x="-80" y="759" on="0"/>
        <pt x="-80" y="792" on="1"/>
        <pt x="-80" y="826" on="0"/>
        <pt x="-33" y="867" on="0"/>
        <pt x="0" y="867" on="1"/>
        <pt x="33" y="867" on="0"/>
        <pt x="80" y="826" on="0"/>
        <pt x="80" y="792" on="1"/>
        <pt x="80" y="759" on="0"/>
        <pt x="33" y="716" on="0"/>
      </contour>
    </TTGlyph>
    <TTGlyph name="dotlessi" xMin="30" yMin="0" xMax="294" yMax="498">
      <contour>
        <pt x="294" y="44" on="1"/>
        <pt x="294" y="0" on="1"/>
        <pt x="38" y="0" on="1"/>
        <pt x="38" y="44" on="1"/>
        <pt x="99" y="56" on="1"/>
        <pt x="100" y="94" on="0"/>
        <pt x="100" y="178" on="0"/>
        <pt x="100" y="210" on="1"/>
        <pt x="100" y="260" on="1"/>
        <pt x="100" y="301" on="0"/>
        <pt x="98" y="356" on="0"/>
        <pt x="97" y="386" on="1"/>
        <pt x="30" y="395" on="1"/>
        <pt x="30" y="433" on="1"/>
        <pt x="224" y="498" on="1"/>
        <pt x="239" y="488" on="1"/>
        <pt x="236" y="345" on="1"/>
        <pt x="236" y="210" on="1"/>
        <pt x="236" y="178" on="0"/>
        <pt x="236" y="93" on="0"/>
        <pt x="237" y="56" on="1"/>
      </contour>
    </TTGlyph>
    <TTGlyph name="e" xMin="35" yMin="-15" xMax="493" yMax="498">
      <contour>
        <pt x="301" y="285" on="1"/>
        <pt x="337" y="285" on="0"/>
        <pt x="364" y="315" on="0"/>
        <pt x="364" y="347" on="1"/>
        <pt x="364" y="395" on="0"/>
        <pt x="324" y="448" on="0"/>
        <pt x="292" y="448" on="1"/>
        <pt x="275" y="448" on="0"/>
        <pt x="239" y="432" on="0"/>
        <pt x="208" y="394" on="0"/>
        <pt x="185" y="331" on="0"/>
        <pt x="181" y="285" on="1"/>
      </contour>
      <contour>
        <pt x="180" y="235" on="1"/>
        <pt x="183" y="146" on="0"/>
        <pt x="264" y="63" on="0"/>
        <pt x="325" y="63" on="1"/>
        <pt x="369" y="63" on="0"/>
        <pt x="426" y="102" on="0"/>
        <pt x="449" y="138" on="1"/>
        <pt x="483" y="119" on="1"/>
        <pt x="463" y="53" on="0"/>
        <pt x="353" y="-15" on="0"/>
        <pt x="277" y="-15" on="1"/>
        <pt x="223" y="-15" on="0"/>
        <pt x="133" y="19" on="0"/>
        <pt x="70" y="84" on="0"/>
        <pt x="35" y="179" on="0"/>
        <pt x="35" y="240" on="1"/>
        <pt x="35" y="297" on="0"/>
        <pt x="73" y="391" on="0"/>
        <pt x="140" y="460" on="0"/>
        <pt x="232" y="498" on="0"/>
        <pt x="285" y="498" on="1"/>
        <pt x="333" y="498" on="0"/>
        <pt x="410" y="467" on="0"/>
        <pt x="464" y="411" on="0"/>
        <pt x="493" y="333" on="0"/>
        <pt x="493" y="287" on="1"/>
        <pt x="493" y="259" on="0"/>
        <pt x="487" y="235" on="1"/>
      </contour>
    </TTGlyph>
    <TTGlyph name="e.sups" xMin="23" yMin="405" xMax="338" yMax="740">
      <contour>
        <pt x="205" y="601" on="1"/>
        <pt x="230" y="601" on="0"/>
        <pt x="248" y="620" on="0"/>
        <pt x="248" y="638" on="1"/>
        <pt x="248" y="669" on="0"/>
        <pt x="216" y="705" on="0"/>
        <pt x="196" y="705" on="1"/>
        <pt x="186" y="705" on="0"/>
        <pt x="163" y="694" on="0"/>
        <pt x="143" y="670" on="0"/>
        <pt x="128" y="630" on="0"/>
        <pt x="126" y="601" on="1"/>
      </contour>
      <contour>
        <pt x="125" y="568" on="1"/>
        <pt x="127" y="511" on="0"/>
        <pt x="184" y="458" on="0"/>
        <pt x="224" y="458" on="1"/>
        <pt x="251" y="458" on="0"/>
        <pt x="292" y="483" on="0"/>
        <pt x="308" y="506" on="1"/>
        <pt x="331" y="494" on="1"/>
        <pt x="317" y="450" on="0"/>
        <pt x="242" y="405" on="0"/>
        <pt x="190" y="405" on="1"/>
        <pt x="115" y="405" on="0"/>
        <pt x="23" y="492" on="0"/>
        <pt x="23" y="572" on="1"/>
        <pt x="23" y="609" on="0"/>
        <pt x="49" y="670" on="0"/>
        <pt x="95" y="715" on="0"/>
        <pt x="158" y="740" on="0"/>
        <pt x="195" y="740" on="1"/>
        <pt x="262" y="740" on="0"/>
        <pt x="338" y="665" on="0"/>
        <pt x="338" y="604" on="1"/>
        <pt x="338" y="583" on="0"/>
        <pt x="334" y="568" on="1"/>
      </contour>
    </TTGlyph>
    <TTGlyph name="eacute" xMin="35" yMin="-15" xMax="493" yMax="763">
      <component glyphName="e" x="0" y="0" flags="0x204"/>
      <component glyphName="uni0301" x="311" y="0" flags="0x4"/>
    </TTGlyph>
    <TTGlyph name="eacute.sups" xMin="23" yMin="405" xMax="338" yMax="908">
      <contour>
        <pt x="164" y="768" on="1"/>
        <pt x="143" y="784" on="1"/>
        <pt x="184" y="851" on="1"/>
        <pt x="206" y="886" on="0"/>
        <pt x="234" y="908" on="0"/>
        <pt x="247" y="908" on="1"/>
        <pt x="259" y="908" on="0"/>
        <pt x="280" y="894" on="0"/>
        <pt x="280" y="879" on="1"/>
        <pt x="280" y="867" on="0"/>
        <pt x="259" y="840" on="0"/>
        <pt x="227" y="816" on="1"/>
      </contour>
      <contour>
        <pt x="205" y="601" on="1"/>
        <pt x="230" y="601" on="0"/>
        <pt x="248" y="620" on="0"/>
        <pt x="248" y="638" on="1"/>
        <pt x="248" y="669" on="0"/>
        <pt x="216" y="705" on="0"/>
        <pt x="196" y="705" on="1"/>
        <pt x="186" y="705" on="0"/>
        <pt x="163" y="694" on="0"/>
        <pt x="143" y="670" on="0"/>
        <pt x="128" y="630" on="0"/>
        <pt x="126" y="601" on="1"/>
      </contour>
      <contour>
        <pt x="125" y="568" on="1"/>
        <pt x="127" y="511" on="0"/>
        <pt x="184" y="458" on="0"/>
        <pt x="224" y="458" on="1"/>
        <pt x="251" y="458" on="0"/>
        <pt x="292" y="483" on="0"/>
        <pt x="308" y="506" on="1"/>
        <pt x="331" y="494" on="1"/>
        <pt x="317" y="450" on="0"/>
        <pt x="242" y="405" on="0"/>
        <pt x="190" y="405" on="1"/>
        <pt x="115" y="405" on="0"/>
        <pt x="23" y="492" on="0"/>
        <pt x="23" y="572" on="1"/>
        <pt x="23" y="609" on="0"/>
        <pt x="49" y="670" on="0"/>
        <pt x="95" y="715" on="0"/>
        <pt x="158" y="740" on="0"/>
        <pt x="195" y="740" on="1"/>
        <pt x="262" y="740" on="0"/>
        <pt x="338" y="665" on="0"/>
        <pt x="338" y="604" on="1"/>
        <pt x="338" y="583" on="0"/>
        <pt x="334" y="568" on="1"/>
      </contour>
    </TTGlyph>
    <TTGlyph name="ecaron" xMin="35" yMin="-15" xMax="493" yMax="760">
      <component glyphName="e" x="0" y="0" flags="0x204"/>
      <component glyphName="uni030C" x="290" y="0" flags="0x4"/>
    </TTGlyph>
    <TTGlyph name="ecircumflex" xMin="35" yMin="-15" xMax="493" yMax="753">
      <component glyphName="e" x="0" y="0" flags="0x204"/>
      <component glyphName="uni0302" x="285" y="0" flags="0x4"/>
    </TTGlyph>
    <TTGlyph name="edieresis" xMin="35" yMin="-15" xMax="493" yMax="711">
      <component glyphName="e" x="0" y="0" flags="0x204"/>
      <component glyphName="uni0308" x="281" y="0" flags="0x4"/>
    </TTGlyph>
    <TTGlyph name="edotaccent" xMin="35" yMin="-15" xMax="493" yMax="740">
      <component glyphName="e" x="0" y="0" flags="0x204"/>
      <component glyphName="uni0307" x="286" y="0" flags="0x4"/>
    </TTGlyph>
    <TTGlyph name="egrave" xMin="35" yMin="-15" xMax="493" yMax="763">
      <component glyphName="e" x="0" y="0" flags="0x204"/>
      <component glyphName="uni0300" x="260" y="0" flags="0x4"/>
    </TTGlyph>
    <TTGlyph name="egrave.sups" xMin="23" yMin="405" xMax="338" yMax="908">
      <contour>
        <pt x="163" y="816" on="1"/>
        <pt x="131" y="840" on="0"/>
        <pt x="110" y="867" on="0"/>
        <pt x="110" y="879" on="1"/>
        <pt x="110" y="894" on="0"/>
        <pt x="131" y="908" on="0"/>
        <pt x="143" y="908" on="1"/>
        <pt x="156" y="908" on="0"/>
        <pt x="184" y="886" on="0"/>
        <pt x="206" y="851" on="1"/>
        <pt x="247" y="784" on="1"/>
        <pt x="226" y="768" on="1"/>
      </contour>
      <contour>
        <pt x="205" y="601" on="1"/>
        <pt x="230" y="601" on="0"/>
        <pt x="248" y="620" on="0"/>
        <pt x="248" y="638" on="1"/>
        <pt x="248" y="669" on="0"/>
        <pt x="216" y="705" on="0"/>
        <pt x="196" y="705" on="1"/>
        <pt x="186" y="705" on="0"/>
        <pt x="163" y="694" on="0"/>
        <pt x="143" y="670" on="0"/>
        <pt x="128" y="630" on="0"/>
        <pt x="126" y="601" on="1"/>
      </contour>
      <contour>
        <pt x="125" y="568" on="1"/>
        <pt x="127" y="511" on="0"/>
        <pt x="184" y="458" on="0"/>
        <pt x="224" y="458" on="1"/>
        <pt x="251" y="458" on="0"/>
        <pt x="292" y="483" on="0"/>
        <pt x="308" y="506" on="1"/>
        <pt x="331" y="494" on="1"/>
        <pt x="317" y="450" on="0"/>
        <pt x="242" y="405" on="0"/>
        <pt x="190" y="405" on="1"/>
        <pt x="115" y="405" on="0"/>
        <pt x="23" y="492" on="0"/>
        <pt x="23" y="572" on="1"/>
        <pt x="23" y="609" on="0"/>
        <pt x="49" y="670" on="0"/>
        <pt x="95" y="715" on="0"/>
        <pt x="158" y="740" on="0"/>
        <pt x="195" y="740" on="1"/>
        <pt x="262" y="740" on="0"/>
        <pt x="338" y="665" on="0"/>
        <pt x="338" y="604" on="1"/>
        <pt x="338" y="583" on="0"/>
        <pt x="334" y="568" on="1"/>
      </contour>
    </TTGlyph>
    <TTGlyph name="eight" xMin="40" yMin="-15" xMax="488" yMax="653">
      <contour>
        <pt x="262" y="35" on="1"/>
        <pt x="289" y="35" on="0"/>
        <pt x="328" y="52" on="0"/>
        <pt x="355" y="82" on="0"/>
        <pt x="368" y="121" on="0"/>
        <pt x="368" y="142" on="1"/>
        <pt x="368" y="163" on="0"/>
        <pt x="354" y="196" on="0"/>
        <pt x="319" y="228" on="0"/>
        <pt x="260" y="263" on="0"/>
        <pt x="215" y="284" on="1"/>
        <pt x="182" y="259" on="0"/>
        <pt x="152" y="195" on="0"/>
        <pt x="152" y="148" on="1"/>
        <pt x="152" y="93" on="0"/>
        <pt x="216" y="35" on="0"/>
      </contour>
      <contour>
        <pt x="270" y="603" on="1"/>
        <pt x="232" y="603" on="0"/>
        <pt x="178" y="555" on="0"/>
        <pt x="178" y="511" on="1"/>
        <pt x="178" y="494" on="0"/>
        <pt x="188" y="463" on="0"/>
        <pt x="216" y="431" on="0"/>
        <pt x="263" y="398" on="0"/>
        <pt x="301" y="380" on="1"/>
        <pt x="332" y="409" on="0"/>
        <pt x="356" y="468" on="0"/>
        <pt x="356" y="500" on="1"/>
        <pt x="356" y="549" on="0"/>
        <pt x="310" y="603" on="0"/>
      </contour>
      <contour>
        <pt x="353" y="353" on="1"/>
        <pt x="420" y="316" on="0"/>
        <pt x="488" y="231" on="0"/>
        <pt x="488" y="173" on="1"/>
        <pt x="488" y="85" on="0"/>
        <pt x="367" y="-15" on="0"/>
        <pt x="262" y="-15" on="1"/>
        <pt x="213" y="-15" on="0"/>
        <pt x="131" y="5" on="0"/>
        <pt x="73" y="45" on="0"/>
        <pt x="40" y="104" on="0"/>
        <pt x="40" y="142" on="1"/>
        <pt x="40" y="201" on="0"/>
        <pt x="108" y="281" on="0"/>
        <pt x="168" y="310" on="1"/>
        <pt x="117" y="344" on="0"/>
        <pt x="67" y="429" on="0"/>
        <pt x="67" y="477" on="1"/>
        <pt x="67" y="520" on="0"/>
        <pt x="101" y="585" on="0"/>
        <pt x="158" y="630" on="0"/>
        <pt x="232" y="653" on="0"/>
        <pt x="273" y="653" on="1"/>
        <pt x="314" y="653" on="0"/>
        <pt x="382" y="630" on="0"/>
        <pt x="431" y="589" on="0"/>
        <pt x="458" y="534" on="0"/>
        <pt x="458" y="503" on="1"/>
        <pt x="458" y="464" on="0"/>
        <pt x="413" y="391" on="0"/>
      </contour>
    </TTGlyph>
    <TTGlyph name="eight.dnom" xMin="37" yMin="-8" xMax="333" yMax="401">
      <component glyphName="eight.sups" x="0" y="-414" flags="0x204"/>
    </TTGlyph>
    <TTGlyph name="eight.lf" xMin="30" yMin="-15" xMax="478" yMax="653">
      <contour>
        <pt x="252" y="35" on="1"/>
        <pt x="279" y="35" on="0"/>
        <pt x="318" y="52" on="0"/>
        <pt x="345" y="82" on="0"/>
        <pt x="358" y="121" on="0"/>
        <pt x="358" y="142" on="1"/>
        <pt x="358" y="163" on="0"/>
        <pt x="344" y="196" on="0"/>
        <pt x="309" y="228" on="0"/>
        <pt x="250" y="263" on="0"/>
        <pt x="205" y="284" on="1"/>
        <pt x="172" y="259" on="0"/>
        <pt x="142" y="195" on="0"/>
        <pt x="142" y="148" on="1"/>
        <pt x="142" y="93" on="0"/>
        <pt x="206" y="35" on="0"/>
      </contour>
      <contour>
        <pt x="260" y="603" on="1"/>
        <pt x="222" y="603" on="0"/>
        <pt x="168" y="555" on="0"/>
        <pt x="168" y="511" on="1"/>
        <pt x="168" y="494" on="0"/>
        <pt x="178" y="463" on="0"/>
        <pt x="206" y="431" on="0"/>
        <pt x="253" y="398" on="0"/>
        <pt x="291" y="380" on="1"/>
        <pt x="322" y="409" on="0"/>
        <pt x="346" y="468" on="0"/>
        <pt x="346" y="500" on="1"/>
        <pt x="346" y="549" on="0"/>
        <pt x="300" y="603" on="0"/>
      </contour>
      <contour>
        <pt x="343" y="353" on="1"/>
        <pt x="410" y="316" on="0"/>
        <pt x="478" y="231" on="0"/>
        <pt x="478" y="173" on="1"/>
        <pt x="478" y="85" on="0"/>
        <pt x="357" y="-15" on="0"/>
        <pt x="252" y="-15" on="1"/>
        <pt x="203" y="-15" on="0"/>
        <pt x="121" y="5" on="0"/>
        <pt x="63" y="45" on="0"/>
        <pt x="30" y="104" on="0"/>
        <pt x="30" y="142" on="1"/>
        <pt x="30" y="201" on="0"/>
        <pt x="98" y="281" on="0"/>
        <pt x="158" y="310" on="1"/>
        <pt x="107" y="344" on="0"/>
        <pt x="57" y="429" on="0"/>
        <pt x="57" y="477" on="1"/>
        <pt x="57" y="520" on="0"/>
        <pt x="91" y="585" on="0"/>
        <pt x="148" y="630" on="0"/>
        <pt x="222" y="653" on="0"/>
        <pt x="263" y="653" on="1"/>
        <pt x="304" y="653" on="0"/>
        <pt x="372" y="630" on="0"/>
        <pt x="421" y="589" on="0"/>
        <pt x="448" y="534" on="0"/>
        <pt x="448" y="503" on="1"/>
        <pt x="448" y="464" on="0"/>
        <pt x="403" y="391" on="0"/>
      </contour>
    </TTGlyph>
    <TTGlyph name="eight.numr" xMin="37" yMin="251" xMax="333" yMax="660">
      <component glyphName="eight.sups" x="0" y="-155" flags="0x204"/>
    </TTGlyph>
    <TTGlyph name="eight.osf" xMin="30" yMin="-15" xMax="478" yMax="653">
      <contour>
        <pt x="252" y="35" on="1"/>
        <pt x="279" y="35" on="0"/>
        <pt x="318" y="52" on="0"/>
        <pt x="345" y="82" on="0"/>
        <pt x="358" y="121" on="0"/>
        <pt x="358" y="142" on="1"/>
        <pt x="358" y="163" on="0"/>
        <pt x="344" y="196" on="0"/>
        <pt x="309" y="228" on="0"/>
        <pt x="250" y="263" on="0"/>
        <pt x="205" y="284" on="1"/>
        <pt x="172" y="259" on="0"/>
        <pt x="142" y="195" on="0"/>
        <pt x="142" y="148" on="1"/>
        <pt x="142" y="93" on="0"/>
        <pt x="206" y="35" on="0"/>
      </contour>
      <contour>
        <pt x="260" y="603" on="1"/>
        <pt x="222" y="603" on="0"/>
        <pt x="168" y="555" on="0"/>
        <pt x="168" y="511" on="1"/>
        <pt x="168" y="494" on="0"/>
        <pt x="178" y="463" on="0"/>
        <pt x="206" y="431" on="0"/>
        <pt x="253" y="398" on="0"/>
        <pt x="291" y="380" on="1"/>
        <pt x="322" y="409" on="0"/>
        <pt x="346" y="468" on="0"/>
        <pt x="346" y="500" on="1"/>
        <pt x="346" y="549" on="0"/>
        <pt x="300" y="603" on="0"/>
      </contour>
      <contour>
        <pt x="343" y="353" on="1"/>
        <pt x="410" y="316" on="0"/>
        <pt x="478" y="231" on="0"/>
        <pt x="478" y="173" on="1"/>
        <pt x="478" y="85" on="0"/>
        <pt x="357" y="-15" on="0"/>
        <pt x="252" y="-15" on="1"/>
        <pt x="203" y="-15" on="0"/>
        <pt x="121" y="5" on="0"/>
        <pt x="63" y="45" on="0"/>
        <pt x="30" y="104" on="0"/>
        <pt x="30" y="142" on="1"/>
        <pt x="30" y="201" on="0"/>
        <pt x="98" y="281" on="0"/>
        <pt x="158" y="310" on="1"/>
        <pt x="107" y="344" on="0"/>
        <pt x="57" y="429" on="0"/>
        <pt x="57" y="477" on="1"/>
        <pt x="57" y="520" on="0"/>
        <pt x="91" y="585" on="0"/>
        <pt x="148" y="630" on="0"/>
        <pt x="222" y="653" on="0"/>
        <pt x="263" y="653" on="1"/>
        <pt x="304" y="653" on="0"/>
        <pt x="372" y="630" on="0"/>
        <pt x="421" y="589" on="0"/>
        <pt x="448" y="534" on="0"/>
        <pt x="448" y="503" on="1"/>
        <pt x="448" y="464" on="0"/>
        <pt x="403" y="391" on="0"/>
      </contour>
    </TTGlyph>
    <TTGlyph name="eight.subs" xMin="37" yMin="-228" xMax="333" yMax="181">
      <component glyphName="eight.sups" x="0" y="-634" flags="0x204"/>
    </TTGlyph>
    <TTGlyph name="eight.sups" xMin="37" yMin="406" xMax="333" yMax="815">
      <contour>
        <pt x="189" y="441" on="1"/>
        <pt x="217" y="441" on="0"/>
        <pt x="248" y="472" on="0"/>
        <pt x="248" y="498" on="1"/>
        <pt x="248" y="510" on="0"/>
        <pt x="239" y="530" on="0"/>
        <pt x="217" y="549" on="0"/>
        <pt x="179" y="571" on="0"/>
        <pt x="149" y="585" on="1"/>
        <pt x="116" y="559" on="0"/>
        <pt x="116" y="511" on="1"/>
        <pt x="116" y="477" on="0"/>
        <pt x="156" y="441" on="0"/>
      </contour>
      <contour>
        <pt x="187" y="780" on="1"/>
        <pt x="165" y="780" on="0"/>
        <pt x="134" y="755" on="0"/>
        <pt x="134" y="729" on="1"/>
        <pt x="134" y="719" on="0"/>
        <pt x="140" y="702" on="0"/>
        <pt x="157" y="685" on="0"/>
        <pt x="188" y="666" on="0"/>
        <pt x="214" y="654" on="1"/>
        <pt x="229" y="670" on="0"/>
        <pt x="242" y="703" on="0"/>
        <pt x="242" y="722" on="1"/>
        <pt x="242" y="754" on="0"/>
        <pt x="215" y="780" on="0"/>
      </contour>
      <contour>
        <pt x="251" y="636" on="1"/>
        <pt x="289" y="616" on="0"/>
        <pt x="333" y="563" on="0"/>
        <pt x="333" y="528" on="1"/>
        <pt x="333" y="470" on="0"/>
        <pt x="254" y="406" on="0"/>
        <pt x="184" y="406" on="1"/>
        <pt x="118" y="406" on="0"/>
        <pt x="37" y="455" on="0"/>
        <pt x="37" y="500" on="1"/>
        <pt x="37" y="537" on="0"/>
        <pt x="79" y="586" on="0"/>
        <pt x="114" y="603" on="1"/>
        <pt x="87" y="622" on="0"/>
        <pt x="55" y="674" on="0"/>
        <pt x="55" y="703" on="1"/>
        <pt x="55" y="731" on="0"/>
        <pt x="78" y="773" on="0"/>
        <pt x="115" y="801" on="0"/>
        <pt x="165" y="815" on="0"/>
        <pt x="192" y="815" on="1"/>
        <pt x="219" y="815" on="0"/>
        <pt x="263" y="801" on="0"/>
        <pt x="295" y="776" on="0"/>
        <pt x="313" y="744" on="0"/>
        <pt x="313" y="726" on="1"/>
        <pt x="313" y="700" on="0"/>
        <pt x="286" y="658" on="0"/>
      </contour>
    </TTGlyph>
    <TTGlyph name="eight.tosf" xMin="40" yMin="-15" xMax="488" yMax="653">
      <contour>
        <pt x="262" y="35" on="1"/>
        <pt x="289" y="35" on="0"/>
        <pt x="328" y="52" on="0"/>
        <pt x="355" y="82" on="0"/>
        <pt x="368" y="121" on="0"/>
        <pt x="368" y="142" on="1"/>
        <pt x="368" y="163" on="0"/>
        <pt x="354" y="196" on="0"/>
        <pt x="319" y="228" on="0"/>
        <pt x="260" y="263" on="0"/>
        <pt x="215" y="284" on="1"/>
        <pt x="182" y="259" on="0"/>
        <pt x="152" y="195" on="0"/>
        <pt x="152" y="148" on="1"/>
        <pt x="152" y="93" on="0"/>
        <pt x="216" y="35" on="0"/>
      </contour>
      <contour>
        <pt x="270" y="603" on="1"/>
        <pt x="232" y="603" on="0"/>
        <pt x="178" y="555" on="0"/>
        <pt x="178" y="511" on="1"/>
        <pt x="178" y="494" on="0"/>
        <pt x="188" y="463" on="0"/>
        <pt x="216" y="431" on="0"/>
        <pt x="263" y="398" on="0"/>
        <pt x="301" y="380" on="1"/>
        <pt x="332" y="409" on="0"/>
        <pt x="356" y="468" on="0"/>
        <pt x="356" y="500" on="1"/>
        <pt x="356" y="549" on="0"/>
        <pt x="310" y="603" on="0"/>
      </contour>
      <contour>
        <pt x="353" y="353" on="1"/>
        <pt x="420" y="316" on="0"/>
        <pt x="488" y="231" on="0"/>
        <pt x="488" y="173" on="1"/>
        <pt x="488" y="85" on="0"/>
        <pt x="367" y="-15" on="0"/>
        <pt x="262" y="-15" on="1"/>
        <pt x="213" y="-15" on="0"/>
        <pt x="131" y="5" on="0"/>
        <pt x="73" y="45" on="0"/>
        <pt x="40" y="104" on="0"/>
        <pt x="40" y="142" on="1"/>
        <pt x="40" y="201" on="0"/>
        <pt x="108" y="281" on="0"/>
        <pt x="168" y="310" on="1"/>
        <pt x="117" y="344" on="0"/>
        <pt x="67" y="429" on="0"/>
        <pt x="67" y="477" on="1"/>
        <pt x="67" y="520" on="0"/>
        <pt x="101" y="585" on="0"/>
        <pt x="158" y="630" on="0"/>
        <pt x="232" y="653" on="0"/>
        <pt x="273" y="653" on="1"/>
        <pt x="314" y="653" on="0"/>
        <pt x="382" y="630" on="0"/>
        <pt x="431" y="589" on="0"/>
        <pt x="458" y="534" on="0"/>
        <pt x="458" y="503" on="1"/>
        <pt x="458" y="464" on="0"/>
        <pt x="413" y="391" on="0"/>
      </contour>
    </TTGlyph>
    <TTGlyph name="ellipsis" xMin="66" yMin="-15" xMax="894" yMax="154">
      <component glyphName="period" x="0" y="0" flags="0x4"/>
      <component glyphName="period" x="330" y="0" flags="0x4"/>
      <component glyphName="period" x="660" y="0" flags="0x4"/>
    </TTGlyph>
    <TTGlyph name="emacron" xMin="35" yMin="-15" xMax="493" yMax="685">
      <component glyphName="e" x="0" y="0" flags="0x204"/>
      <component glyphName="uni0304" x="286" y="0" flags="0x4"/>
    </TTGlyph>
    <TTGlyph name="emdash" xMin="40" yMin="209" xMax="790" yMax="293">
      <contour>
        <pt x="40" y="293" on="1"/>
        <pt x="790" y="293" on="1"/>
        <pt x="790" y="209" on="1"/>
        <pt x="40" y="209" on="1"/>
      </contour>
    </TTGlyph>
    <TTGlyph name="emdash.cap" xMin="40" yMin="259" xMax="790" yMax="343">
      <component glyphName="emdash" x="0" y="50" flags="0x204"/>
    </TTGlyph>
    <TTGlyph name="emdash.sups" xMin="38" yMin="540" xMax="528" yMax="599">
      <contour>
        <pt x="38" y="599" on="1"/>
        <pt x="528" y="599" on="1"/>
        <pt x="528" y="540" on="1"/>
        <pt x="38" y="540" on="1"/>
      </contour>
    </TTGlyph>
    <TTGlyph name="endash" xMin="40" yMin="209" xMax="490" yMax="293">
      <contour>
        <pt x="40" y="293" on="1"/>
        <pt x="490" y="293" on="1"/>
        <pt x="490" y="209" on="1"/>
        <pt x="40" y="209" on="1"/>
      </contour>
    </TTGlyph>
    <TTGlyph name="endash.cap" xMin="40" yMin="259" xMax="490" yMax="343">
      <component glyphName="endash" x="0" y="50" flags="0x204"/>
    </TTGlyph>
    <TTGlyph name="endash.sups" xMin="38" yMin="540" xMax="333" yMax="599">
      <contour>
        <pt x="38" y="599" on="1"/>
        <pt x="333" y="599" on="1"/>
        <pt x="333" y="540" on="1"/>
        <pt x="38" y="540" on="1"/>
      </contour>
    </TTGlyph>
    <TTGlyph name="eogonek" xMin="35" yMin="-230" xMax="493" yMax="498">
      <contour>
        <pt x="301" y="285" on="1"/>
        <pt x="337" y="285" on="0"/>
        <pt x="364" y="315" on="0"/>
        <pt x="364" y="347" on="1"/>
        <pt x="364" y="395" on="0"/>
        <pt x="323" y="448" on="0"/>
        <pt x="291" y="448" on="1"/>
        <pt x="275" y="448" on="0"/>
        <pt x="239" y="432" on="0"/>
        <pt x="208" y="394" on="0"/>
        <pt x="185" y="331" on="0"/>
        <pt x="181" y="285" on="1"/>
      </contour>
      <contour>
        <pt x="483" y="119" on="1"/>
        <pt x="473" y="90" on="0"/>
        <pt x="440" y="44" on="0"/>
        <pt x="415" y="24" on="1"/>
        <pt x="381" y="-4" on="0"/>
        <pt x="340" y="-54" on="0"/>
        <pt x="340" y="-84" on="1"/>
        <pt x="340" y="-121" on="0"/>
        <pt x="385" y="-155" on="0"/>
        <pt x="414" y="-155" on="1"/>
        <pt x="437" y="-155" on="0"/>
        <pt x="466" y="-147" on="1"/>
        <pt x="480" y="-185" on="1"/>
        <pt x="457" y="-205" on="0"/>
        <pt x="388" y="-230" on="0"/>
        <pt x="356" y="-230" on="1"/>
        <pt x="304" y="-230" on="0"/>
        <pt x="245" y="-176" on="0"/>
        <pt x="245" y="-131" on="1"/>
        <pt x="245" y="-97" on="0"/>
        <pt x="279" y="-37" on="0"/>
        <pt x="306" y="-14" on="1"/>
        <pt x="299" y="-15" on="0"/>
        <pt x="285" y="-15" on="0"/>
        <pt x="277" y="-15" on="1"/>
        <pt x="223" y="-15" on="0"/>
        <pt x="133" y="19" on="0"/>
        <pt x="70" y="84" on="0"/>
        <pt x="35" y="179" on="0"/>
        <pt x="35" y="240" on="1"/>
        <pt x="35" y="297" on="0"/>
        <pt x="73" y="391" on="0"/>
        <pt x="140" y="460" on="0"/>
        <pt x="232" y="498" on="0"/>
        <pt x="285" y="498" on="1"/>
        <pt x="333" y="498" on="0"/>
        <pt x="410" y="467" on="0"/>
        <pt x="464" y="411" on="0"/>
        <pt x="493" y="333" on="0"/>
        <pt x="493" y="287" on="1"/>
        <pt x="493" y="260" on="0"/>
        <pt x="487" y="235" on="1"/>
        <pt x="180" y="235" on="1"/>
        <pt x="183" y="146" on="0"/>
        <pt x="264" y="63" on="0"/>
        <pt x="325" y="63" on="1"/>
        <pt x="369" y="63" on="0"/>
        <pt x="426" y="102" on="0"/>
        <pt x="449" y="138" on="1"/>
      </contour>
    </TTGlyph>
    <TTGlyph name="equal" xMin="30" yMin="184" xMax="500" yMax="467">
      <component glyphName="minus" x="0" y="-101" flags="0x204"/>
      <component glyphName="minus" x="0" y="102" flags="0x4"/>
    </TTGlyph>
    <TTGlyph name="estimated" xMin="46" yMin="-12" xMax="754" yMax="660">
      <contour>
        <pt x="176" y="128" on="1"/>
        <pt x="176" y="122" on="0"/>
        <pt x="181" y="113" on="0"/>
        <pt x="184" y="108" on="1"/>
        <pt x="225" y="61" on="0"/>
        <pt x="337" y="8" on="0"/>
        <pt x="402" y="8" on="1"/>
        <pt x="470" y="8" on="0"/>
        <pt x="588" y="69" on="0"/>
        <pt x="630" y="120" on="1"/>
        <pt x="682" y="120" on="1"/>
        <pt x="632" y="60" on="0"/>
        <pt x="486" y="-12" on="0"/>
        <pt x="400" y="-12" on="1"/>
        <pt x="326" y="-12" on="0"/>
        <pt x="197" y="41" on="0"/>
        <pt x="101" y="132" on="0"/>
        <pt x="46" y="254" on="0"/>
        <pt x="46" y="324" on="1"/>
        <pt x="46" y="394" on="0"/>
        <pt x="101" y="516" on="0"/>
        <pt x="197" y="607" on="0"/>
        <pt x="326" y="660" on="0"/>
        <pt x="400" y="660" on="1"/>
        <pt x="473" y="660" on="0"/>
        <pt x="602" y="607" on="0"/>
        <pt x="698" y="516" on="0"/>
        <pt x="754" y="394" on="0"/>
        <pt x="754" y="324" on="1"/>
        <pt x="754" y="316" on="1"/>
        <pt x="180" y="316" on="1"/>
        <pt x="176" y="316" on="0"/>
        <pt x="176" y="312" on="1"/>
      </contour>
      <contour>
        <pt x="620" y="334" on="1"/>
        <pt x="626" y="334" on="0"/>
        <pt x="626" y="340" on="1"/>
        <pt x="626" y="524" on="1"/>
        <pt x="626" y="536" on="0"/>
        <pt x="616" y="546" on="1"/>
        <pt x="574" y="590" on="0"/>
        <pt x="464" y="640" on="0"/>
        <pt x="402" y="640" on="1"/>
        <pt x="337" y="640" on="0"/>
        <pt x="226" y="587" on="0"/>
        <pt x="184" y="542" on="1"/>
        <pt x="181" y="537" on="0"/>
        <pt x="176" y="526" on="0"/>
        <pt x="176" y="520" on="1"/>
        <pt x="176" y="340" on="1"/>
        <pt x="176" y="334" on="0"/>
        <pt x="180" y="334" on="1"/>
      </contour>
    </TTGlyph>
    <TTGlyph name="eth" xMin="36" yMin="-15" xMax="508" yMax="740">
      <contour>
        <pt x="274" y="35" on="1"/>
        <pt x="321" y="35" on="0"/>
        <pt x="372" y="135" on="0"/>
        <pt x="372" y="235" on="1"/>
        <pt x="372" y="332" on="0"/>
        <pt x="321" y="430" on="0"/>
        <pt x="274" y="430" on="1"/>
        <pt x="227" y="430" on="0"/>
        <pt x="176" y="331" on="0"/>
        <pt x="176" y="231" on="1"/>
        <pt x="176" y="134" on="0"/>
        <pt x="227" y="35" on="0"/>
      </contour>
      <contour>
        <pt x="360" y="615" on="1"/>
        <pt x="429" y="551" on="0"/>
        <pt x="508" y="381" on="0"/>
        <pt x="508" y="278" on="1"/>
        <pt x="508" y="202" on="0"/>
        <pt x="469" y="92" on="0"/>
        <pt x="402" y="20" on="0"/>
        <pt x="313" y="-15" on="0"/>
        <pt x="264" y="-15" on="1"/>
        <pt x="221" y="-15" on="0"/>
        <pt x="139" y="16" on="0"/>
        <pt x="75" y="76" on="0"/>
        <pt x="36" y="167" on="0"/>
        <pt x="36" y="227" on="1"/>
        <pt x="36" y="289" on="0"/>
        <pt x="75" y="383" on="0"/>
        <pt x="139" y="447" on="0"/>
        <pt x="221" y="480" on="0"/>
        <pt x="263" y="480" on="1"/>
        <pt x="314" y="480" on="0"/>
        <pt x="349" y="455" on="1"/>
        <pt x="322" y="527" on="0"/>
        <pt x="282" y="575" on="1"/>
        <pt x="151" y="508" on="1"/>
        <pt x="120" y="569" on="1"/>
        <pt x="229" y="625" on="1"/>
        <pt x="186" y="657" on="0"/>
        <pt x="123" y="689" on="1"/>
        <pt x="148" y="740" on="1"/>
        <pt x="234" y="709" on="0"/>
        <pt x="302" y="662" on="1"/>
        <pt x="453" y="740" on="1"/>
        <pt x="484" y="679" on="1"/>
      </contour>
    </TTGlyph>
    <TTGlyph name="exclam" xMin="80" yMin="-15" xMax="248" yMax="670">
      <contour>
        <pt x="164" y="-15" on="1"/>
        <pt x="146" y="-15" on="0"/>
        <pt x="116" y="-2" on="0"/>
        <pt x="93" y="21" on="0"/>
        <pt x="80" y="52" on="0"/>
        <pt x="80" y="69" on="1"/>
        <pt x="80" y="104" on="0"/>
        <pt x="129" y="154" on="0"/>
        <pt x="164" y="154" on="1"/>
        <pt x="199" y="154" on="0"/>
        <pt x="248" y="104" on="0"/>
        <pt x="248" y="69" on="1"/>
        <pt x="248" y="52" on="0"/>
        <pt x="235" y="21" on="0"/>
        <pt x="212" y="-2" on="0"/>
        <pt x="182" y="-15" on="0"/>
      </contour>
      <contour>
        <pt x="164" y="670" on="1"/>
        <pt x="198" y="670" on="0"/>
        <pt x="247" y="629" on="0"/>
        <pt x="247" y="587" on="1"/>
        <pt x="247" y="561" on="0"/>
        <pt x="228" y="448" on="0"/>
        <pt x="209" y="352" on="1"/>
        <pt x="188" y="245" on="1"/>
        <pt x="140" y="245" on="1"/>
        <pt x="119" y="352" on="1"/>
        <pt x="100" y="448" on="0"/>
        <pt x="81" y="561" on="0"/>
        <pt x="81" y="587" on="1"/>
        <pt x="81" y="629" on="0"/>
        <pt x="130" y="670" on="0"/>
      </contour>
    </TTGlyph>
    <TTGlyph name="exclamdown" xMin="80" yMin="-186" xMax="248" yMax="499">
      <component glyphName="exclamdown.cap" x="0" y="-171" flags="0x204"/>
    </TTGlyph>
    <TTGlyph name="exclamdown.cap" xMin="80" yMin="-15" xMax="248" yMax="670">
      <contour>
        <pt x="164" y="670" on="1"/>
        <pt x="182" y="670" on="0"/>
        <pt x="212" y="657" on="0"/>
        <pt x="235" y="634" on="0"/>
        <pt x="248" y="603" on="0"/>
        <pt x="248" y="586" on="1"/>
        <pt x="248" y="551" on="0"/>
        <pt x="199" y="501" on="0"/>
        <pt x="164" y="501" on="1"/>
        <pt x="129" y="501" on="0"/>
        <pt x="80" y="551" on="0"/>
        <pt x="80" y="586" on="1"/>
        <pt x="80" y="603" on="0"/>
        <pt x="93" y="634" on="0"/>
        <pt x="116" y="657" on="0"/>
        <pt x="146" y="670" on="0"/>
      </contour>
      <contour>
        <pt x="164" y="-15" on="1"/>
        <pt x="130" y="-15" on="0"/>
        <pt x="81" y="26" on="0"/>
        <pt x="81" y="68" on="1"/>
        <pt x="81" y="94" on="0"/>
        <pt x="100" y="207" on="0"/>
        <pt x="119" y="303" on="1"/>
        <pt x="140" y="410" on="1"/>
        <pt x="188" y="410" on="1"/>
        <pt x="209" y="303" on="1"/>
        <pt x="228" y="207" on="0"/>
        <pt x="247" y="94" on="0"/>
        <pt x="247" y="68" on="1"/>
        <pt x="247" y="26" on="0"/>
        <pt x="198" y="-15" on="0"/>
      </contour>
    </TTGlyph>
    <TTGlyph name="f" xMin="29" yMin="0" xMax="443" yMax="740">
      <contour>
        <pt x="97" y="480" on="1"/>
        <pt x="105" y="556" on="0"/>
        <pt x="146" y="645" on="0"/>
        <pt x="176" y="675" on="1"/>
        <pt x="212" y="710" on="0"/>
        <pt x="293" y="740" on="0"/>
        <pt x="335" y="740" on="1"/>
        <pt x="378" y="740" on="0"/>
        <pt x="435" y="710" on="0"/>
        <pt x="443" y="684" on="1"/>
        <pt x="443" y="656" on="0"/>
        <pt x="408" y="618" on="0"/>
        <pt x="382" y="618" on="1"/>
        <pt x="338" y="618" on="0"/>
        <pt x="297" y="682" on="1"/>
        <pt x="289" y="695" on="1"/>
        <pt x="282" y="690" on="0"/>
        <pt x="272" y="680" on="0"/>
        <pt x="267" y="674" on="1"/>
        <pt x="244" y="645" on="0"/>
        <pt x="226" y="549" on="0"/>
        <pt x="228" y="480" on="1"/>
        <pt x="341" y="480" on="1"/>
        <pt x="341" y="416" on="1"/>
        <pt x="231" y="416" on="1"/>
        <pt x="231" y="210" on="1"/>
        <pt x="231" y="172" on="0"/>
        <pt x="232" y="98" on="0"/>
        <pt x="233" y="60" on="1"/>
        <pt x="309" y="44" on="1"/>
        <pt x="309" y="0" on="1"/>
        <pt x="33" y="0" on="1"/>
        <pt x="33" y="44" on="1"/>
        <pt x="93" y="56" on="1"/>
        <pt x="94" y="94" on="0"/>
        <pt x="95" y="172" on="0"/>
        <pt x="95" y="210" on="1"/>
        <pt x="95" y="416" on="1"/>
        <pt x="29" y="416" on="1"/>
        <pt x="29" y="471" on="1"/>
      </contour>
    </TTGlyph>
    <TTGlyph name="f.sups" xMin="20" yMin="415" xMax="304" yMax="900">
      <contour>
        <pt x="63" y="728" on="1"/>
        <pt x="69" y="778" on="0"/>
        <pt x="96" y="835" on="0"/>
        <pt x="118" y="855" on="1"/>
        <pt x="147" y="882" on="0"/>
        <pt x="208" y="900" on="0"/>
        <pt x="229" y="900" on="1"/>
        <pt x="257" y="900" on="0"/>
        <pt x="299" y="881" on="0"/>
        <pt x="304" y="864" on="1"/>
        <pt x="304" y="847" on="0"/>
        <pt x="280" y="823" on="0"/>
        <pt x="263" y="823" on="1"/>
        <pt x="249" y="823" on="0"/>
        <pt x="217" y="841" on="0"/>
        <pt x="203" y="861" on="1"/>
        <pt x="199" y="868" on="1"/>
        <pt x="189" y="862" on="0"/>
        <pt x="183" y="853" on="1"/>
        <pt x="157" y="819" on="0"/>
        <pt x="159" y="728" on="1"/>
        <pt x="233" y="728" on="1"/>
        <pt x="233" y="684" on="1"/>
        <pt x="161" y="684" on="1"/>
        <pt x="161" y="456" on="1"/>
        <pt x="212" y="446" on="1"/>
        <pt x="212" y="415" on="1"/>
        <pt x="22" y="415" on="1"/>
        <pt x="22" y="446" on="1"/>
        <pt x="62" y="454" on="1"/>
        <pt x="62" y="684" on="1"/>
        <pt x="20" y="684" on="1"/>
        <pt x="20" y="722" on="1"/>
      </contour>
    </TTGlyph>
    <TTGlyph name="f_i" xMin="29" yMin="0" xMax="609" yMax="740">
      <contour>
        <pt x="609" y="44" on="1"/>
        <pt x="609" y="0" on="1"/>
        <pt x="353" y="0" on="1"/>
        <pt x="353" y="44" on="1"/>
        <pt x="414" y="56" on="1"/>
        <pt x="415" y="94" on="0"/>
        <pt x="415" y="178" on="0"/>
        <pt x="415" y="210" on="1"/>
        <pt x="415" y="270" on="1"/>
        <pt x="415" y="318" on="0"/>
        <pt x="414" y="381" on="0"/>
        <pt x="412" y="416" on="1"/>
        <pt x="231" y="416" on="1"/>
        <pt x="231" y="210" on="1"/>
        <pt x="231" y="172" on="0"/>
        <pt x="232" y="96" on="0"/>
        <pt x="233" y="58" on="1"/>
        <pt x="299" y="44" on="1"/>
        <pt x="299" y="0" on="1"/>
        <pt x="33" y="0" on="1"/>
        <pt x="33" y="44" on="1"/>
        <pt x="93" y="56" on="1"/>
        <pt x="94" y="94" on="0"/>
        <pt x="95" y="172" on="0"/>
        <pt x="95" y="210" on="1"/>
        <pt x="95" y="416" on="1"/>
        <pt x="29" y="416" on="1"/>
        <pt x="29" y="471" on="1"/>
        <pt x="97" y="480" on="1"/>
        <pt x="101" y="516" on="0"/>
        <pt x="113" y="573" on="0"/>
        <pt x="131" y="618" on="0"/>
        <pt x="157" y="653" on="0"/>
        <pt x="175" y="669" on="1"/>
        <pt x="223" y="712" on="0"/>
        <pt x="336" y="740" on="0"/>
        <pt x="395" y="740" on="1"/>
        <pt x="424" y="740" on="0"/>
        <pt x="477" y="729" on="0"/>
        <pt x="519" y="708" on="0"/>
        <pt x="547" y="679" on="0"/>
        <pt x="551" y="661" on="1"/>
        <pt x="552" y="632" on="0"/>
        <pt x="515" y="593" on="0"/>
        <pt x="482" y="593" on="1"/>
        <pt x="433" y="593" on="0"/>
        <pt x="394" y="650" on="1"/>
        <pt x="365" y="694" on="1"/>
        <pt x="337" y="687" on="0"/>
        <pt x="301" y="669" on="0"/>
        <pt x="284" y="654" on="1"/>
        <pt x="252" y="625" on="0"/>
        <pt x="228" y="545" on="0"/>
        <pt x="229" y="480" on="1"/>
        <pt x="436" y="480" on="1"/>
        <pt x="539" y="498" on="1"/>
        <pt x="554" y="488" on="1"/>
        <pt x="551" y="345" on="1"/>
        <pt x="551" y="210" on="1"/>
        <pt x="551" y="178" on="0"/>
        <pt x="551" y="93" on="0"/>
        <pt x="552" y="56" on="1"/>
      </contour>
    </TTGlyph>
    <TTGlyph name="f_l" xMin="29" yMin="0" xMax="607" yMax="740">
      <contour>
        <pt x="607" y="44" on="1"/>
        <pt x="607" y="0" on="1"/>
        <pt x="353" y="0" on="1"/>
        <pt x="353" y="44" on="1"/>
        <pt x="413" y="56" on="1"/>
        <pt x="414" y="95" on="0"/>
        <pt x="415" y="172" on="0"/>
        <pt x="415" y="210" on="1"/>
        <pt x="415" y="617" on="1"/>
        <pt x="383" y="618" on="0"/>
        <pt x="328" y="650" on="0"/>
        <pt x="306" y="682" on="1"/>
        <pt x="299" y="694" on="1"/>
        <pt x="285" y="684" on="0"/>
        <pt x="273" y="669" on="1"/>
        <pt x="229" y="612" on="0"/>
        <pt x="229" y="480" on="1"/>
        <pt x="341" y="480" on="1"/>
        <pt x="341" y="416" on="1"/>
        <pt x="231" y="416" on="1"/>
        <pt x="231" y="210" on="1"/>
        <pt x="231" y="172" on="0"/>
        <pt x="232" y="96" on="0"/>
        <pt x="233" y="58" on="1"/>
        <pt x="299" y="44" on="1"/>
        <pt x="299" y="0" on="1"/>
        <pt x="33" y="0" on="1"/>
        <pt x="33" y="44" on="1"/>
        <pt x="93" y="56" on="1"/>
        <pt x="94" y="94" on="0"/>
        <pt x="95" y="172" on="0"/>
        <pt x="95" y="210" on="1"/>
        <pt x="95" y="416" on="1"/>
        <pt x="29" y="416" on="1"/>
        <pt x="29" y="471" on="1"/>
        <pt x="97" y="480" on="1"/>
        <pt x="101" y="519" on="0"/>
        <pt x="115" y="579" on="0"/>
        <pt x="138" y="627" on="0"/>
        <pt x="170" y="666" on="0"/>
        <pt x="191" y="683" on="1"/>
        <pt x="229" y="714" on="0"/>
        <pt x="315" y="740" on="0"/>
        <pt x="355" y="740" on="1"/>
        <pt x="396" y="740" on="0"/>
        <pt x="458" y="715" on="0"/>
        <pt x="472" y="693" on="1"/>
        <pt x="539" y="720" on="1"/>
        <pt x="553" y="712" on="1"/>
        <pt x="549" y="570" on="1"/>
        <pt x="549" y="210" on="1"/>
        <pt x="549" y="172" on="0"/>
        <pt x="550" y="94" on="0"/>
        <pt x="551" y="56" on="1"/>
      </contour>
    </TTGlyph>
    <TTGlyph name="f_t" xMin="29" yMin="-10" xMax="682" yMax="740">
      <contour>
        <pt x="682" y="61" on="1"/>
        <pt x="663" y="32" on="0"/>
        <pt x="591" y="-10" on="0"/>
        <pt x="537" y="-10" on="1"/>
        <pt x="476" y="-10" on="0"/>
        <pt x="405" y="50" on="0"/>
        <pt x="405" y="113" on="1"/>
        <pt x="405" y="144" on="0"/>
        <pt x="406" y="189" on="0"/>
        <pt x="406" y="218" on="1"/>
        <pt x="406" y="416" on="1"/>
        <pt x="231" y="416" on="1"/>
        <pt x="231" y="210" on="1"/>
        <pt x="231" y="172" on="0"/>
        <pt x="232" y="98" on="0"/>
        <pt x="233" y="60" on="1"/>
        <pt x="309" y="44" on="1"/>
        <pt x="309" y="0" on="1"/>
        <pt x="33" y="0" on="1"/>
        <pt x="33" y="44" on="1"/>
        <pt x="93" y="56" on="1"/>
        <pt x="94" y="94" on="0"/>
        <pt x="95" y="172" on="0"/>
        <pt x="95" y="210" on="1"/>
        <pt x="95" y="416" on="1"/>
        <pt x="29" y="416" on="1"/>
        <pt x="29" y="471" on="1"/>
        <pt x="97" y="480" on="1"/>
        <pt x="105" y="556" on="0"/>
        <pt x="146" y="645" on="0"/>
        <pt x="176" y="675" on="1"/>
        <pt x="212" y="710" on="0"/>
        <pt x="293" y="740" on="0"/>
        <pt x="335" y="740" on="1"/>
        <pt x="378" y="740" on="0"/>
        <pt x="435" y="710" on="0"/>
        <pt x="443" y="684" on="1"/>
        <pt x="443" y="656" on="0"/>
        <pt x="408" y="618" on="0"/>
        <pt x="382" y="618" on="1"/>
        <pt x="338" y="618" on="0"/>
        <pt x="297" y="682" on="1"/>
        <pt x="289" y="695" on="1"/>
        <pt x="282" y="690" on="0"/>
        <pt x="272" y="680" on="0"/>
        <pt x="267" y="674" on="1"/>
        <pt x="244" y="645" on="0"/>
        <pt x="226" y="549" on="0"/>
        <pt x="228" y="480" on="1"/>
        <pt x="420" y="480" on="1"/>
        <pt x="446" y="620" on="1"/>
        <pt x="542" y="620" on="1"/>
        <pt x="542" y="480" on="1"/>
        <pt x="656" y="480" on="1"/>
        <pt x="656" y="416" on="1"/>
        <pt x="542" y="416" on="1"/>
        <pt x="542" y="141" on="1"/>
        <pt x="542" y="104" on="0"/>
        <pt x="571" y="71" on="0"/>
        <pt x="595" y="71" on="1"/>
        <pt x="606" y="71" on="0"/>
        <pt x="635" y="80" on="0"/>
        <pt x="653" y="95" on="1"/>
      </contour>
    </TTGlyph>
    <TTGlyph name="figuredash" xMin="40" yMin="209" xMax="488" yMax="293">
      <contour>
        <pt x="40" y="293" on="1"/>
        <pt x="488" y="293" on="1"/>
        <pt x="488" y="209" on="1"/>
        <pt x="40" y="209" on="1"/>
      </contour>
    </TTGlyph>
    <TTGlyph name="five" xMin="36" yMin="-15" xMax="492" yMax="638">
      <contour>
        <pt x="159" y="393" on="1"/>
        <pt x="205" y="403" on="0"/>
        <pt x="257" y="403" on="1"/>
        <pt x="306" y="403" on="0"/>
        <pt x="392" y="378" on="0"/>
        <pt x="455" y="327" on="0"/>
        <pt x="492" y="250" on="0"/>
        <pt x="492" y="198" on="1"/>
        <pt x="492" y="147" on="0"/>
        <pt x="454" y="68" on="0"/>
        <pt x="387" y="13" on="0"/>
        <pt x="296" y="-15" on="0"/>
        <pt x="243" y="-15" on="1"/>
        <pt x="198" y="-15" on="0"/>
        <pt x="122" y="8" on="0"/>
        <pt x="67" y="49" on="0"/>
        <pt x="36" y="103" on="0"/>
        <pt x="36" y="134" on="1"/>
        <pt x="43" y="161" on="0"/>
        <pt x="75" y="188" on="0"/>
        <pt x="98" y="188" on="1"/>
        <pt x="121" y="188" on="0"/>
        <pt x="155" y="155" on="0"/>
        <pt x="163" y="108" on="1"/>
        <pt x="173" y="45" on="1"/>
        <pt x="204" y="35" on="0"/>
        <pt x="230" y="35" on="1"/>
        <pt x="287" y="35" on="0"/>
        <pt x="350" y="124" on="0"/>
        <pt x="350" y="196" on="1"/>
        <pt x="350" y="259" on="0"/>
        <pt x="288" y="333" on="0"/>
        <pt x="224" y="333" on="1"/>
        <pt x="201" y="333" on="0"/>
        <pt x="147" y="327" on="0"/>
        <pt x="124" y="322" on="1"/>
        <pt x="96" y="339" on="1"/>
        <pt x="117" y="638" on="1"/>
        <pt x="470" y="638" on="1"/>
        <pt x="470" y="518" on="1"/>
        <pt x="168" y="518" on="1"/>
      </contour>
    </TTGlyph>
    <TTGlyph name="five.dnom" xMin="25" yMin="-8" xMax="328" yMax="392">
      <component glyphName="five.sups" x="0" y="-414" flags="0x204"/>
    </TTGlyph>
    <TTGlyph name="five.lf" xMin="25" yMin="-15" xMax="481" yMax="638">
      <contour>
        <pt x="148" y="393" on="1"/>
        <pt x="194" y="403" on="0"/>
        <pt x="246" y="403" on="1"/>
        <pt x="295" y="403" on="0"/>
        <pt x="381" y="378" on="0"/>
        <pt x="444" y="327" on="0"/>
        <pt x="481" y="250" on="0"/>
        <pt x="481" y="198" on="1"/>
        <pt x="481" y="147" on="0"/>
        <pt x="443" y="68" on="0"/>
        <pt x="376" y="13" on="0"/>
        <pt x="285" y="-15" on="0"/>
        <pt x="232" y="-15" on="1"/>
        <pt x="187" y="-15" on="0"/>
        <pt x="111" y="8" on="0"/>
        <pt x="56" y="49" on="0"/>
        <pt x="25" y="103" on="0"/>
        <pt x="25" y="134" on="1"/>
        <pt x="32" y="161" on="0"/>
        <pt x="64" y="188" on="0"/>
        <pt x="87" y="188" on="1"/>
        <pt x="110" y="188" on="0"/>
        <pt x="144" y="155" on="0"/>
        <pt x="152" y="108" on="1"/>
        <pt x="162" y="45" on="1"/>
        <pt x="193" y="35" on="0"/>
        <pt x="219" y="35" on="1"/>
        <pt x="276" y="35" on="0"/>
        <pt x="339" y="124" on="0"/>
        <pt x="339" y="196" on="1"/>
        <pt x="339" y="259" on="0"/>
        <pt x="277" y="333" on="0"/>
        <pt x="213" y="333" on="1"/>
        <pt x="190" y="333" on="0"/>
        <pt x="136" y="327" on="0"/>
        <pt x="113" y="322" on="1"/>
        <pt x="85" y="339" on="1"/>
        <pt x="106" y="638" on="1"/>
        <pt x="459" y="638" on="1"/>
        <pt x="459" y="518" on="1"/>
        <pt x="157" y="518" on="1"/>
      </contour>
    </TTGlyph>
    <TTGlyph name="five.numr" xMin="25" yMin="251" xMax="328" yMax="651">
      <component glyphName="five.sups" x="0" y="-155" flags="0x204"/>
    </TTGlyph>
    <TTGlyph name="five.osf" xMin="25" yMin="-135" xMax="481" yMax="518">
      <contour>
        <pt x="148" y="273" on="1"/>
        <pt x="194" y="283" on="0"/>
        <pt x="246" y="283" on="1"/>
        <pt x="295" y="283" on="0"/>
        <pt x="381" y="258" on="0"/>
        <pt x="444" y="207" on="0"/>
        <pt x="481" y="130" on="0"/>
        <pt x="481" y="78" on="1"/>
        <pt x="481" y="27" on="0"/>
        <pt x="443" y="-52" on="0"/>
        <pt x="376" y="-107" on="0"/>
        <pt x="285" y="-135" on="0"/>
        <pt x="232" y="-135" on="1"/>
        <pt x="187" y="-135" on="0"/>
        <pt x="111" y="-112" on="0"/>
        <pt x="56" y="-71" on="0"/>
        <pt x="25" y="-17" on="0"/>
        <pt x="25" y="14" on="1"/>
        <pt x="32" y="41" on="0"/>
        <pt x="64" y="68" on="0"/>
        <pt x="87" y="68" on="1"/>
        <pt x="110" y="68" on="0"/>
        <pt x="144" y="35" on="0"/>
        <pt x="152" y="-12" on="1"/>
        <pt x="162" y="-75" on="1"/>
        <pt x="193" y="-85" on="0"/>
        <pt x="219" y="-85" on="1"/>
        <pt x="276" y="-85" on="0"/>
        <pt x="339" y="4" on="0"/>
        <pt x="339" y="76" on="1"/>
        <pt x="339" y="139" on="0"/>
        <pt x="277" y="213" on="0"/>
        <pt x="213" y="213" on="1"/>
        <pt x="190" y="213" on="0"/>
        <pt x="136" y="207" on="0"/>
        <pt x="113" y="202" on="1"/>
        <pt x="85" y="219" on="1"/>
        <pt x="106" y="518" on="1"/>
        <pt x="459" y="518" on="1"/>
        <pt x="459" y="398" on="1"/>
        <pt x="157" y="398" on="1"/>
      </contour>
    </TTGlyph>
    <TTGlyph name="five.subs" xMin="25" yMin="-228" xMax="328" yMax="172">
      <component glyphName="five.sups" x="0" y="-634" flags="0x204"/>
    </TTGlyph>
    <TTGlyph name="five.sups" xMin="25" yMin="406" xMax="328" yMax="806">
      <contour>
        <pt x="111" y="657" on="1"/>
        <pt x="125" y="660" on="0"/>
        <pt x="154" y="662" on="0"/>
        <pt x="171" y="662" on="1"/>
        <pt x="243" y="662" on="0"/>
        <pt x="328" y="596" on="0"/>
        <pt x="328" y="536" on="1"/>
        <pt x="328" y="476" on="0"/>
        <pt x="238" y="406" on="0"/>
        <pt x="166" y="406" on="1"/>
        <pt x="135" y="406" on="0"/>
        <pt x="82" y="422" on="0"/>
        <pt x="45" y="449" on="0"/>
        <pt x="25" y="486" on="0"/>
        <pt x="26" y="506" on="1"/>
        <pt x="35" y="542" on="0"/>
        <pt x="67" y="542" on="1"/>
        <pt x="84" y="542" on="0"/>
        <pt x="106" y="520" on="0"/>
        <pt x="111" y="488" on="1"/>
        <pt x="116" y="447" on="1"/>
        <pt x="125" y="445" on="0"/>
        <pt x="141" y="442" on="0"/>
        <pt x="149" y="442" on="1"/>
        <pt x="187" y="442" on="0"/>
        <pt x="226" y="490" on="0"/>
        <pt x="226" y="531" on="1"/>
        <pt x="226" y="570" on="0"/>
        <pt x="188" y="613" on="0"/>
        <pt x="152" y="613" on="1"/>
        <pt x="132" y="613" on="0"/>
        <pt x="100" y="609" on="0"/>
        <pt x="84" y="606" on="1"/>
        <pt x="66" y="619" on="1"/>
        <pt x="80" y="806" on="1"/>
        <pt x="313" y="806" on="1"/>
        <pt x="313" y="717" on="1"/>
        <pt x="115" y="717" on="1"/>
      </contour>
    </TTGlyph>
    <TTGlyph name="five.tosf" xMin="36" yMin="-135" xMax="492" yMax="518">
      <contour>
        <pt x="159" y="273" on="1"/>
        <pt x="205" y="283" on="0"/>
        <pt x="257" y="283" on="1"/>
        <pt x="306" y="283" on="0"/>
        <pt x="392" y="258" on="0"/>
        <pt x="455" y="207" on="0"/>
        <pt x="492" y="130" on="0"/>
        <pt x="492" y="78" on="1"/>
        <pt x="492" y="27" on="0"/>
        <pt x="454" y="-52" on="0"/>
        <pt x="387" y="-107" on="0"/>
        <pt x="296" y="-135" on="0"/>
        <pt x="243" y="-135" on="1"/>
        <pt x="198" y="-135" on="0"/>
        <pt x="122" y="-112" on="0"/>
        <pt x="67" y="-71" on="0"/>
        <pt x="36" y="-17" on="0"/>
        <pt x="36" y="14" on="1"/>
        <pt x="43" y="41" on="0"/>
        <pt x="75" y="68" on="0"/>
        <pt x="98" y="68" on="1"/>
        <pt x="121" y="68" on="0"/>
        <pt x="155" y="35" on="0"/>
        <pt x="163" y="-12" on="1"/>
        <pt x="173" y="-75" on="1"/>
        <pt x="204" y="-85" on="0"/>
        <pt x="230" y="-85" on="1"/>
        <pt x="287" y="-85" on="0"/>
        <pt x="350" y="4" on="0"/>
        <pt x="350" y="76" on="1"/>
        <pt x="350" y="139" on="0"/>
        <pt x="288" y="213" on="0"/>
        <pt x="224" y="213" on="1"/>
        <pt x="201" y="213" on="0"/>
        <pt x="147" y="207" on="0"/>
        <pt x="124" y="202" on="1"/>
        <pt x="96" y="219" on="1"/>
        <pt x="117" y="518" on="1"/>
        <pt x="470" y="518" on="1"/>
        <pt x="470" y="398" on="1"/>
        <pt x="168" y="398" on="1"/>
      </contour>
    </TTGlyph>
    <TTGlyph name="fiveeighths" xMin="41" yMin="-25" xMax="840" yMax="663">
      <component glyphName="fraction" x="380" y="0" flags="0x4"/>
      <component glyphName="five.sups" x="16" y="-155" flags="0x4"/>
      <component glyphName="eight.sups" x="507" y="-414" flags="0x4"/>
    </TTGlyph>
    <TTGlyph name="four" xMin="17" yMin="0" xMax="511" yMax="648">
      <contour>
        <pt x="294" y="254" on="1"/>
        <pt x="294" y="523" on="1"/>
        <pt x="100" y="254" on="1"/>
      </contour>
      <contour>
        <pt x="511" y="155" on="1"/>
        <pt x="415" y="155" on="1"/>
        <pt x="415" y="0" on="1"/>
        <pt x="294" y="0" on="1"/>
        <pt x="294" y="155" on="1"/>
        <pt x="17" y="155" on="1"/>
        <pt x="17" y="235" on="1"/>
        <pt x="322" y="648" on="1"/>
        <pt x="415" y="648" on="1"/>
        <pt x="415" y="254" on="1"/>
        <pt x="511" y="254" on="1"/>
      </contour>
    </TTGlyph>
    <TTGlyph name="four.dnom" xMin="24" yMin="1" xMax="351" yMax="398">
      <component glyphName="four.sups" x="0" y="-414" flags="0x204"/>
    </TTGlyph>
    <TTGlyph name="four.lf" xMin="20" yMin="0" xMax="514" yMax="648">
      <contour>
        <pt x="297" y="254" on="1"/>
        <pt x="297" y="523" on="1"/>
        <pt x="103" y="254" on="1"/>
      </contour>
      <contour>
        <pt x="514" y="155" on="1"/>
        <pt x="418" y="155" on="1"/>
        <pt x="418" y="0" on="1"/>
        <pt x="297" y="0" on="1"/>
        <pt x="297" y="155" on="1"/>
        <pt x="20" y="155" on="1"/>
        <pt x="20" y="235" on="1"/>
        <pt x="325" y="648" on="1"/>
        <pt x="418" y="648" on="1"/>
        <pt x="418" y="254" on="1"/>
        <pt x="514" y="254" on="1"/>
      </contour>
    </TTGlyph>
    <TTGlyph name="four.numr" xMin="24" yMin="260" xMax="351" yMax="657">
      <component glyphName="four.sups" x="0" y="-155" flags="0x204"/>
    </TTGlyph>
    <TTGlyph name="four.osf" xMin="20" yMin="-130" xMax="514" yMax="518">
      <contour>
        <pt x="297" y="124" on="1"/>
        <pt x="297" y="393" on="1"/>
        <pt x="103" y="124" on="1"/>
      </contour>
      <contour>
        <pt x="514" y="25" on="1"/>
        <pt x="418" y="25" on="1"/>
        <pt x="418" y="-130" on="1"/>
        <pt x="297" y="-130" on="1"/>
        <pt x="297" y="25" on="1"/>
        <pt x="20" y="25" on="1"/>
        <pt x="20" y="105" on="1"/>
        <pt x="325" y="518" on="1"/>
        <pt x="418" y="518" on="1"/>
        <pt x="418" y="124" on="1"/>
        <pt x="514" y="124" on="1"/>
      </contour>
    </TTGlyph>
    <TTGlyph name="four.subs" xMin="24" yMin="-219" xMax="351" yMax="178">
      <component glyphName="four.sups" x="0" y="-634" flags="0x204"/>
    </TTGlyph>
</ttFont>
